SplineFontDB: 3.0
FontName: Mittaphap-Book-Bold
FullName: Mittaphap Book Bold
FamilyName: Mittaphap Book
Weight: Bold
Copyright: Copyright (c) 2010 by . All rights reserved.
Version: 001.001
ItalicAngle: 0
UnderlinePosition: -91
UnderlineWidth: 23
Ascent: 800
Descent: 200
sfntRevision: 0x00010000
LayerCount: 2
Layer: 0 0 "Back"  1
Layer: 1 0 "Fore"  0
XUID: [1021 332 469972825 7696570]
FSType: 0
OS2Version: 2
OS2_WeightWidthSlopeOnly: 0
OS2_UseTypoMetrics: 1
CreationTime: 1282831488
ModificationTime: 1363862107
PfmFamily: 17
TTFWeight: 700
TTFWidth: 5
LineGap: 17
VLineGap: 0
Panose: 2 0 5 3 0 0 0 0 0 0
OS2TypoAscent: 1200
OS2TypoAOffset: 0
OS2TypoDescent: -439
OS2TypoDOffset: 0
OS2TypoLinegap: 17
OS2WinAscent: 1200
OS2WinAOffset: 0
OS2WinDescent: 439
OS2WinDOffset: 0
HheadAscent: 1200
HheadAOffset: 0
HheadDescent: -439
HheadDOffset: 0
OS2SubXSize: 650
OS2SubYSize: 699
OS2SubXOff: 0
OS2SubYOff: 140
OS2SupXSize: 650
OS2SupYSize: 699
OS2SupXOff: 0
OS2SupYOff: 479
OS2StrikeYSize: 50
OS2StrikeYPos: 250
OS2Vendor: 'PfEd'
OS2CodePages: 00010000.00000000
OS2UnicodeRanges: 8300002f.00000002.00000000.00000000
Lookup: 2 0 0 "ccmpGlyphCompositionDecompositi"  {"ccmpGlyphCompositionDecompositi subtable"  } ['ccmp' ('lao ' <'dflt' > ) ]
Lookup: 260 0 0 "cabove"  {"cabove subtable"  } ['mark' ('latn' <'dflt' > 'lao ' <'dflt' > 'DFLT' <'dflt' > ) ]
Lookup: 260 0 0 "udia"  {"udia subtable"  } ['mark' ('lao ' <'dflt' > 'DFLT' <'dflt' > ) ]
Lookup: 260 0 0 "cbelowldia"  {"cbelowldia subtable"  } ['mark' ('lao ' <'dflt' > 'DFLT' <'dflt' > ) ]
Lookup: 262 0 0 "tone"  {"tone subtable"  } ['mkmk' ('lao ' <'dflt' > 'DFLT' <'dflt' > ) ]
Lookup: 262 0 0 "lstack"  {"lstack subtable"  } ['mkmk' ('lao ' <'dflt' > 'DFLT' <'dflt' > ) ]
Lookup: 258 0 0 "kernHorizontalKerninginLatinloo"  {"kernHorizontalKerninginLatinloo subtable"  } ['kern' ('latn' <'dflt' > 'DFLT' <'dflt' > ) ]
MarkAttachClasses: 1
DEI: 91125

StartChar: .notdef
Encoding: 0 -1 0
Width: 572
GlyphClass: 1
Flags: W
HStem: -5 52<105 469> 402 51<105 469>
VStem: 54 51<47 402> 469 48<47 402>
LayerCount: 2
Fore
SplineSet
469 402 m 1
 105 402 l 1
 105 47 l 1
 469 47 l 1
 469 402 l 1
54 453 m 1
 517 453 l 1
 517 -5 l 1
 54 -5 l 1
 54 453 l 1
EndSplineSet
EndChar

StartChar: uni0E82
Encoding: 96 3714 1
Width: 631
GlyphClass: 2
Flags: W
HStem: -6 94<176.772 285.844> 48 97<341.923 473.633> 280 76<148.672 207.773> 474 84<234.203 432.878>
VStem: 49 95<360.726 414.579> 53 122<89.8753 140.256> 210 82<357.425 417.271> 460 123<344.715 447.514>
AnchorPoint: "ldia" 440 0 basechar 0
AnchorPoint: "cbelow" 440 0 basechar 0
AnchorPoint: "udia" 300 600 basechar 0
AnchorPoint: "cabove" 340 600 basechar 0
LayerCount: 2
Fore
SplineSet
497 -3 m 0x77
 480 21 462 48 426 48 c 0x77
 374 48 290 -6 195 -6 c 0
 103 -6 53 35 53 112 c 0xb7
 53 201 136 233 264 274 c 1
 299 286 l 1
 407 320 460 337 460 393 c 0
 460 460 408 474 316 474 c 0
 283 474 255 473 231 470 c 1
 266 459 292 434 292 391 c 0
 292 336 260 280 174 280 c 0
 97 280 49 333 49 399 c 0xbb
 49 513 172 558 313 558 c 0
 468 558 583 517 583 388 c 0
 583 297 519 244 372 199 c 0
 284 172 175 150 175 117 c 0
 175 101 178 88 205 88 c 0xb7
 256 88 349 145 424 145 c 0
 490 145 542 111 578 54 c 0
 583 46 587 41 587 32 c 0
 587 11 535 -20 520 -20 c 0
 508 -20 507 -16 497 -3 c 0x77
144 410 m 1x3b
 144 407 144 405 144 402 c 0
 144 369 158 356 180 356 c 0
 202 356 210 374 210 390 c 0
 210 408 197 419 179 419 c 0
 168 419 155 415 144 410 c 1x3b
EndSplineSet
EndChar

StartChar: uni0E84
Encoding: 97 3716 2
Width: 626
GlyphClass: 2
Flags: W
HStem: 0 80<159.799 218.437> 144 76<163.408 217.366> 474 84<187.332 414.71>
VStem: 49 108<83.5858 142.92 214 234.04> 55 115<382.778 453.707> 220 89<82.375 141.924> 459 119<4.09117 432.77>
AnchorPoint: "ldia" 440 0 basechar 0
AnchorPoint: "cbelow" 440 0 basechar 0
AnchorPoint: "udia" 300 600 basechar 0
AnchorPoint: "cabove" 340 600 basechar 0
LayerCount: 2
Back
SplineSet
320 474 m 0xee
 211 474 170 460 170 416 c 0xee
 170 348 286 398 286 312 c 0
 286 248 169 255 163 214 c 1
 174 217 186 220 197 220 c 0
 269 220 309 163 309 109 c 0
 309 45 257 0 187 0 c 0
 104 0 49 47 49 141 c 2
 49 155 l 2xf6
 49 244 102 284 173 305 c 1
 118 305 55 335 55 414 c 0
 55 527 171 558 322 558 c 0
 484 558 578 502 578 331 c 2
 578 36 l 2
 578 0 545 0 519 0 c 0
 494 0 459 0 459 36 c 2
 459 346 l 2
 459 435 424 474 320 474 c 0xee
157 135 m 1xf6
 157 116 l 2
 157 90 170 80 189 80 c 0
 205 80 220 93 220 112 c 0
 220 132 203 144 188 144 c 0
 179 144 167 140 157 135 c 1xf6
EndSplineSet
Fore
SplineSet
49 144 m 0xf6
 49 247 102 284 173 305 c 1
 118 305 55 335 55 414 c 0
 55 527 171 558 322 558 c 0
 484 558 578 502 578 331 c 2
 578 36 l 2
 578 0 545 0 519 0 c 0
 494 0 459 0 459 36 c 2
 459 346 l 2
 459 435 424 474 320 474 c 0
 211 474 170 460 170 416 c 0xee
 170 348 286 398 286 312 c 0
 286 248 169 255 163 214 c 1
 174 217 186 220 197 220 c 0
 269 220 309 163 309 109 c 0
 309 45 257 0 187 0 c 0
 104 0 49 46 49 144 c 0xf6
157 135 m 1xf6
 157 116 l 2
 157 90 170 80 189 80 c 0
 205 80 220 93 220 112 c 0
 220 132 203 144 188 144 c 0
 179 144 167 140 157 135 c 1xf6
EndSplineSet
EndChar

StartChar: uni0E87
Encoding: 98 3719 3
Width: 477
GlyphClass: 2
Flags: W
HStem: -223 98<118.956 280.96> 319 78<134.397 190.772>
VStem: 49 83<398.893 462.483> 192.198 79.802<398.637 469.474> 310 119<-95.7888 454.641>
AnchorPoint: "ldia" 260 -200 basechar 0
AnchorPoint: "cbelow" 346 -200 basechar 0
AnchorPoint: "udia" 225 600 basechar 0
AnchorPoint: "cabove" 240 600 basechar 0
LayerCount: 2
Fore
SplineSet
140 -214 m 1
 126 -212 114 -204 114 -181 c 0
 114 -149 123 -125 143 -125 c 1
 148 -125 l 1
 160 -125 192 -131 212 -131 c 0
 290 -131 310 -75 310 0 c 2
 310 383 l 2
 310 431 305 460 261 470 c 1
 267 456 272 439 272 421 c 0
 272 362 226 319 166 319 c 0
 97 319 49 362 49 429 c 0
 49 513 123 558 228 558 c 0
 347 558 429 507 429 364 c 2
 429 10 l 2
 429 -155 338 -223 216 -223 c 0
 192 -223 162 -220 140 -214 c 1
184 472 m 1
 146 466 132 449 132 430 c 0
 132 408 147 397 164 397 c 0
 182.144 397 192.198 410.069 192.198 427.86 c 0
 192.198 432.622 191.478 437.722 190 443 c 0
 188 449 184 462 184 472 c 1
EndSplineSet
EndChar

StartChar: uni0E88
Encoding: 99 3720 4
Width: 679
GlyphClass: 2
Flags: W
HStem: 0 84<428.37 501.143> 122 80<254.147 316> 268 75<254.425 313.107> 474 83<224.073 449.356>
VStem: 49 114<322.235 422.831> 170 82<204.131 266.04> 316 108<86.3641 126 202.646 263.888> 511 120<90.8089 416.225>
AnchorPoint: "ldia" 440 0 basechar 0
AnchorPoint: "cbelow" 440 0 basechar 0
AnchorPoint: "udia" 300 600 basechar 0
AnchorPoint: "cabove" 340 600 basechar 0
LayerCount: 2
Fore
SplineSet
297 343 m 4
 407 343 424 260 424 153 c 4
 424 95 429 84 465 84 c 4
 496 84 511 95 511 174 c 6
 511 325 l 6
 511 432 456 474 342 474 c 4
 214 474 163 431 163 357 c 4
 163 321 139 318 104 318 c 4
 78 318 49 321 49 355 c 4
 49 502 172 557 345 557 c 4
 503 557 631 504 631 292 c 6
 631 207 l 5
 631 32 562 0 465 0 c 4
 376 0 316 32 316 126 c 5
 307 124 297 122 287 122 c 4
 221 122 170 163 170 232 c 4
 170 295 216 343 297 343 c 4
316 208 m 1
 316 217 316 226 316 235 c 0
 316 255 302 268 284 268 c 0
 266 268 252 255 252 235 c 0
 252 219 263 202 285 202 c 0
 294 202 305 204 316 208 c 1
EndSplineSet
EndChar

StartChar: uni0E8A
Encoding: 100 3722 5
Width: 649
GlyphClass: 2
Flags: W
HStem: -6 94<176.772 274.942> 64 100<364.663 508.298> 280 76<148.672 207.773> 474 84<234.203 432.878>
VStem: 49 95<360.726 414.579> 53 122<89.8753 140.552> 210 82<357.425 417.271> 460 123<344.304 447.514> 468 113<-116.72 61.5181>
AnchorPoint: "ldia" 340 0 basechar 0
AnchorPoint: "cbelow" 390 0 basechar 0
AnchorPoint: "udia" 300 600 basechar 0
AnchorPoint: "cabove" 340 600 basechar 0
LayerCount: 2
Back
SplineSet
586 63 m 2
 586 -13 629 -72 629 -99 c 0
 629 -128 605 -145 560 -145 c 0
 530 -145 515 -138 508 -122 c 0
 495.705 -93.8965 468 -34 468 49 c 2
EndSplineSet
Fore
SplineSet
205 88 m 0xb7
 252 88 373 164 464 164 c 0
 551 164 581 106 581 31 c 4
 581 -45 601 -91 601 -118 c 4
 601 -147 558 -158 522 -158 c 4
 506 -158 488 -154 485 -134 c 4
 481.974 -113.83 468 -62 468 21 c 4
 468 54 457 64 431 64 c 0x7680
 387 64 290 -6 195 -6 c 0
 103 -6 53 35 53 112 c 0xb680
 53 203 141 235 281 280 c 0
 398 318 460 333 460 393 c 0
 460 460 408 474 316 474 c 0
 283 474 255 473 231 470 c 1
 266 459 292 434 292 391 c 0
 292 336 260 280 174 280 c 0
 97 280 49 333 49 399 c 0xbb
 49 513 172 558 313 558 c 0
 468 558 583 517 583 388 c 0
 583 297 519 244 372 199 c 0
 284 172 175 150 175 117 c 0
 175 101 178 88 205 88 c 0xb7
144 410 m 1x3a
 144 407 144 405 144 402 c 0
 144 369 158 356 180 356 c 0
 202 356 210 374 210 390 c 0
 210 408 197 419 179 419 c 0
 168 419 155 415 144 410 c 1x3a
EndSplineSet
EndChar

StartChar: uni0E8D
Encoding: 101 3725 6
Width: 569
GlyphClass: 2
Flags: W
HStem: 0 84<186.446 415.912> 338 76<160.392 218.657> 477 81<159.29 216.424>
VStem: 50 107<414.979 473.59> 55 115<103.891 175.304> 220 89<416.291 475.094> 459 119<125.125 553.297>
AnchorPoint: "ldia" 440 0 basechar 0
AnchorPoint: "cbelow" 440 0 basechar 0
AnchorPoint: "udia" 300 600 basechar 0
AnchorPoint: "cabove" 340 600 basechar 0
LayerCount: 2
Back
SplineSet
160 343 m 1xf6
 179 298 286 313 286 242 c 0
 286 164 170 207 170 142 c 0
 170 108 184 84 320 84 c 0
 449 84 459 152 459 209 c 2
 459 523 l 2
 459 555 492 558 517 558 c 0
 546 558 578 556 578 523 c 2
 578 207 l 2
 578 88 513 0 322 0 c 0
 183 0 55 27 55 146 c 0xee
 55 213 106 253 173 253 c 1
 95 277 50 320 50 400 c 2
 50 428 l 2
 50 507 105 558 191 558 c 0
 268 558 309 499 309 448 c 0
 309 384 262 338 189 338 c 0
 180 338 170 340 160 343 c 1xf6
157 423 m 1xf6
 167 418 178 414 188 414 c 0
 200 414 220 424 220 442 c 0
 220 465 204 477 189 477 c 0
 164.82 477 156.68 456.95 156.68 445.579 c 0
 156.68 444.253 156.791 443.044 157 442 c 1
 157 423 l 1xf6
EndSplineSet
Fore
SplineSet
50 414 m 0xf6
 50 510 105 558 191 558 c 0
 268 558 309 499 309 448 c 0
 309 384 262 338 189 338 c 0
 180 338 170 340 160 343 c 1
 179 298 286 313 286 242 c 0
 286 164 170 207 170 142 c 0
 170 108 184 84 320 84 c 0
 449 84 459 152 459 209 c 2
 459 523 l 2
 459 555 492 558 517 558 c 0
 546 558 578 556 578 523 c 2
 578 207 l 2
 578 88 513 0 322 0 c 0
 183 0 55 27 55 146 c 0xee
 55 213 106 253 173 253 c 1
 95 277 50 320 50 414 c 0xf6
157 423 m 1xf6
 167 418 178 414 188 414 c 0
 200 414 220 424 220 442 c 0
 220 465 204 477 189 477 c 0
 164.82 477 156.68 456.95 156.68 445.579 c 2
 156.68 445.579 156.791 424.045 157 423 c 1xf6
EndSplineSet
EndChar

StartChar: uni0E94
Encoding: 102 3732 7
Width: 653
GlyphClass: 2
Flags: W
HStem: 0 77<171.375 230.677> 140 80<169.516 230.823> 474 84<222.785 411.992>
VStem: 51 118<80.4402 138.93 215 418.933> 233 82<79.365 138.265> 465 119<4.09117 419.439>
AnchorPoint: "ldia" 430 0 basechar 0
AnchorPoint: "cbelow" 430 0 basechar 0
AnchorPoint: "udia" 300 600 basechar 0
AnchorPoint: "cabove" 340 600 basechar 0
LayerCount: 2
Fore
SplineSet
465 36 m 2
 465 326 l 2
 465 432 424 474 317 474 c 0
 211 474 169 432 169 326 c 2
 169 215 l 1
 179 218 190 220 200 220 c 0
 267 220 315 174 315 109 c 0
 315 45 266 0 190 0 c 0
 92 0 51 62 51 163 c 1
 51 326 l 2
 51 502 151 558 318 558 c 0
 483 558 584 502 584 327 c 2
 584 36 l 2
 584 0 552 0 525 0 c 0
 500 0 465 0 465 36 c 2
169 133 m 1
 169 109 l 2
 169 92 181 77 202 77 c 0
 219 77 233 89 233 109 c 0
 233 128 218 140 202 140 c 0
 192 140 181 137 169 133 c 1
EndSplineSet
EndChar

StartChar: uni0E95
Encoding: 103 3733 8
Width: 705
GlyphClass: 2
Flags: W
HStem: 0 77<169.292 228.408> 140 80<167.493 228.36> 474 84<186.665 275.298 427.071 514.979>
VStem: 49 118<81.4359 139.102 215 452.325> 230 83<79.267 138.371> 292 118<322.185 458.266> 534 122<3.625 455.493>
AnchorPoint: "ldia" 440 0 basechar 0
AnchorPoint: "cbelow" 460 0 basechar 0
AnchorPoint: "udia" 350 600 basechar 0
AnchorPoint: "cabove" 340 600 basechar 0
LayerCount: 2
Fore
SplineSet
656 323 m 6xfa
 656 29 l 6
 656 0 621 0 594 0 c 0
 569 0 534 0 534 29 c 6
 534 366 l 6
 534 449 512 474 472 474 c 4
 430 474 410 452 410 359 c 4
 410 325 387 316 352 316 c 4
 317 316 292 324 292 359 c 4xf6
 292 451 271 474 230 474 c 4
 184 474 167 436 167 365 c 6
 167 215 l 5
 177 218 188 220 198 220 c 4
 265 220 313 174 313 109 c 4
 313 45 265 0 188 0 c 4
 89 0 49 72 49 175 c 6
 49 330 l 6
 49 498 106 558 212 558 c 4
 285 558 331 534 352 462 c 5
 376 536 420 558 494 558 c 4
 598 558 656 499 656 323 c 6xfa
167 133 m 5
 167 109 l 6
 167 92 179 77 200 77 c 4
 217 77 230 89 230 109 c 4xfa
 230 128 216 140 199 140 c 4
 189 140 178 137 167 133 c 5
EndSplineSet
EndChar

StartChar: uni0E96
Encoding: 104 3734 9
Width: 707
GlyphClass: 2
Flags: W
HStem: 0 77<255.139 313.42> 140 80<252.492 314.182> 339 79<69.837 134> 474 84<351.301 493.541> 481 77<69.5669 130.679>
VStem: -12 80<419.772 479.395> 134 118<81.4616 139.102 215 342> 316 82<78.6448 138.69> 525 118<-36.375 442.503>
AnchorPoint: "ldia" 400 0 basechar 0
AnchorPoint: "cbelow" 410 0 basechar 0
AnchorPoint: "udia" 350 600 basechar 0
AnchorPoint: "cabove" 440 600 basechar 0
LayerCount: 2
Back
SplineSet
643 61 m 4
 643 -15 686 -72 686 -99 c 4
 686 -128 662 -145 617 -145 c 4
 587 -145 572 -138 565 -122 c 4
 552.705 -93.8962 525 -34 525 49 c 4
EndSplineSet
Fore
SplineSet
643 63 m 6xf780
 643 -13 686 -72 686 -99 c 4
 686 -128 662 -145 617 -145 c 4
 587 -145 572 -138 565 -122 c 4
 552.705 -93.8965 525 -34 525 49 c 6
 525 334 l 2
 525 391 524 474 434 474 c 0xf780
 368 474 312 431 252 393 c 1
 252 215 l 1
 262 218 272 220 282 220 c 0
 363 220 398 160 398 114 c 0
 398 48 356 0 273 0 c 0
 180 0 134 54 134 156 c 2
 134 342 l 1
 123 340 111 339 99 339 c 0
 27 339 -12 388 -12 447 c 0
 -12 498 23 558 105 558 c 0xef80
 177 558 223 536 242 484 c 1
 299 520 365 558 444 558 c 0
 549 558 643 500 643 343 c 2
 643 63 l 6xf780
252 133 m 1
 252 116 l 2
 252 96 259 77 285 77 c 0
 303 77 316 90 316 108 c 0
 316 135 296 140 284 140 c 0
 274 140 263 137 252 133 c 1
134 424 m 1
 134 455 133 481 97 481 c 0xef80
 82 481 68 472 68 449 c 0
 68 431 78 418 101 418 c 0
 112 418 123 420 134 424 c 1
EndSplineSet
EndChar

StartChar: uni0E97
Encoding: 105 3735 10
Width: 675
GlyphClass: 2
Flags: W
HStem: 0 85<182.489 282.205> 337 80<67.2973 94> 474 84<438.95 528.742> 482 76<66.3484 123.357>
VStem: -19 83<419.28 479.622> 42 122<102.749 275.892> 127 114<424.281 478.921> 301 119<101.559 455.594> 546 123<4.34647 457.172>
AnchorPoint: "ldia" 520 0 basechar 0
AnchorPoint: "cbelow" 520 0 basechar 0
AnchorPoint: "udia" 350 600 basechar 0
AnchorPoint: "cabove" 440 600 basechar 0
LayerCount: 2
Fore
SplineSet
669 365 m 2xe580
 669 32 l 2
 669 5 645 0 609 0 c 0
 576 0 546 3 546 32 c 2
 546 364 l 2
 546 419 543 474 485 474 c 0
 442 474 420 446 420 380 c 2
 420 202 l 2
 420 25 298 0 213 0 c 0
 104 0 42 66 42 179 c 0xe580
 42 247 70 292 94 337 c 1
 93 337 l 0
 38 337 -19 377 -19 448 c 0
 -19 503 22 558 107 558 c 0
 190 558 241 507 241 435 c 0xdb80
 241 333 164 296 164 174 c 0
 164 123 179 85 233 85 c 0
 290 85 301 122 301 214 c 2
 301 376 l 2
 301 519 386 558 486 558 c 0
 600 558 669 512 669 365 c 2xe580
127 424 m 1xdb80
 128 430 127 436 127 443 c 0
 127 470 113 482 95 482 c 0
 78 482 64 469 64 449 c 0
 64 431 77 417 97 417 c 0
 106 417 117 420 127 424 c 1xdb80
EndSplineSet
EndChar

StartChar: uni0E99
Encoding: 106 3737 11
Width: 730
GlyphClass: 2
Flags: W
HStem: 0 84<64.4871 161.109 361.322 526.095> 337 80<137.78 198.484> 480 78<137.989 197.125>
VStem: 54 82<418.534 477.768> 199 119<127.669 342 418.07 475.699> 564 118<126.268 553.432>
AnchorPoint: "ldia" 500 0 basechar 0
AnchorPoint: "cbelow" 500 0 basechar 0
AnchorPoint: "udia" 350 600 basechar 0
AnchorPoint: "cabove" 440 600 basechar 0
LayerCount: 2
Fore
SplineSet
445 84 m 0
 538 84 564 125 564 224 c 2
 564 521 l 2
 564 557 598 558 623 558 c 0
 649 558 682 556 682 521 c 2
 682 222 l 2
 682 36 566 0 459 0 c 0
 371 0 289 20 258 97 c 1
 240 22 174 0 86 0 c 0
 72 0 62 13 62 45 c 0
 62 78 70 85 87 85 c 0
 175 85 199 129 199 236 c 2
 199 342 l 1
 189 339 178 337 168 337 c 0
 101 337 54 383 54 448 c 0
 54 512 102 558 179 558 c 0
 277 558 318 494 318 392 c 2
 318 229 l 2
 318 121 357 84 445 84 c 0
199 424 m 1
 199 449 l 2
 199 465 187 480 166 480 c 0
 149 480 136 468 136 449 c 0
 136 429 150 417 166 417 c 0
 176 417 187 420 199 424 c 1
EndSplineSet
EndChar

StartChar: uni0E9A
Encoding: 107 3738 12
Width: 686
GlyphClass: 2
Flags: W
HStem: 0 84<274.996 469.931> 337 81<134.715 162> 481 77<133.823 192.192>
VStem: 49 83<419.673 478.625> 113 122<119.701 272.344> 195 111<422.018 477.997> 518 119<129.508 553.183>
AnchorPoint: "ldia" 440 0 basechar 0
AnchorPoint: "cbelow" 460 0 basechar 0
AnchorPoint: "udia" 300 600 basechar 0
AnchorPoint: "cabove" 340 600 basechar 0
LayerCount: 2
Back
SplineSet
637 233 m 2xec
 637 44 523 0 379 0 c 0
 248 0 113 34 113 181 c 0xec
 113 244 139 292 162 337 c 1
 161 337 161 337 160 337 c 0
 98 337 49 386 49 448 c 0xf4
 49 515 98 558 174 558 c 0
 237 558 286 526 301 474 c 1
 304.63 458.704 306.209 444.298 306.209 430.563 c 0
 306.209 338.342 235 276.352 235 178 c 0
 235 108 291 84 376 84 c 0
 467 84 518 112 518 220 c 2
 518 522 l 2
 518 557 552 558 577 558 c 0
 604 558 637 556 637 522 c 2
 637 233 l 2xec
194 425 m 1
 195 430 195 436 195 441 c 0
 195 472 179 481 163 481 c 0
 146 481 132 468 132 449 c 0xf4
 132 431 145 418 164 418 c 0
 173 418 184 421 194 425 c 1
EndSplineSet
Fore
SplineSet
306 431 m 4xf6
 306 334 235 276 235 178 c 4
 235 108 291 84 376 84 c 0
 467 84 518 112 518 220 c 2
 518 522 l 2
 518 557 552 558 577 558 c 0
 604 558 637 556 637 522 c 2
 637 233 l 2
 637 44 523 0 379 0 c 0
 248 0 113 34 113 181 c 4xea
 113 244 139 292 162 337 c 5
 161 337 161 337 160 337 c 4
 98 337 49 386 49 448 c 4
 49 515 98 558 174 558 c 4
 237 558 306 526 306 431 c 4xf6
195 425 m 5xf6
 195 441 l 6
 195 472 179 481 163 481 c 4
 146 481 132 468 132 449 c 4
 132 431 145 418 164 418 c 4
 173 418 185 421 195 425 c 5xf6
EndSplineSet
EndChar

StartChar: uni0E9B
Encoding: 108 3739 13
Width: 686
GlyphClass: 2
Flags: W
HStem: 0 84<275.184 469.332> 337 81<134.715 162> 481 77<133.823 192.192>
VStem: 49 83<419.673 478.625> 113 122<119.701 272.344> 195 111<422.018 477.997> 515 119<129.068 668.935> 543 120<618.525 729.521>
AnchorPoint: "ldia" 440 0 basechar 0
AnchorPoint: "cbelow" 460 0 basechar 0
AnchorPoint: "udia" 270 600 basechar 0
AnchorPoint: "cabove" 340 600 basechar 0
LayerCount: 2
Fore
SplineSet
235 178 m 0xe8
 235 108 292 84 376 84 c 0
 462 84 515 111 515 220 c 2
 515 537 l 2xea
 515 620 536 696 543 715 c 0
 550 739 556 745 578 745 c 0
 600 745 663 732 663 705 c 2
 663 701 l 1xe1
 653 647 634 624 634 529 c 2
 634 233 l 2
 634 43 523 0 379 0 c 0
 248 0 113 34 113 181 c 0xea
 113 244 139 292 162 337 c 1
 160 337 l 2
 98 337 49 386 49 448 c 0
 49 515 98 558 174 558 c 0
 237 558 306 526 306 431 c 0xf4
 306 334 235 276 235 178 c 0xe8
195 425 m 1xf4
 195 441 l 2
 195 472 179 481 163 481 c 0
 146 481 132 468 132 449 c 0
 132 431 145 418 164 418 c 0
 173 418 185 421 195 425 c 1xf4
EndSplineSet
EndChar

StartChar: uni0E9C
Encoding: 109 3740 14
Width: 766
GlyphClass: 2
Flags: W
HStem: 0 84<183.566 275.292 427.458 519.093> 338 80<167.493 228.36 475.27 537> 482 76<169.573 228.297 476.671 531.977>
VStem: 49 118<99.4646 343 418.898 478.003> 230 83<419.629 480.354> 293 118<100.785 254.222> 392 81.218<420.801 478.048> 537 118<101.621 342> 628 89<507.536 598.267>
AnchorPoint: "ldia" 440 0 basechar 0
AnchorPoint: "cbelow" 460 0 basechar 0
AnchorPoint: "udia" 300 600 basechar 0
AnchorPoint: "cabove" 340 600 basechar 0
LayerCount: 2
Fore
SplineSet
212 0 m 0xf1
 106 0 49 58 49 227 c 2
 49 395 l 2
 49 497 91 558 188 558 c 0
 265 558 313 512 313 449 c 0
 313 384 265 338 198 338 c 0
 188 338 177 340 167 343 c 1
 167 291 168 242 168 193 c 0
 168 111 184 84 230 84 c 0xf9
 267 84 293 104 293 192 c 2
 293 218 l 2
 293 253 318 260 353 260 c 0
 387 260 411 252 411 218 c 2
 411 192 l 2
 411 102 436 84 474 84 c 0
 515 84 537 106 537 192 c 2
 537 342 l 1xf5
 527 342 516 338 505 338 c 0
 446 338 392 378 392 446 c 0
 392 510 439 558 520 558 c 0
 568 558 603 538 625 506 c 1
 627 516 628 528 628 539 c 0
 628 583 592 612 592 625 c 0
 592 647 616 667 649 667 c 0
 692 667 717 595 717 544 c 0xf280
 717 484 693 433 655 397 c 1
 655 235 l 2
 655 57 597 0 494 0 c 0
 420 0 375 19 352 93 c 1
 331 22 285 0 212 0 c 0xf1
537 421 m 1
 537 435 l 2
 537 467 524 479 502 479 c 0
 490 479 480 477 477 464 c 1
 474.423 459.315 473.218 454.3 473.218 449.367 c 0xf3
 473.218 433.245 486.091 418 506 418 c 0
 517 418 528 419 537 421 c 1
167 425 m 1
 178 421 189 418 199 418 c 0
 216 418 230 430 230 449 c 0xf8
 230 469 217 482 200 482 c 0
 179 482 167 466 167 450 c 0
 167 442 167 433 167 425 c 1
EndSplineSet
EndChar

StartChar: uni0E9D
Encoding: 110 3741 15
Width: 714
GlyphClass: 2
Flags: W
HStem: 0 84<185.354 275.23 426.72 517.264> 338 80<168 228.193> 480 78<170.328 228.511>
VStem: 49 119<100.645 342 418.646 475.419> 230 83<419.629 478.105> 292 118<99.4202 254.222> 534 122<101.739 674.119>
AnchorPoint: "ldia" 440 0 basechar 0
AnchorPoint: "cbelow" 470 0 basechar 0
AnchorPoint: "udia" 250 600 basechar 0
AnchorPoint: "cabove" 340 600 basechar 0
LayerCount: 2
Fore
SplineSet
679 684 m 0xf6
 679 670 656 587 656 508 c 2
 656 234 l 2
 656 58 598 0 494 0 c 0
 420 0 375 19 352 93 c 1
 331 21 285 0 212 0 c 0
 101 0 49 62 49 241 c 2
 49 407 l 2
 49 505 98 558 188 558 c 0
 265 558 313 512 313 449 c 0
 313 384 264 338 198 338 c 0
 188 338 178 339 168 342 c 1
 168 192 l 2
 168 113 184 84 230 84 c 0xfa
 268 84 292 104 292 191 c 2
 292 218 l 2
 292 253 317 260 352 260 c 0
 387 260 410 252 410 218 c 2
 410 191 l 2
 410 102 434 84 472 84 c 0
 512 84 534 108 534 191 c 2
 534 510 l 2
 534 597 550 664 556 686 c 0
 563 708 573 718 592 718 c 0
 646 718 679 706 679 684 c 0xf6
168 424 m 1
 179 420 190 418 199 418 c 0
 216 418 230 430 230 449 c 0
 230 469 217 480 200 480 c 0
 183 480 168 470 168 450 c 2
 168 424 l 1
EndSplineSet
EndChar

StartChar: uni0E9E
Encoding: 111 3742 16
Width: 686
GlyphClass: 2
Flags: W
HStem: 0 85<244.34 336.3 490.06 581.545> 335 81<124.715 152> 479 77<123.823 182.192>
VStem: 39 83<417.673 476.625> 103 122<103.476 270.344> 185 111<420.018 475.997> 355 118<102.221 552.138> 596 123<96.7441 553.375>
AnchorPoint: "ldia" 460 0 basechar 0
AnchorPoint: "cbelow" 490 0 basechar 0
AnchorPoint: "udia" 350 600 basechar 0
AnchorPoint: "cabove" 440 600 basechar 0
LayerCount: 2
Fore
SplineSet
185 423 m 1xf7
 185 439 l 2
 185 470 169 479 153 479 c 0
 136 479 122 466 122 447 c 0
 122 429 135 416 154 416 c 0
 163 416 175 419 185 423 c 1xf7
225 176 m 0xeb
 225 110 252 85 290 85 c 0
 327 85 355 103 355 191 c 2
 355 515 l 2
 355 551 379 558 414 558 c 0
 449 558 473 550 473 515 c 2
 473 191 l 2
 473 102 499 84 537 84 c 0
 578 84 596 104 596 191 c 2
 596 527 l 2
 596 556 633 558 658 558 c 0
 684 558 719 555 719 527 c 2
 719 234 l 2
 719 58 660 0 557 0 c 0
 483 0 437 19 414 93 c 1
 393 21 341 0 267 0 c 0
 173 0 103 60 103 179 c 0xeb
 103 242 129 290 152 335 c 1
 150 335 l 2
 88 335 39 384 39 446 c 0
 39 513 88 556 164 556 c 0
 227 556 296 524 296 429 c 0xf7
 296 332 225 274 225 176 c 0xeb
EndSplineSet
EndChar

StartChar: uni0E9F
Encoding: 112 3743 17
Width: 686
GlyphClass: 2
Flags: W
HStem: 0 85<243.547 336.06 489.583 580.664> 335 81<124.715 152> 479 77<123.823 182.192>
VStem: 39 83<417.673 476.625> 103 122<103.476 270.344> 185 111<420.018 475.997> 355 118<102.693 552.222> 597 122<101.739 666.184> 626 123<623.838 727.004>
AnchorPoint: "ldia" 460 0 basechar 0
AnchorPoint: "cbelow" 510 0 basechar 0
AnchorPoint: "udia" 300 600 basechar 0
AnchorPoint: "cabove" 390 600 basechar 0
LayerCount: 2
Fore
SplineSet
185 423 m 1xf6
 185 439 l 2
 185 470 169 479 153 479 c 0
 136 479 122 466 122 447 c 0
 122 429 135 416 154 416 c 0
 163 416 175 419 185 423 c 1xf6
225 176 m 0xea
 225 110 252 85 290 85 c 0
 326 85 355 103 355 191 c 2
 355 516 l 2
 355 551 379 558 414 558 c 0
 449 558 473 550 473 516 c 2
 473 191 l 2
 473 102 497 84 535 84 c 0
 575 84 597 108 597 191 c 2
 597 536 l 6xeb
 597 619 619 695 626 715 c 4
 633 738 638 744 660 744 c 4
 679 744 749 731 749 703 c 4
 749 702 749 701 749 700 c 4xe280
 738 646 719 617 719 528 c 6
 719 234 l 2
 719 58 660 0 557 0 c 0
 483 0 437 19 414 93 c 1
 393 21 348 0 274 0 c 0
 180 0 103 60 103 179 c 0xeb
 103 242 129 290 152 335 c 1
 150 335 l 2
 88 335 39 384 39 446 c 0
 39 513 88 556 164 556 c 0
 227 556 296 524 296 429 c 0xf6
 296 332 225 274 225 176 c 0xea
EndSplineSet
EndChar

StartChar: uni0EA1
Encoding: 113 3745 18
Width: 861
GlyphClass: 2
Flags: W
HStem: 0 83<137.688 194.613 455.607 644.125> 151 81<133.873 192.463>
VStem: 49 83<88.6162 149.321> 195 73<88.5708 149.833> 287 119<134.053 553.183> 694 118<133.977 553.432>
AnchorPoint: "ldia" 580 0 basechar 0
AnchorPoint: "cbelow" 590 0 basechar 0
AnchorPoint: "udia" 450 600 basechar 0
AnchorPoint: "cabove" 490 600 basechar 0
LayerCount: 2
Fore
SplineSet
287 169 m 2
 287 522 l 2
 287 556 320 558 347 558 c 0
 372 558 406 557 406 522 c 2
 406 227 l 2
 406 119 457 83 551 83 c 0
 645 83 694 119 694 227 c 2
 694 521 l 2
 694 557 728 558 753 558 c 0
 780 558 812 556 812 521 c 2
 812 241 l 2
 812 43 701 0 550 0 c 0
 464 0 375 20 352 94 c 1
 341 38 272 0 218 0 c 0
 117 0 49 38 49 122 c 0
 49 189 95 232 166 232 c 0
 223 232 268 189 268 135 c 0
 268 117 264 101 260 88 c 1
 286 99 287 124 287 169 c 2
192 80 m 1
 194 91 195 108 195 116 c 0
 195 137 184 151 164 151 c 0
 145 151 132 140 132 120 c 0
 132 100 149 80 192 80 c 1
EndSplineSet
EndChar

StartChar: uni0EA2
Encoding: 114 3746 19
Width: 586
GlyphClass: 2
Flags: W
HStem: 0 84<162.711 378.276> 339 76<134.446 194.487> 477 81<138.044 194.344>
VStem: 27 117<102.831 174.581> 27 107<415.767 473.955> 196 90<416.685 475.652> 425 119<131.268 666.184> 451 123<617.122 727.004>
AnchorPoint: "ldia" 410 0 basechar 0
AnchorPoint: "cbelow" 450 0 basechar 0
AnchorPoint: "udia" 250 600 basechar 0
AnchorPoint: "cabove" 340 600 basechar 0
LayerCount: 2
Back
SplineSet
134 423 m 1xee
 144 418 155 415 165 415 c 0
 177 415 196 422 196 446 c 0
 196 470 179 477 163 477 c 0
 139 477 134 453 134 442 c 2
 134 423 l 1xee
27 415 m 0
 27 487 65 558 167 558 c 0
 242 558 286 500 286 449 c 0
 286 403 255 339 162 339 c 0
 154 339 143 341 134 344 c 1xee
 150 293 261 317 261 245 c 0
 261 167 144 207 144 142 c 0
 144 89 211 84 286 84 c 0
 361 84 425 108 425 200 c 2
 425 526 l 2
 425 604 453 695 453 695 c 2
 457 714 468 721 481 721 c 0
 487 721 537 712 545 710 c 0
 565 704 572 699 572 687 c 0
 572 663 544 608 544 526 c 2
 544 225 l 2
 544 45 436 0 281 0 c 0
 124 0 27 46 27 146 c 0xf6
 27 228 99 246 148 254 c 1
 142 256 135.005 258.016 129 260 c 0
 71.0496 279.15 27 320 27 415 c 0
29 410 m 2xf6
 29 424 l 2xf6
 29 496 65 558 167 558 c 0
 242 558 286 500 286 449 c 0
 286 403 255 339 162 339 c 0
 154 339 145 341 136 344 c 1
 152 293 261 317 261 245 c 0
 261 167 144 207 144 142 c 0
 144 89 211 84 286 84 c 0
 361 84 425 108 425 200 c 2
 425 526 l 2
 425 604 453 695 453 695 c 2
 457 714 468 721 481 721 c 0
 487 721 537 712 545 710 c 0
 565 704 572 699 572 687 c 0
 572 663 544 608 544 526 c 2
 544 225 l 2
 544 45 436 0 281 0 c 0
 124 0 27 46 27 146 c 0xee
 27 228 99 246 148 254 c 1
 142 256 135 258 129 260 c 0
 71 279 29 315 29 410 c 2xf6
134 423 m 1
 144 418 155 415 165 415 c 0
 177 415 196 422 196 446 c 0
 196 470 179 477 163 477 c 0
 139 477 134 453 134 442 c 2
 134 423 l 1
EndSplineSet
Fore
SplineSet
544 528 m 2xe6
 544 225 l 2
 544 45 436 0 281 0 c 0
 124 0 27 46 27 146 c 0xf6
 27 238 116 250 148 254 c 1
 116 258 27 290 27 415 c 0
 27 487 65 558 167 558 c 0
 242 558 286 500 286 449 c 0
 286 403 255 339 162 339 c 0
 154 339 143 341 134 344 c 1xec
 150 293 261 317 261 245 c 0
 261 167 144 207 144 142 c 0
 144 89 211 84 286 84 c 0
 361 84 425 108 425 200 c 2
 425 536 l 2xf6
 425 619 444 695 451 715 c 0
 458 738 463 744 485 744 c 0
 504 744 574 731 574 703 c 0
 574 702 574 701 574 700 c 0xe5
 563 646 544 617 544 528 c 2xe6
134 423 m 1xec
 144 418 155 415 165 415 c 0
 177 415 196 422 196 446 c 0
 196 470 179 477 163 477 c 0
 139 477 134 453 134 442 c 2
 134 423 l 1xec
EndSplineSet
EndChar

StartChar: uni0EA3
Encoding: 115 3747 20
Width: 639
GlyphClass: 2
Flags: W
HStem: 0 82<240.582 424.643> 192 76<148.475 207.324> 471 86<183.61 457.286>
VStem: 49 94<132.491 186.768> 209 82<129.859 190.599> 459 122<111.257 213.96>
AnchorPoint: "ldia" 440 0 basechar 0
AnchorPoint: "cbelow" 440 0 basechar 0
AnchorPoint: "udia" 300 600 basechar 0
AnchorPoint: "cabove" 340 600 basechar 0
LayerCount: 2
Back
SplineSet
311 0 m 0
 170 0 49 34 49 148 c 0
 49 215 97 268 174 268 c 0
 260 268 291 225 291 170 c 0
 291 129 268 100 236 84 c 1
 258 84 285 82 314 82 c 0
 404 82 459 98 459 165 c 0
 459 222 406 239 296 273 c 0
 285 277 273 280 262 284 c 0
 134 322 53 346 53 435 c 0
 53 539 172 557 318 557 c 0
 436 557 511 533 567 490 c 1
 574 483 578 476 570 466 c 1
 567 448 549 414 532 410 c 0
 528 410 523 413 520 417 c 1
 472 454 399 471 321 471 c 0
 244 471 174 464 174 435 c 0
 174 404 282 387 371 360 c 0
 521 315 581 261 581 171 c 0
 581 41 466 0 311 0 c 0
143 137 m 1
 154 132 167 128 178 128 c 0
 196 128 209 140 209 158 c 0
 209 174 202 192 180 192 c 0
 158 192 143 178 143 145 c 0
 143 142 143 140 143 137 c 1
EndSplineSet
Fore
SplineSet
143 137 m 1
 154 132 167 128 178 128 c 0
 196 128 209 140 209 158 c 0
 209 174 202 192 180 192 c 0
 158 192 143 178 143 145 c 2
 143 137 l 1
311 0 m 0
 170 0 49 34 49 148 c 0
 49 215 97 268 174 268 c 0
 260 268 291 225 291 170 c 0
 291 129 268 100 236 84 c 1
 258 84 285 82 314 82 c 0
 404 82 459 98 459 165 c 0
 459 222 406 239 296 273 c 0
 285 277 273 280 262 284 c 0
 134 322 53 346 53 435 c 0
 53 539 172 557 318 557 c 0
 436 557 511 533 567 490 c 1
 574 483 575 482 575 471 c 0
 575 445 549 410 537 410 c 0
 529 410 524 414 520 417 c 0
 472 453 399 471 321 471 c 0
 244 471 174 464 174 435 c 0
 174 404 282 387 371 360 c 0
 520.86 314.537 581 261 581 171 c 0
 581 41 466 0 311 0 c 0
EndSplineSet
EndChar

StartChar: uni0EA5
Encoding: 116 3749 21
Width: 590
GlyphClass: 2
Flags: W
HStem: 0 100<396.751 444.642> 0 63<105.045 156.531> 123 65<124.374 157.389> 202 78<124.916 240.962> 474 84<194.278 403.759>
VStem: 10 90<65.4038 121.288> 39 120<346.314 438.008> 159 76<63.7147 122.02> 451 125<102.516 423.649>
AnchorPoint: "ldia" 440 0 basechar 0
AnchorPoint: "cbelow" 440 0 basechar 0
AnchorPoint: "udia" 300 600 basechar 0
AnchorPoint: "cabove" 340 600 basechar 0
LayerCount: 2
Fore
SplineSet
100 113 m 1x7d80
 100 71 116 63 134 63 c 0
 154 63 159 83 159 97 c 0
 159 113 148 123 133 123 c 0
 125 123 113 119 100 113 c 1x7d80
451 182 m 2
 451 333 l 2
 451 455 393 474 299 474 c 0
 226 474 159 467 159 367 c 0
 159 346 130 343 99 343 c 0
 60 343 39 346 39 371 c 0
 39 519 167 558 297 558 c 0
 429 558 576 533 576 337 c 2
 576 175 l 2
 576 68 532 0 434 0 c 0xba80
 268 0 317 202 178 202 c 0
 157 202 138 197 124 185 c 1
 131 187 138 188 144 188 c 0
 211 188 235 131 235 96 c 0
 235 46 203 0 130 0 c 0x7980
 54 0 10 53 10 129 c 0
 10 236 108 280 185 280 c 0
 369 280 370 100 422 100 c 0xbd80
 450 100 451 138 451 182 c 2
EndSplineSet
EndChar

StartChar: uni0EA7
Encoding: 117 3751 22
Width: 633
GlyphClass: 2
Flags: W
HStem: 0 82<238.425 397.355> 188 77<145.039 204.098> 473 84<203.127 417.782>
VStem: 45 95<129.511 183.768> 51 119<346.262 438.873> 206 82<126.861 186.955> 463 122<147.514 428.461>
AnchorPoint: "ldia" 440 0 basechar 0
AnchorPoint: "cbelow" 440 0 basechar 0
AnchorPoint: "udia" 300 600 basechar 0
AnchorPoint: "cabove" 340 600 basechar 0
LayerCount: 2
Back
SplineSet
250 343 m 4
 360 343 377 260 377 153 c 4
 377 95 382 84 418 84 c 4
 449 84 464 95 464 174 c 6
 464 325 l 6
 464 432 409 474 295 474 c 4
 167 474 116 431 116 357 c 4
 116 321 92 318 57 318 c 4
 31 318 2 321 2 355 c 4
 2 502 125 557 298 557 c 4
 456 557 584 504 584 292 c 6
 584 207 l 5
 584 32 515 0 418 0 c 4
 329 0 269 32 269 126 c 5
 260 124 250 122 240 122 c 4
 174 122 123 163 123 232 c 4
 123 295 169 343 250 343 c 4
EndSplineSet
Fore
SplineSet
309 0 m 0xee
 168 0 45 31 45 145 c 0xf6
 45 212 93 265 171 265 c 0
 256 265 288 221 288 167 c 0
 288 128 266 99 237 83 c 1
 259 83 285 82 312 82 c 0
 419 82 463 141 463 244 c 6
 463 323 l 2
 463 432 434 473 314 473 c 0
 217 473 170 455 170 369 c 1
 166 344 142 343 107 343 c 0
 73 343 51 347 51 370 c 0
 51 509 161 557 315 557 c 0
 476 557 585 513 585 311 c 2
 585 243 l 6
 585 79 461 0 309 0 c 0xee
140 134 m 1
 151 129 164 125 175 125 c 0
 192 125 206 137 206 154 c 0
 206 170 198 188 177 188 c 0
 154 188 140 175 140 142 c 0
 140 139 140 137 140 134 c 1
EndSplineSet
EndChar

StartChar: uni0EAA
Encoding: 118 3754 23
Width: 687
GlyphClass: 2
Flags: W
HStem: 0 100<431.342 479.837> 0 62<145.387 199.796> 121 65<166.227 199.628> 194 81<167.956 275.62> 308 86<181.774 410.438> 475 83<182.682 420.135>
VStem: 51 90<66.0833 119.543> 68 104<407.477 459.786> 201 76<62.8247 120.567> 487 125<101.25 363.484>
AnchorPoint: "ldia" 440 0 basechar 0
AnchorPoint: "cbelow" 440 0 basechar 0
AnchorPoint: "udia" 300 600 basechar 0
AnchorPoint: "cabove" 340 600 basechar 0
LayerCount: 2
Back
SplineSet
612 175 m 2x7dc0
 612 49 550 11 497 3 c 0
 488 2 479.75 1.5 472.375 1.5 c 0x7dc0
 465 1.5 458.5 2 453 3 c 1
 311 3 342 194 217 194 c 0
 196 194 179 191 166 183 c 1
 172 185 179 186 185 186 c 0
 245 186 277 142 277 90 c 0
 277 41 244 0 171 0 c 0
 90 0 51 56 51 127 c 0xbec0
 51 240 154 275 220 275 c 0
 406 275 408 100 458 100 c 0
 482 100 487 135 487 191 c 2
 487 327 l 2
 487 341 486 353 484 364 c 1
 429 329 360 308 279 308 c 0
 174 308 68 342 68 427 c 0
 68 522 162 558 308 558 c 0
 390 558 463 546 517 514 c 1
 534 540 550 567 561 585 c 0
 569 598 572 603 586 603 c 0
 605.05 603 638.089 579.959 638.089 562.243 c 0
 638.089 560.429 637.743 558.672 637 557 c 0
 623 527 600 492 577 458 c 1
 599 424 612 380 612 324 c 2
 612 175 l 2x7dc0
448 435 m 1
 411 468 351 475 284 475 c 0
 228 475 172 464 172 432 c 0
 172 404 225 394 275 394 c 0
 357 394 412 411 448 435 c 1
141 111 m 1xbec0
 141 69 159 62 176 62 c 0
 193 62 201 75 201 94 c 0
 201 111 193 121 174 121 c 0
 164 121 152 117 141 111 c 1xbec0
EndSplineSet
Fore
SplineSet
141 111 m 1x7ec0
 141 69 159 62 176 62 c 0
 193 62 201 75 201 94 c 0
 201 111 193 121 174 121 c 0
 164 121 152 117 141 111 c 1x7ec0
448 435 m 1
 411 468 351 475 284 475 c 0
 228 475 172 464 172 432 c 0x3dc0
 172 404 225 394 275 394 c 0
 357 394 412 411 448 435 c 1
475 0 m 0xbdc0
 308 0 342 194 217 194 c 0
 196 194 179 191 166 183 c 1
 172 185 179 186 185 186 c 0
 245 186 277 142 277 90 c 0
 277 41 244 0 171 0 c 0
 90 0 51 56 51 127 c 0x7ec0
 51 240 154 275 220 275 c 0
 406 275 408 100 458 100 c 0
 482 100 487 135 487 191 c 2
 487 327 l 2
 487 341 486 353 484 364 c 1
 429 329 360 308 279 308 c 0
 174 308 68 342 68 427 c 0
 68 522 162 558 308 558 c 0
 390 558 463 546 517 514 c 1
 534 540 549.944 567.034 561 585 c 0
 569 598 572 603 586 603 c 0
 605 603 638 580 638 562 c 0
 638 560 638 559 637 557 c 0
 623 527 600 492 577 458 c 1
 599 424 612 380 612 324 c 2
 612 175 l 2
 612 65 561 0 475 0 c 0xbdc0
EndSplineSet
EndChar

StartChar: uni0EAB
Encoding: 119 3755 24
Width: 936
GlyphClass: 2
Flags: W
HStem: 0 85<254.786 432.351> 336 81<127.715 155 414.311 476.507> 480 77<127.502 185.459 414.168 472.097 643.985 751.077>
VStem: 42 83<419.229 478.005> 103 122<114.219 275.003> 188 113<419.443 477.989> 329 83<419.132 477.757> 477 119<129.892 340 418.337 440.469> 773 115<3.81356 457.212>
AnchorPoint: "ldia" 640 0 basechar 0
AnchorPoint: "cbelow" 630 0 basechar 0
AnchorPoint: "udia" 400 600 basechar 0
AnchorPoint: "cabove" 490 600 basechar 0
LayerCount: 2
Fore
SplineSet
188 424 m 5xf780
 188 424 188 435 188 441 c 0
 188 473 172 480 156 480 c 0
 138 480 125 468 125 449 c 0
 125 432 137 417 157 417 c 0
 166 417 178 420 188 424 c 5xf780
596 423 m 9
 596 247 l 2
 596 100 534 0 353 0 c 0
 200 0 103 55 103 179 c 0xeb80
 103 243 131 290 155 336 c 1
 154 336 154 336 153 336 c 0
 91 336 42 386 42 448 c 0
 42 514 94 558 168 558 c 0
 242 558 301 516 301 432 c 0xf780
 301 341 225 288 225 174 c 0xeb80
 225 97 281 85 360 85 c 0
 432 85 477 123 477 220 c 2
 477 340 l 1
 467 337 456 336 444 336 c 0
 373 336 329 386 329 444 c 0
 329 504 366 557 457 557 c 0
 509 557 547 538 570 505 c 1
 607 533 653 557 716 557 c 0
 824 557 888 508 888 332 c 2
 888 30 l 2
 888 2 856 0 829 0 c 0
 806 0 773 1 773 25 c 2
 773 391 l 2
 773 439 758 474 705 474 c 0
 659 474 627 451 596 423 c 9
477 427 m 1
 477 435 l 2
 477 459 467 480 443 480 c 0
 423 480 412 466 412 447 c 0
 412 428 425 417 444 417 c 0
 455 417 466 421 477 427 c 1
EndSplineSet
EndChar

StartChar: uni0EAD
Encoding: 120 3757 25
Width: 595
GlyphClass: 2
Flags: W
HStem: 0 82<220.79 393.288> 188 77<124.031 183.707> 299 86<141.863 411.039> 474 84<140.019 397.532>
VStem: 25 105<401.246 458> 26 94<130.022 184.155> 186 82<126.82 186.123> 445 122<131.512 333>
AnchorPoint: "ldia" 432 0 basechar 0
AnchorPoint: "cbelow" 452 0 basechar 0
AnchorPoint: "udia" 300 600 basechar 0
AnchorPoint: "cabove" 340 600 basechar 0
LayerCount: 2
Fore
SplineSet
283 82 m 0xf7
 397 82 445 118 445 220 c 2
 445 329 l 2
 445 330 445 332 445 333 c 1
 404 314 344 299 267 299 c 0
 159 299 25 324 25 425 c 0xfb
 25 529 141 558 287 558 c 0
 417 558 567 525 567 345 c 2
 567 222 l 2
 567 76 464 0 289 0 c 0
 139 0 26 35 26 145 c 0
 26 213 74 265 152 265 c 0
 231 265 268 225 268 167 c 0
 268 129 247 101 219 84 c 1
 238 82 260 82 283 82 c 0xf7
121 133 m 1
 132 128 143 125 154 125 c 0
 169 125 186 134 186 156 c 0
 186 172 176 188 156 188 c 0
 138 188 120 179 120 142 c 0xf7
 120 139 121 136 121 133 c 1
431 416 m 1
 412 455 371 474 287 474 c 0
 194 474 130 470 130 429 c 0xfb
 130 398 169 385 264 385 c 0
 352 385 404 400 431 416 c 1
EndSplineSet
EndChar

StartChar: uni0EAE
Encoding: 121 3758 26
Width: 590
GlyphClass: 2
Flags: W
HStem: 0 82<227.957 410.265> 188 77<129.99 188.021> 434 86<271.046 456.845> 471 87<151.974 273.932>
VStem: 30 95<129.028 183.262> 35 115<412.564 468.501> 191 82<126.818 185.969> 441 123<108.978 211.886>
AnchorPoint: "ldia" 440 0 basechar 0
AnchorPoint: "cbelow" 460 0 basechar 0
AnchorPoint: "udia" 300 600 basechar 0
AnchorPoint: "cabove" 340 600 basechar 0
LayerCount: 2
Fore
SplineSet
35 434 m 0xe7
 35 511 104 558 176 558 c 0xd7
 261 558 303 520 367 520 c 0xe7
 422 520 450 535 484 558 c 0xd7
 491 563 496 568 504 568 c 0
 515 568 544 527 544 515 c 0
 544 508 540 500 532 491 c 0
 503 460 437 434 364 434 c 0xe7
 293 434 223 471 185 471 c 0
 161 471 150 455 150 441 c 0xd7
 150 407 214 394 356 351 c 0
 486 312 564 263 564 166 c 0
 564 56 485 0 294 0 c 0
 148 0 30 34 30 144 c 0xdb
 30 212 78 265 156 265 c 0
 235 265 273 225 273 170 c 0
 273 129 252 100 224 84 c 1
 243 84 264 82 287 82 c 0
 392 82 441 97 441 162 c 0
 441 218 391 236 286 270 c 0
 232 288 224 290 217 292 c 0
 111 327 35 353 35 434 c 0xe7
125 134 m 1xcb
 137 129 150 125 160 125 c 0
 175 125 191 134 191 154 c 0
 191 168 184 188 161 188 c 0
 143 188 125 181 125 142 c 0
 125 139 125 136 125 134 c 1xcb
EndSplineSet
EndChar

StartChar: uni0EAF
Encoding: 122 3759 27
Width: 629
GlyphClass: 2
Flags: W
HStem: 255 81<208.859 312.613> 478 80<154.808 210.851>
VStem: 39 107<417.274 474.327> 213 91<415.903 475.831> 453 126<506 542.391>
DStem2: 175 -116 276 -162 0.414899 0.909867<-45.6826 469.267>
LayerCount: 2
Fore
SplineSet
480 553 m 0
 485 561 493 563 503 563 c 0
 513 563 525 559 536 554 c 0
 554 545 580 533 580 515 c 1
 579 506 l 1
 561 463 l 1
 276 -162 l 1
 253 -203 l 2
 249 -212 241 -216 232 -215 c 1
 222 -215 210 -210 199 -205 c 0
 182 -197 156 -185 156 -167 c 1
 157 -158 l 1
 175 -116 l 1
 374 309 l 2
 374 309.009 373.996 309.013 373.989 309.013 c 0
 373.202 309.013 329.072 255 227 255 c 0
 106 255 39 323 39 416 c 0
 39 487 74 558 174 558 c 0
 267 558 304 502 304 447 c 0
 304 395 265 345 207 338 c 1
 215 337 224 336 234 336 c 0
 322 336 399 413 453 509 c 0
 462 526 471 540 480 553 c 0
146 427 m 1
 158 420 170 415 184 415 c 0
 203 415 213 431 213 446 c 0
 213 463 203 478 180 478 c 0
 157 478 146 461 146 435 c 0
 146 427 l 1
EndSplineSet
EndChar

StartChar: uni0EB0
Encoding: 123 3760 28
Width: 601
GlyphClass: 2
Flags: W
HStem: 18 97<239.939 406.722> 191 68<125.73 178.07> 307 97<239.939 408.532> 479 68<125.687 178.106>
VStem: 49 76<137.919 189.918 426.024 477.921> 179 73<128.274 190.04 416.305 478.042> 464 88<165.339 256.734 453.431 544.471>
LayerCount: 2
Fore
SplineSet
552 238 m 0
 552 97 456 18 271 18 c 0
 137 18 49 74 49 159 c 0
 49 229 98 259 154 259 c 0
 212 259 252 229 252 175 c 0
 252 150 247 131 239 116 c 1
 248 115 258 115 268 115 c 0
 396 115 464 137 464 239 c 0
 464 257 483 258 506 258 c 0
 530 258 552 257 552 238 c 0
552 526 m 0
 552 385 456 307 271 307 c 0
 137 307 49 362 49 447 c 0
 49 517 98 547 154 547 c 0
 212 547 252 517 252 463 c 0
 252 438 246 420 239 405 c 1
 248 404 258 404 268 404 c 0
 397 404 464 425 464 527 c 0
 464 544 483 546 506 546 c 0
 530 546 552 544 552 526 c 0
167 128 m 1
 174 139 179 151 179 165 c 0
 179 185 168 191 149 191 c 0
 129 191 125 178 125 160 c 0
 125 149 139 137 167 128 c 1
167 416 m 1
 174 427 179 440 179 454 c 0
 179 473 168 479 149 479 c 0
 129 479 125 467 125 449 c 0
 125 438 139 425 167 416 c 1
EndSplineSet
EndChar

StartChar: uni0EB1
Encoding: 124 3761 29
Width: 0
GlyphClass: 4
Flags: W
HStem: 625 96<-339.887 -176.732> 797 68<-460.004 -408.264>
VStem: -537 76<744.436 796.309> -407 73<734.648 796.227> -125 91<765.739 862.237>
AnchorPoint: "tone" -250 880 basemark 0
AnchorPoint: "udia" -300 600 mark 0
LayerCount: 2
Fore
SplineSet
-34 844 m 0
 -34 728 -99 625 -306 625 c 0
 -456 625 -537 682 -537 765 c 0
 -537 823 -499 865 -433 865 c 0
 -374 865 -334 836 -334 781 c 0
 -334 758 -339 738 -346 722 c 1
 -334 722 -320 721 -306 721 c 0
 -172 721 -125 757 -125 828 c 0
 -125 857 -113 864 -83 864 c 0
 -51 864 -34 860 -34 844 c 0
-419 734 m 1
 -412 746 -407 758 -407 771 c 0
 -407 792 -420 797 -435 797 c 0
 -453 797 -461 789 -461 771 c 0
 -461 755 -446 743 -419 734 c 1
EndSplineSet
EndChar

StartChar: uni0EB2
Encoding: 125 3762 30
Width: 412
GlyphClass: 2
Flags: W
HStem: 0 21G<273.5 300.5> 326 79<27.7383 89.8846>
VStem: -55 82<406.311 462.736> 91 76<406.592 470.483> 224 118<4 449.491>
LayerCount: 2
Fore
SplineSet
224 32 m 2
 224 379 l 2
 224 432 213 462 158 471 c 1
 164 460 167 447 167 431 c 0
 167 353 108 326 59 326 c 0
 -12 326 -55 372 -55 435 c 0
 -55 524 30 558 145 558 c 0
 269 558 342 499 342 380 c 2
 342 32 l 2
 342 3 315 0 286 0 c 0
 261 0 224 0 224 32 c 2
73 471 m 1
 41 465 27 451 27 435 c 0
 27 412 38 405 59 405 c 0
 83 405 91 419 91 435 c 0
 91 447 83 460 73 471 c 1
EndSplineSet
EndChar

StartChar: uni0EB4
Encoding: 127 3764 32
Width: 0
GlyphClass: 4
Flags: W
HStem: 609 76<-431.844 -350.28 -250.413 -167.33> 783 76<-421.316 -177.34>
VStem: -540 100<692.863 761.99> -160 100<693.798 764.663>
AnchorPoint: "tone" -300 880 basemark 0
AnchorPoint: "udia" -300 600 mark 0
LayerCount: 2
Fore
SplineSet
-299 783 m 0
 -366 783 -440 776 -440 729 c 0
 -440 688 -399 685 -370 685 c 0
 -358 685 -349 675 -349 648 c 0
 -349 615 -357 609 -370 609 c 0
 -445 609 -540 636 -540 728 c 0
 -540 836 -401 859 -299 859 c 0
 -197 859 -60 834 -60 728 c 0
 -60 642 -154 609 -229 609 c 0
 -240 609 -252 616 -252 648 c 0
 -252 673 -244 685 -229 685 c 0
 -200 685 -160 688 -160 729 c 0
 -160 775 -219 783 -299 783 c 0
EndSplineSet
EndChar

StartChar: uni0EB5
Encoding: 128 3765 33
Width: 0
GlyphClass: 4
Flags: W
HStem: 609 76<-420.669 -340.251 -240.73 -155.747 -74 13.5745> 783 76<-413.432 -166.678>
VStem: -530 99<693.993 763.479> -242 257<609 684.989> -150 99<692.69 764.998>
AnchorPoint: "tone" -300 880 basemark 0
AnchorPoint: "udia" -300 600 mark 0
LayerCount: 2
Fore
SplineSet
-3 609 m 2xf0
 -224 609 l 2
 -235 609 -242 624 -242 645 c 0xf0
 -242 671 -236 685 -224 685 c 0
 -188 685 -150 688 -150 729 c 0
 -150 775 -208 783 -290 783 c 0
 -364 783 -431 775 -431 729 c 0
 -431 688 -385 685 -356 685 c 0
 -344 685 -339 670 -339 645 c 0
 -339 620 -345 609 -356 609 c 0
 -475 609 -530 658 -530 728 c 0
 -530 817 -432 859 -290 859 c 0
 -161 859 -51 820 -51 735 c 0xe8
 -51 707 -70 686 -74 685 c 1
 -3 685 l 2
 9 685 15 670 15 645 c 0
 15 619 8 609 -3 609 c 2xf0
EndSplineSet
EndChar

StartChar: uni0EB6
Encoding: 129 3766 34
Width: 0
GlyphClass: 4
Flags: W
HStem: 609 76<-433.495 -350.203 -250.517 -166.544> 679 75<-340.883 -259.117> 783 76<-422.78 -177.373>
VStem: -540 100<692.72 763.479> -346 92<685.539 748.146> -160 100<693.05 765.108>
CounterMasks: 1 1c
AnchorPoint: "tone" -300 880 basemark 0
AnchorPoint: "udia" -300 600 mark 0
LayerCount: 2
Fore
SplineSet
-300 754 m 0x7c
 -278 754 -254 739 -254 718 c 0
 -254 696 -277 679 -300 679 c 0
 -323 679 -346 696 -346 718 c 0
 -346 739 -322 754 -300 754 c 0x7c
-299 783 m 0
 -373 783 -440 775 -440 729 c 0
 -440 688 -401 685 -372 685 c 0
 -355 685 -349 673 -349 646 c 0
 -349 613 -357 609 -372 609 c 0
 -447 609 -540 637 -540 728 c 0
 -540 817 -442 859 -299 859 c 0
 -175 859 -60 824 -60 728 c 0
 -60 658 -126 609 -228 609 c 0
 -239 609 -252 616 -252 646 c 0
 -252 673 -247 685 -228 685 c 0xbc
 -199 685 -160 688 -160 729 c 0
 -160 775 -219 783 -299 783 c 0
EndSplineSet
EndChar

StartChar: uni0EB7
Encoding: 130 3767 35
Width: 0
GlyphClass: 4
Flags: W
HStem: 609 76<-421.396 -340.571 -240.584 -155.656 -74 13.5303> 679 75<-331.246 -249.776> 783 76<-412.014 -167.637>
VStem: -530 99<692.33 762.767> -336 91<685.03 748.606> -242 257<609 684.983> -150 99<692.506 764.496>
AnchorPoint: "tone" -300 880 basemark 0
AnchorPoint: "udia" -300 600 mark 0
LayerCount: 2
Fore
SplineSet
-291 754 m 0x78
 -267 754 -245 739 -245 718 c 0
 -245 696 -266 679 -291 679 c 0
 -315 679 -336 696 -336 718 c 0
 -336 739 -314 754 -291 754 c 0x78
-222 609 m 2xbc
 -238 609 -242 630 -242 646 c 0xbc
 -242 662 -240 685 -224 685 c 0
 -182 685 -150 690 -150 730 c 0
 -150 769 -194 783 -291 783 c 0
 -387 783 -431 764 -431 730 c 0
 -431 704 -414 687 -387 687 c 0
 -353 687 -339 682 -339 646 c 0
 -339 630 -341 609 -356 609 c 0
 -466 609 -530 652 -530 730 c 0
 -530 813 -439 859 -291 859 c 0
 -142 859 -51 811 -51 733 c 0xba
 -51 707 -70 686 -74 685 c 1
 -4 685 l 2
 12 685 15 662 15 646 c 0
 15 630 12 609 -3 609 c 2
 -222 609 l 2xbc
EndSplineSet
EndChar

StartChar: uni0EB8
Encoding: 131 3768 36
Width: 0
GlyphClass: 4
Flags: W
HStem: -110 54<-215.477 -166.135>
VStem: -285 68<-165.097 -110.487> -163 78<-160.72 -111.247>
AnchorPoint: "lstack" -160 55 mark 0
AnchorPoint: "ldia" -160 0 mark 0
LayerCount: 2
Fore
SplineSet
-185 -56 m 0
 -119 -56 -85 -97 -85 -163 c 1
 -85 -236 -145 -297 -215 -337 c 0
 -221 -341 -227 -341 -234 -337 c 1
 -250 -337 -268 -312 -268 -296 c 1
 -273 -288 -274 -282 -265 -276 c 0
 -237 -259 -216 -241 -201 -224 c 1
 -245 -224 -285 -194 -285 -138 c 0
 -285 -90 -246 -56 -185 -56 c 0
-163 -161 m 1
 -161 -155 -163 -151 -163 -149 c 0
 -163 -119 -176 -110 -190 -110 c 0
 -207 -110 -217 -119 -217 -138 c 0
 -217 -156 -208 -166 -190 -166 c 0
 -182 -166 -171 -164 -163 -161 c 1
EndSplineSet
EndChar

StartChar: uni0EB9
Encoding: 132 3769 37
Width: 0
GlyphClass: 4
Flags: W
HStem: -342 61<-199.004 -124.618> -197 47<-275.664 -251.094> -113 56<-276.877 -237.074>
VStem: -335 58<-149.203 -113.474> -273 73<-279.025 -194.593> -236 66<-149.999 -114.005> -120 78<-278.135 -62.002>
AnchorPoint: "lstack" -240 100 mark 0
AnchorPoint: "ldia" -160 0 mark 0
LayerCount: 2
Fore
SplineSet
-42 -80 m 2xfa
 -42 -197 l 2
 -42 -319 -88 -342 -161 -342 c 0
 -215 -342 -273 -327 -273 -262 c 0xfa
 -273 -241 -261 -219 -251 -197 c 1
 -254 -197 -258 -197 -261 -197 c 0
 -301 -197 -335 -172 -335 -130 c 0
 -335 -85 -309 -57 -256 -57 c 0
 -209 -57 -179 -83 -171 -119 c 0
 -170 -127 -170 -135 -170 -144 c 0xf6
 -170 -191 -200 -230 -200 -252 c 0
 -200 -272 -186 -281 -161 -281 c 0
 -121 -281 -120 -264 -120 -208 c 2
 -120 -80 l 2
 -120 -61 -94 -61 -79 -61 c 0
 -61 -61 -42 -61 -42 -80 c 2xfa
-236 -146 m 0xf6
 -236 -117 -250 -113 -259 -113 c 0
 -269 -113 -277 -119 -277 -131 c 0
 -277 -142 -272 -150 -257 -150 c 0
 -250 -150 -243 -148 -236 -146 c 0xf6
EndSplineSet
EndChar

StartChar: uni0EBB
Encoding: 133 3771 38
Width: 0
GlyphClass: 4
Flags: W
HStem: 618 69<-457.653 -406.212> 764 92<-344.544 -178.989>
VStem: -536 77<687.742 741.003> -405 73<687.427 749.713> -120 88<619.766 706.808>
AnchorPoint: "tone" -295 880 basemark 0
AnchorPoint: "udia" -300 600 mark 0
LayerCount: 2
Fore
SplineSet
-32 640 m 0
 -32 621 -54 618 -78 618 c 0
 -101 618 -118 622 -120 638 c 1
 -120 648 -122 657 -123 665 c 0
 -140 746 -201 764 -316 764 c 0
 -327 764 -337 765 -346 764 c 1
 -338 749 -332 728 -332 702 c 0
 -332 648 -372 618 -431 618 c 0
 -487 618 -536 649 -536 718 c 0
 -536 803 -448 856 -314 856 c 0
 -129 856 -32 781 -32 640 c 0
-417 750 m 1
 -445 740 -459 727 -459 716 c 0
 -459 698 -455 687 -435 687 c 0
 -416 687 -405 692 -405 712 c 0
 -405 726 -410 739 -417 750 c 1
EndSplineSet
EndChar

StartChar: uni0EBC
Encoding: 134 3772 39
Width: 0
GlyphClass: 4
Flags: W
HStem: -259 69<-465.1 -413.091> -240 95<-228.522 -166.374> -130 88<-462.776 -413.61>
VStem: -543 77<-189.683 -134.814> -412 73<-189.886 -161.453> -152 91<-99 -37.9845>
AnchorPoint: "lstack" -250 -170 basemark 0
AnchorPoint: "cbelow" -160 0 mark 0
LayerCount: 2
Fore
SplineSet
-412 -42 m 0xbc
 -301 -42 -220 -145 -188 -145 c 0
 -172 -145 -167.765 -134.059 -161 -107 c 2
 -152 -71 l 2
 -146.294 -48.1765 -142 -34 -118 -34 c 0
 -81 -34 -61 -43 -61 -56 c 0
 -61 -125 -80 -240 -176 -240 c 0x7c
 -247 -240 -295 -194 -340 -161 c 1
 -340 -165 -339 -169 -339 -173 c 0
 -339 -237 -389 -259 -440 -259 c 0
 -486 -259 -543 -233 -543 -158 c 0
 -543 -88 -491 -42 -412 -42 c 0xbc
-423 -130 m 1
 -445 -130 -466 -140 -466 -164 c 0
 -466 -182 -458 -190 -438 -190 c 0xbc
 -417 -190 -412 -184 -412 -163 c 0
 -412 -152 -417 -141 -423 -130 c 1
EndSplineSet
EndChar

StartChar: uni0EBD
Encoding: 135 3773 40
Width: 499
GlyphClass: 2
Flags: W
HStem: -206 85<233 311.674> -53 79<104.886 167.333> 435 110<333.1 456.5> 523 98<122.736 215.116> 613 20G<445 481>
VStem: 21 83<-107.624 -54.2669> 22 99<467.339 520.743> 168 77<-115.595 -54.0357> 345 117<-86.3165 263.441> 403 115<548.675 627.199>
DStem2: 173 452 113 369 0.919409 -0.393303<-64.4043 223.346> 238 595 234 494 0.933939 -0.357433<-55.9234 144.337>
LayerCount: 2
Fore
SplineSet
518 593 m 4xeb40
 518 478 486 435 427 435 c 4xeb40
 386 435 323 461 315 463 c 2
 234 494 l 2
 230 495 161 523 150 523 c 0
 135 523 121 514 121 495 c 0xd340
 121 478 130 470 173 452 c 2
 353 375 l 2
 449 333 462 287 462 188 c 2
 462 11 l 2
 462 -118 401 -206 236 -206 c 0
 94 -206 21 -163 21 -82 c 0xd580
 21 -3 83 26 135 26 c 0
 194 26 245 -8 245 -75 c 0
 245 -93 240 -109 233 -121 c 1
 322 -121 345 -77 345 8 c 2
 345 166 l 2
 345 254 335 265 277 293 c 1
 113 369 l 1
 49 401 22 428 22 498 c 0
 22 577 74 621 147 621 c 0xd380
 175 621 235 597 238 595 c 2
 319 565 l 2
 321 564 362 545 374 545 c 4
 403 545 403 571 403 598 c 4
 403 628 430 633 460 633 c 4
 502 633 518 619 518 593 c 4xeb40
152 -116 m 1
 161 -105 168 -93 168 -81 c 0
 168 -61 157 -53 136 -53 c 0
 110 -53 104 -65 104 -83 c 0xc5
 104 -99 121 -110 152 -116 c 1
EndSplineSet
EndChar

StartChar: uni0EC0
Encoding: 136 3776 41
Width: 310
GlyphClass: 2
Flags: W
HStem: 0 83<215.651 271.744> 144 79<215.084 275.135> 464 94<148.33 273.004> 464 80<168.142 273.004>
VStem: 16 118<113.2 451.984> 143 71<111.391 141.939> 277 81<87.4887 142.627>
LayerCount: 2
Fore
SplineSet
189 464 m 1xee
 145 464 134 438 134 357 c 2
 134 186 l 2
 134 152 135 128 143 111 c 1
 143 115 143 119 143 123 c 0
 143 174 176 223 246 223 c 0
 326 223 358 167 358 111 c 0
 358 21 293 0 202 0 c 0
 57 0 16 97 16 191 c 2
 16 357 l 2
 16 486 64 558 167 558 c 0xee
 191 558 238 552 262 544 c 0xde
 270 542 277 537 277 520 c 0
 277 481 265 458 251 458 c 1
 189 464 l 1xee
226 83 m 1
 259 83 277 95 277 116 c 0
 277 134 266 144 246 144 c 0
 230 144 214 138 214 118 c 0
 214 105 219 93 226 83 c 1
EndSplineSet
EndChar

StartChar: uni0EC1
Encoding: 137 3777 42
Width: 636
GlyphClass: 2
Flags: W
HStem: 0 83<215.651 271.744 603.651 659.744> 144 79<215.084 275.135 603.084 663.135> 458 86<168.142 271.344 556.142 659.344> 464 94<148.33 273.004 536.33 661.004>
VStem: 16 118<113.2 451.984> 143 71<111.391 141.939> 277 81<87.4887 142.627> 404 118<113.2 451.984> 531 71<111.391 141.939> 665 81<87.4887 142.627>
LayerCount: 2
Back
SplineSet
614 83 m 1xcfc0
 647 83 665 95 665 116 c 0
 665 134 654 144 633 144 c 0
 617 144 602 138 602 118 c 0
 602 105 607 93 614 83 c 1xcfc0
226 83 m 1
 259 83 277 95 277 116 c 0
 277 134 266 144 246 144 c 0
 230 144 214 138 214 118 c 0
 214 105 219 93 226 83 c 1
639 458 m 1xefc0
 598 463 l 2
 591 464 586 464 580 464 c 0
 536 464 522 438 522 357 c 2
 522 186 l 2
 522 152 523 128 531 111 c 1
 531 115 531 119 531 123 c 0
 531 174 564 223 634 223 c 0
 714 223 746 167 746 111 c 0
 746 21 681 0 590 0 c 0
 445 0 404 97 404 191 c 2
 404 357 l 2
 404 486 452 558 555 558 c 0xdfc0
 579 558 625 552 650 544 c 0
 658 542 665 537 665 520 c 0
 665 481 653 458 639 458 c 1xefc0
251 458 m 1xefc0
 210 463 l 2
 203 464 198 464 192 464 c 0
 148 464 134 438 134 357 c 2
 134 186 l 2
 134 152 135 128 143 111 c 1
 143 115 143 119 143 123 c 0
 143 174 176 223 246 223 c 0
 326 223 358 167 358 111 c 0
 358 21 293 0 202 0 c 0
 57 0 16 97 16 191 c 2
 16 357 l 2
 16 486 64 558 167 558 c 0xdfc0
 191 558 238 552 262 544 c 0
 270 542 277 537 277 520 c 0
 277 481 265 458 251 458 c 1xefc0
EndSplineSet
Fore
SplineSet
577 464 m 1xdfc0
 533 464 522 438 522 357 c 2
 522 186 l 2
 522 152 523 128 531 111 c 1
 531 115 531 119 531 123 c 0
 531 174 564 223 634 223 c 0
 714 223 746 167 746 111 c 0
 746 21 681 0 590 0 c 0
 445 0 404 97 404 191 c 2
 404 357 l 2
 404 486 452 558 555 558 c 0xdfc0
 579 558 626 552 650 544 c 0
 658 542 665 537 665 520 c 0
 665 481 653 458 639 458 c 1xefc0
 577 464 l 1xdfc0
614 83 m 1
 647 83 665 95 665 116 c 0
 665 134 654 144 634 144 c 0
 618 144 602 138 602 118 c 0
 602 105 607 93 614 83 c 1
189 464 m 1
 145 464 134 438 134 357 c 2
 134 186 l 2
 134 152 135 128 143 111 c 1
 143 115 143 119 143 123 c 0
 143 174 176 223 246 223 c 0
 326 223 358 167 358 111 c 0
 358 21 293 0 202 0 c 0
 57 0 16 97 16 191 c 2
 16 357 l 2
 16 486 64 558 167 558 c 0xdfc0
 191 558 238 552 262 544 c 0
 270 542 277 537 277 520 c 0
 277 481 265 458 251 458 c 1xefc0
 189 464 l 1
226 83 m 1
 259 83 277 95 277 116 c 0
 277 134 266 144 246 144 c 0
 230 144 214 138 214 118 c 0
 214 105 219 93 226 83 c 1
EndSplineSet
EndChar

StartChar: uni0EC2
Encoding: 138 3778 43
Width: 500
GlyphClass: 2
Flags: W
HStem: 0 83<358.197 413.337> 144 79<356.504 417.821> 830 94<154.197 224.242>
VStem: 50 102<761.795 827.359> 158 119<113.706 508.298> 286 70<111.391 142.334> 419 82<88.7079 142.782>
DStem2: 195 741 120 672 0.746513 -0.665371<-69.4513 126.453> 273 886 247 789 0.769704 -0.638401<-31.4052 266.981>
LayerCount: 2
Back
SplineSet
370 83 m 1
 399 83 419 95 419 116 c 0xfe80
 419 130 414 144 388 144 c 0
 366 144 356 135 356 118 c 0
 356 105 363 93 370 83 c 1
470 710 m 0
 470 692 442 649 420 649 c 0
 405 649 394 660 380 671 c 24
 326 715 247 789 247 789 c 2
 193 825 l 2
 187.676 828.643 182.431 830.244 177.55 830.244 c 0
 165.012 830.244 154.879 819.676 152 806 c 1
 152 798 l 1
 154 780 175 760 195 741 c 2
 379 577 l 1
 355 570 277 520 277 439 c 2
 277 182 l 2
 277 150 278 127 286 111 c 1
 286 115 286 119 286 123 c 0
 286 196 340 223 389 223 c 0
 470 223 501 170 501 114 c 0
 501 36 450 0 335 0 c 0
 251 0 158 48 158 188 c 2
 158 389 l 2
 158 503 209 568 220 579 c 1
 186 609 153 642 120 672 c 0
 84 704 50 734 50 781 c 1
 50 877 105 924 183 924 c 0
 202 924 219 917 234 910 c 1
 297 874 416 761 458 734 c 0
 462 731 470 720.77 470 710 c 0
EndSplineSet
Fore
SplineSet
152 798 m 0
 152 780 175 760 195 741 c 2
 379 577 l 1
 355 570 277 520 277 439 c 2
 277 182 l 2
 277 150 278 127 286 111 c 1
 286 115 286 119 286 123 c 0
 286 196 340 223 389 223 c 0
 470 223 501 170 501 114 c 0
 501 36 450 0 335 0 c 0
 251 0 158 48 158 188 c 2
 158 389 l 2
 158 503 209 568 220 579 c 1
 186 609 120 672 120 672 c 1
 84 704 50 735 50 800 c 0
 50 873 105 924 183 924 c 0
 202 924 235.846 916.816 273 886 c 2
 443 745 l 2
 459.951 730.941 472 718 472 703 c 0
 472 685 446 649 424 649 c 0
 409 649 394 658 380 671 c 2
 247 789 l 2
 210.97 820.966 201 830 185 830 c 0
 167 830 152 819 152 798 c 0
370 83 m 1
 399 83 419 95 419 116 c 0
 419 130 414 144 388 144 c 0
 366 144 356 135 356 118 c 0
 356 105 363 93 370 83 c 1
EndSplineSet
EndChar

StartChar: uni0EC3
Encoding: 139 3779 44
Width: 500
GlyphClass: 2
Flags: W
HStem: 0 83<348.197 403.337> 144 79<346.504 407.821> 562 78<136.204 231.683> 740 84<147.714 355.882>
VStem: 35 96<647.601 722.116> 148 119<113.706 405.012> 276 70<111.391 142.334> 375 108<619.276 719.075> 409 82<88.7079 142.782>
LayerCount: 2
Back
SplineSet
175 562 m 0xff
 107 562 35 603 35 674 c 0
 35 757 103 824 245 824 c 0
 420 824 483 762 483 676 c 0xff
 483 483 267 492 267 329 c 2
 267 182 l 6
 267 150 268 127 276 111 c 5
 276 115 276 119 276 123 c 4
 276 196 330 223 379 223 c 4
 460 223 491 170 491 114 c 4xfe80
 491 36 440 0 325 0 c 4
 241 0 148 48 148 188 c 6
 148 334 l 2
 148 547 375 563 375 673 c 0
 375 732 321 740 249 740 c 0
 182 740 131 729 131 684 c 0
 131 663 148 640 175 640 c 0
 177.809 640 180.584 639.951 183.349 639.951 c 0
 202.237 639.951 220.574 642.234 245 678 c 1
 251.385 687.993 259.388 691.899 267.747 691.899 c 0
 289.5 691.899 313.666 665.448 318 651 c 0
 320 643 318 633 311 624 c 0
 275 575 237 562 175 562 c 0xff
360 83 m 5
 389 83 409 95 409 116 c 4xfe80
 409 130 404 144 378 144 c 4
 356 144 346 135 346 118 c 4
 346 105 353 93 360 83 c 5
175 562 m 0xff
 107 562 35 603 35 674 c 0
 35 757 103 824 245 824 c 0
 420 824 483 762 483 676 c 0xff
 483 483 267 492 267 329 c 2
 267 182 l 2
 267 150 268 127 276 111 c 1
 276 115 276 119 276 123 c 0
 276 196 330 223 379 223 c 0
 460 223 491 164 491 108 c 0xfe80
 491 30 440 0 325 0 c 0
 241 0 148 48 148 188 c 2
 148 334 l 2
 148 547 375 563 375 673 c 0
 375 732 321 740 249 740 c 0
 182 740 131 729 131 684 c 0
 131 663 148 640 175 640 c 0
 177.809 640 180.584 639.951 183.349 639.951 c 0
 202.237 639.951 220.574 642.234 245 678 c 1
 251.385 687.993 259.388 691.899 267.747 691.899 c 0
 289.5 691.899 313.666 665.448 318 651 c 0
 320 643 318 633 311 624 c 0
 275 575 237 562 175 562 c 0xff
360 83 m 1
 389 83 409 95 409 116 c 0xfe80
 409 130 404 144 378 144 c 0
 356 144 346 135 346 118 c 0
 346 105 353 93 360 83 c 1
EndSplineSet
Fore
SplineSet
360 83 m 5xfe80
 389 83 409 95 409 116 c 4
 409 130 404 144 378 144 c 4
 356 144 346 135 346 118 c 4
 346 105 353 93 360 83 c 5xfe80
181 640 m 0
 200 640 221 642 245 678 c 0
 251 688 260 692 268 692 c 0
 290 692 319 665 319 645 c 0
 319 637 316 632 311 624 c 0
 276 575 237 562 175 562 c 0
 107 562 35 603 35 674 c 0
 35 757 103 824 245 824 c 0
 420 824 483 762 483 676 c 0xff
 483 483 267 492 267 329 c 2
 267 182 l 6
 267 150 268 127 276 111 c 5
 276 115 276 119 276 123 c 4
 276 196 330 223 379 223 c 4
 460 223 491 170 491 114 c 4xfe80
 491 36 440 0 325 0 c 4
 241 0 148 48 148 188 c 6
 148 334 l 2
 148 547 375 563 375 673 c 0xff
 375 732 321 740 249 740 c 0
 172 740 131 725 131 680 c 0
 131 651 158 640 181 640 c 0
EndSplineSet
EndChar

StartChar: uni0EC4
Encoding: 140 3780 45
Width: 500
GlyphClass: 2
Flags: W
HStem: 0 83<302.197 357.337> 144 79<300.504 361.821> 612 97<151.305 226.283> 671 92<269.559 364.619>
VStem: 49 102<712.242 815.442> 103 118<113.705 435.447> 230 70<111.391 142.334> 363 82<88.7079 142.782> 366 99<614.53 670.414>
LayerCount: 2
Back
SplineSet
221 328 m 2xd680
 221 178 l 2
 221 149 223 128 230 113 c 1
 230 115 230 117 230 120 c 0
 230 193 280 223 330 223 c 0
 382 223 445 197 445 108 c 0xd7
 445 38 402 0 286 0 c 0
 163 0 103 74 103 194 c 2
 103 332 l 2
 103 451 109 486 196 532 c 0
 244 557 366 607 366 645 c 0
 366 665 357 674 337 674 c 0xd680
 318 674 270 652 244 639 c 0
 211 623 185 612 154 612 c 0
 101 612 49 643 49 763 c 2
 49 793 l 2
 49 815 74 818 99 818 c 0
 124 818 151 817 151 793 c 2
 151 734 l 1
 151 717 155 713 166 713 c 0xea80
 195 713 249 762 315 762 c 0
 322.091 762 333.942 762.893 347.146 762.893 c 0
 358.149 762.893 370.091 762.273 381 760 c 1
 424 749 465 713 465 641 c 0
 465 539 370 511 288 467 c 0
 234 438 221 429 221 328 c 2xd680
313 83 m 1
 333 83 363 93 363 116 c 0
 363 133 354 144 332 144 c 0
 310 144 300 135 300 118 c 0
 300 105 306 93 313 83 c 1
EndSplineSet
Fore
SplineSet
221 182 m 2xd680
 221 150 222 127 230 111 c 1
 230 115 230 119 230 123 c 0
 230 196 284 223 333 223 c 0
 414 223 445 170 445 114 c 0xd7
 445 36 394 0 279 0 c 0
 195 0 103 47.9964 103 188 c 2
 103 332 l 2
 103 451 109 486 196 532 c 0
 243.844 557.297 366 607 366 645 c 0
 366 665 357 671 340 671 c 0xd680
 321 671 273 652 244 639 c 0
 210.922 624.172 185 612 154 612 c 0
 101 612 49 628 49 748 c 2
 49 793 l 2
 49 815 74 818 99 818 c 0
 124 818 151 817 151 793 c 2
 151 734 l 2
 151 717 159 709 170 709 c 0xea80
 199 709 262 763 346 763 c 0
 423 763 465 713 465 641 c 0
 465 539 369.985 511.029 288 467 c 0
 234 438 221 429 221 328 c 2
 221 182 l 2xd680
314 83 m 1
 343 83 363 95 363 116 c 0
 363 130 358 144 332 144 c 0
 310 144 300 135 300 118 c 0
 300 105 307 93 314 83 c 1
EndSplineSet
EndChar

StartChar: uni0EC6
Encoding: 141 3782 46
Width: 681
GlyphClass: 2
Flags: W
HStem: -204 91<284.793 464.213> 198 77<171.863 233.332> 338 80<167.324 233.995> 475 83<172.217 242.366 439.948 506.925>
VStem: 50 116<280.48 336.473 413 469.791> 235 83<276.354 336.361> 517 115<-57.6403 467.943>
LayerCount: 2
Back
SplineSet
219 -45 m 0
 266 -81 300 -113 376 -113 c 0
 493 -113 517 -51 517 60 c 2
 517 357 l 2
 517 467 504 475 478 475 c 0
 438 475 415 397 341 397 c 0
 264 397 251 475 196 475 c 0
 179 475 167 463 167 413 c 1
 178 416 190 418 202 418 c 0
 275 418 318 370 318 308 c 0
 318 243 267 198 189 198 c 0
 104 198 50 248 50 352 c 0
 50 375 50 396 53 415 c 0
 66 507 124 558 197 558 c 0
 284 558 341 484 341 484 c 1
 341 484 399 558 479 558 c 0
 577 558 632 513 632 327 c 2
 632 81 l 2
 632 -111 559 -204 378 -204 c 0
 249 -204 193 -151 152 -109 c 0
 148 -104 146 -99 146 -94 c 0
 146 -77 183 -37 204 -37 c 0
 209 -37 214 -41 219 -45 c 0
166 330 m 1
 166 325 l 2
 166 291 178 275 203 275 c 0
 222 275 235 288 235 307 c 0
 235 324 226 338 203 338 c 0
 192 338 178 335 166 330 c 1
EndSplineSet
Fore
SplineSet
50 352 m 0
 50 510 124 558 197 558 c 0
 284 558 341 484 341 484 c 1
 341 484 399 558 479 558 c 0
 577 558 632 513 632 327 c 2
 632 81 l 2
 632 -111 559 -204 378 -204 c 0
 249 -204 193 -151 152 -109 c 0
 148 -104 146 -99 146 -94 c 0
 146 -77 183 -37 204 -37 c 0
 209 -37 214 -41 219 -45 c 0
 266 -81 300 -113 376 -113 c 0
 493 -113 517 -51 517 60 c 2
 517 357 l 2
 517 467 504 475 478 475 c 0
 438 475 415 397 341 397 c 0
 264 397 251 475 196 475 c 0
 179 475 167 463 167 413 c 1
 178 416 190 418 202 418 c 0
 275 418 318 370 318 308 c 0
 318 243 267 198 189 198 c 0
 104 198 50 248 50 352 c 0
166 330 m 1
 166 325 l 2
 166 291 178 275 203 275 c 0
 222 275 235 288 235 307 c 0
 235 324 226 338 203 338 c 0
 192 338 178 335 166 330 c 1
EndSplineSet
EndChar

StartChar: uni0EC8
Encoding: 142 3784 47
Width: 0
GlyphClass: 4
Flags: W
HStem: 597 234<-144.628 -47.3723>
VStem: -145 98<598.984 828.859>
AnchorPoint: "tone" -100 880 basemark 0
AnchorPoint: "tone" -100 560 mark 0
AnchorPoint: "udia" -100 580 mark 0
LayerCount: 2
Fore
SplineSet
-47 802 m 2
 -47 625 l 2
 -47 608 -50 597 -96 597 c 0
 -142 597 -145 608 -145 625 c 2
 -145 802 l 2
 -145 819 -142 831 -96 831 c 0
 -50 831 -47 819 -47 802 c 2
EndSplineSet
EndChar

StartChar: uni0EC9
Encoding: 143 3785 48
Width: 0
GlyphClass: 4
Flags: W
HStem: 623 75<-353 -247.475> 722 49<-449.786 -392.339> 825 54<-450.138 -385.151>
VStem: -512 61<772.37 823.695> -382 69<772.846 822.074> -221 95<720.101 856.031>
AnchorPoint: "tone" -311 900 basemark 0
AnchorPoint: "tone" -310 580 mark 0
AnchorPoint: "udia" -300 600 mark 0
LayerCount: 2
Fore
SplineSet
-221 825 m 0
 -221 844 -216 859 -172 859 c 0
 -131 859 -126 844 -126 825 c 0
 -126 694 -164 623 -337 623 c 2
 -482 623 l 2
 -508 623 -518 632 -518 667 c 0
 -518 706 -423 681 -392 730 c 1
 -403 725 -414 722 -426 722 c 0
 -485 722 -512 755 -512 797 c 0
 -512 837 -489 879 -421 879 c 0
 -346 879 -313 829 -313 772 c 0
 -313 723 -351 698 -353 698 c 2
 -330 698 l 2
 -235 698 -221 721 -221 825 c 0
-382 781 m 1
 -382 817 -394 825 -421 825 c 0
 -443 825 -451 813 -451 798 c 0
 -451 783 -442 771 -418 771 c 0
 -405 771 -392 776 -382 781 c 1
EndSplineSet
EndChar

StartChar: uni0ECA
Encoding: 144 3786 49
Width: 0
GlyphClass: 4
Flags: W
HStem: 726 69<-353.697 -295.075 -226.787 -168.168>
VStem: -432 78<667.612 725.263> -168 138<690.5 797> -95 65<742.299 809.627>
AnchorPoint: "tone" -230 840 basemark 0
AnchorPoint: "tone" -230 560 mark 0
AnchorPoint: "udia" -300 580 mark 0
LayerCount: 2
Fore
SplineSet
-261 741 m 1xe0
 -261 741 -245 795 -176 795 c 0
 -133 795 -110 773 -110 740 c 1
 -101 765 -98 796 -95 802 c 1xd0
 -94 808 -83 811 -69 811 c 0
 -47 811 -30 806 -30 788 c 0
 -30 689 -132 595 -191 595 c 0
 -206.939 595 -227.076 614.945 -227.076 631.639 c 0
 -227.076 637.988 -224.164 643.867 -217 648 c 1
 -186 669 -168 680 -168 701 c 0
 -168 717 -177 726 -193 726 c 0
 -209 726 -224 712 -232 696 c 0
 -239 682 -250 679 -261 679 c 0
 -262.043 679 -263.268 678.94 -264.638 678.94 c 0
 -271.144 678.94 -280.913 680.304 -290 696 c 0
 -299 712 -311 726 -329 726 c 0
 -345 726 -354 717 -354 701 c 0
 -354 678 -328 663 -305 648 c 0
 -299 644 -296 636 -296 628 c 0
 -298 612 -313 595 -333 595 c 0
 -380 595 -432 656 -432 708 c 0
 -432 761 -401 795 -343 795 c 0
 -274 795 -261 741 -261 741 c 1xe0
EndSplineSet
EndChar

StartChar: uni0ECB
Encoding: 145 3787 50
Width: 0
GlyphClass: 4
Flags: W
HStem: 681 72<-272.315 -191 -118 -36.8883>
VStem: -191 73<599.227 681 753 835.257>
AnchorPoint: "tone" -160 870 basemark 0
AnchorPoint: "tone" -160 560 mark 0
AnchorPoint: "udia" -200 580 mark 0
LayerCount: 2
Fore
SplineSet
-118 681 m 1
 -118 625 l 2
 -118 599 -149 597 -155 597 c 0
 -161 597 -191 599 -191 625 c 2
 -191 681 l 1
 -244 681 l 2
 -272 681 -275 712 -275 718 c 0
 -275 722 -273 753 -244 753 c 2
 -191 753 l 1
 -191 811 l 2
 -191 836 -161 837 -155 837 c 0
 -150 837 -118 837 -118 811 c 2
 -118 753 l 1
 -62 753 l 2
 -36 753 -35 724 -35 718 c 0
 -35 712 -36 681 -62 681 c 2
 -118 681 l 1
EndSplineSet
EndChar

StartChar: uni0ECC
Encoding: 146 3788 51
Width: 0
GlyphClass: 4
Flags: W
HStem: 611 60<-247.91 -195.516> 712 71<-134 -104.828> 727 63<-248.393 -194.629>
VStem: -315 66<672.43 725.688> -194 60<672.146 712>
AnchorPoint: "tone" -200 860 basemark 0
AnchorPoint: "tone" -200 580 mark 0
AnchorPoint: "udia" -220 600 mark 0
LayerCount: 2
Fore
SplineSet
-134 712 m 1xd8
 -134 705 l 2
 -134 657 -159 611 -224 611 c 0
 -270 611 -315 646 -315 699 c 0
 -315 752 -276 790 -222 790 c 1xb8
 -157 783 l 1
 -130 783 -114 794 -95 813 c 0
 -90 818 -85 820 -80 820 c 0
 -63 820 -33 791 -33 777 c 0
 -33 768 -36 764 -40 759 c 0
 -66 729 -91 712 -134 712 c 1xd8
-194 699 m 0
 -194 716 -208 727 -222 727 c 0
 -236 727 -249 716 -249 699 c 0
 -249 682 -236 671 -222 671 c 0
 -208 671 -194 682 -194 699 c 0
EndSplineSet
EndChar

StartChar: uni0ECD
Encoding: 147 3789 52
Width: 0
GlyphClass: 4
Flags: HW
HStem: 619 67<-298.348 -227.425> 764 65<-298.263 -227.425>
VStem: -371 68<690.25 758.533> -223 68<691.036 759.114>
AnchorPoint: "tone" -240 860 basemark 0
AnchorPoint: "cabove" -260 620 mark 0
LayerCount: 2
Fore
SplineSet
-263 764 m 0
 -284 764 -303 747 -303 725 c 0
 -303 703 -285 686 -263 686 c 0
 -242 686 -223 702 -223 725 c 0
 -223 747 -242 764 -263 764 c 0
-371 724 m 0
 -371 782 -324 829 -262 829 c 0
 -203 829 -155 785 -155 724 c 0
 -155 663 -203 619 -262 619 c 0
 -324 619 -371 666 -371 724 c 0
EndSplineSet
EndChar

StartChar: uni0ED0
Encoding: 148 3792 53
Width: 593
GlyphClass: 2
Flags: W
HStem: 0 84<218.061 374.428> 473 84<218.061 374.428>
VStem: 49 122<138.168 419.452> 423 122<141.267 416.363>
LayerCount: 2
Fore
SplineSet
545 279 m 0
 545 93 461 0 296 0 c 0
 131 0 49 93 49 279 c 0
 49 465 131 557 296 557 c 0
 461 557 545 465 545 279 c 0
423 279 m 0
 423 376 421 473 296 473 c 0
 172 473 171 376 171 279 c 0
 171 182 172 84 296 84 c 0
 421 84 423 182 423 279 c 0
EndSplineSet
EndChar

StartChar: uni0ED1
Encoding: 149 3793 54
Width: 650
GlyphClass: 2
Flags: W
HStem: -33 106<213.754 318.538> 162 79<178.537 308.4> 251 56<250.164 308.602> 372 69<249.98 319.638> 494 92<213.623 386.705>
VStem: 34 107<277.723 423.814> 171 77<309.151 370.146> 482 120<216.184 400.809>
LayerCount: 2
Fore
SplineSet
297 494 m 0
 214 494 141 441 141 345 c 0
 141 276 191 241 247 241 c 0
 275 241 296 248 309 260 c 1
 295 255 280 251 265 251 c 0
 205 251 171 299 171 343 c 0
 171 403 220 441 286 441 c 0
 358 441 420 395 420 316 c 0
 420 222 342 162 243 162 c 0
 121 162 34 244 34 365 c 0
 34 511 175 586 286 586 c 0
 451 586 602 506 602 308 c 0
 602 131 466 26 330 -21 c 1
 303 -29 276 -33 253 -33 c 0
 228 -33 207 -19 207 20 c 0
 207 53 213 73 239 73 c 1
 350 87 482 163 482 306 c 0
 482 433 392 494 297 494 c 0
329 322 m 1
 326 351 311 372 282 372 c 0
 258 372 248 361 248 339 c 0
 248 319 256 307 282 307 c 0
 301 307 317 314 329 322 c 1
EndSplineSet
EndChar

StartChar: uni0ED2
Encoding: 150 3794 55
Width: 635
GlyphClass: 2
Flags: W
HStem: 0 97<216.635 374.829> 232 79<406.971 464.48>
VStem: 15 126<172.34 350.367> 316 89<171.259 229.765> 470 104<171.875 228.312>
LayerCount: 2
Fore
SplineSet
584 643 m 0
 421 482 141 468 141 271 c 0
 141 136 223 97 316 97 c 0
 337 97 360 98 378 102 c 1
 341 120 316 158 316 200 c 0
 316 264 356 311 447 311 c 0
 534 311 574 249 574 177 c 0
 574 67 476 0 293 0 c 0
 97 0 15 130 15 268 c 0
 15 543 312 561 503 722 c 0
 512 730 520 736 530 736 c 0
 537 736 557 719 567 710 c 0
 578 700 594 676 594 666 c 0
 594 657 591 650 584 643 c 0
470 180 m 0
 470 181 470 182 470 183 c 0
 470 225 452 232 437 232 c 0
 421 232 405 225 405 201 c 0
 405 184 417 170 436 170 c 0
 447 170 459 174 470 180 c 0
EndSplineSet
EndChar

StartChar: uni0ED3
Encoding: 151 3795 56
Width: 851
GlyphClass: 2
Flags: W
HStem: 0 82<139.256 196.342 453.443 631.475> 152 80<133.873 194.894> 665 108<664.444 802> 753 95<456.569 551.438>
VStem: 49 83<90.658 149.821> 197 72<92.4437 150.218> 287 119<128.888 553.546> 354 100<694.643 751.775> 678 118<131.507 491.826> 749 103<784.906 855.402>
DStem2: 496 685 461 592 0.90223 -0.431255<-54.2829 247.881>
LayerCount: 2
Back
SplineSet
678 382 m 2xde80
 678 479 672 492 620 516 c 2
 461 592 l 2
 403 619 354 642 354 727 c 0
 354 786 382 820 415 834 c 1
 441.471 847.235 475.727 848.014 495.786 848.014 c 0
 498.46 848.014 500.882 848 503 848 c 1xdd80
 556 848 666 773 705 773 c 0
 738 773 728 809 749 837 c 1
 753 856 775 860 803 860 c 0
 845 860 852 838 852 822 c 0
 852 761 844 665 760 665 c 0xed40
 725 665 675 682 643 695 c 1
 627 700 503 752 489 752 c 1
 486.529 752.727 484.037 753.073 481.582 753.073 c 0
 467.148 753.073 454 741.093 454 724 c 0xdd40
 454 703 469 697 496 685 c 0
 520 675 542 665 562 656 c 0
 768 568 796 566 796 408 c 2
 796 227 l 2
 796 43 686 0 542 0 c 0
 470 0 391 7 349 83 c 1
 335 36 272 0 221 0 c 0
 202 0 182 1 164 4 c 1
 91 12 49 56 49 122 c 0
 49 189 95 232 166 232 c 0
 224 232 269 190 269 135 c 0
 269 122 266 107 261 92 c 1
 285 105 287 131 287 169 c 2
 287 522 l 2
 287 556 320 558 346 558 c 0
 371 558 406 557 406 522 c 2
 406 228 l 2
 406 120 449 83 543 83 c 0
 637 83 678 119 678 227 c 2
 678 382 l 2xde80
193 82 m 1
 196 94 197 110 197 118 c 0
 197 138 184 152 164 152 c 0
 145 152 132 141 132 121 c 0
 132 100 150 82 193 82 c 1
EndSplineSet
Fore
SplineSet
193 82 m 1xcc
 196 94 197 110 197 118 c 0
 197 138 184 152 164 152 c 0
 145 152 132 141 132 121 c 0
 132 100 150 82 193 82 c 1xcc
354 727 m 0xdd80
 354 819 416 848 496 848 c 2
 503 848 l 2xdd80
 556 848 666 773 705 773 c 0
 738 773 728 809 749 837 c 1
 753 856 775 860 803 860 c 0
 845 860 852 838 852 822 c 0
 852 761 844 665 760 665 c 0xed40
 725 665 675 682 643 695 c 1
 627 700 503 753 489 753 c 1
 487 754 484 753 482 753 c 0
 467 753 454 741 454 724 c 0xdd40
 454 703 469 697 496 685 c 0
 520 675 542 665 562 656 c 0
 768 568 796 566 796 408 c 2
 796 227 l 2
 796 43 686 0 542 0 c 0
 470 0 391 6 349 82 c 1
 335 35 268 0 203 0 c 0
 91 0 49 56 49 122 c 0
 49 189 95 232 166 232 c 0
 224 232 269 190 269 135 c 0
 269 122 266 107 261 92 c 1
 285 105 287 131 287 169 c 2
 287 522 l 2
 287 556 320 558 346 558 c 0
 371 558 406 557 406 522 c 2
 406 228 l 2xde80
 406 120 449 82 543 82 c 0
 637 82 678 119 678 227 c 2
 678 382 l 2
 678 479 672 492 620 516 c 2
 461 592 l 2
 403 619 354 642 354 727 c 0xdd80
EndSplineSet
EndChar

StartChar: uni0ED4
Encoding: 152 3796 57
Width: 714
GlyphClass: 2
Flags: W
HStem: 0 83<199.163 345.125 514.475 575.042> 140 80<512.469 574.13> 244 80<512.515 574.436> 388 77<515.149 573.362>
VStem: 49 118<114.462 364.092> 394 118<122.291 139.207 216 248 325.07 384.844> 576 81<80.9016 138.101 325.605 386.008>
DStem2: 184 505 261 419 0.914871 0.403746<-48.4166 323.834>
LayerCount: 2
Back
SplineSet
512 331 m 5
 524 327 535 324 545 324 c 4
 561 324 576 336 576 356 c 4
 576 375 562 388 545 388 c 4
 524 388 512 372 512 356 c 6
 512 331 l 5
512 131 m 5
 512 122 l 6
 512 105 514 87 529 83 c 5
 536 79 544 78 553 80 c 4
 568 82 576 95 576 110 c 4
 576 127 562 140 543 140 c 4
 533 140 522 137 512 131 c 5
394 140 m 5
 394 324 l 6
 394 416 448 465 532 465 c 4
 609 465 657 418 657 354 c 4
 657 291 608 244 542 244 c 4
 532 244 522 245 512 248 c 5
 512 216 l 5
 522 219 533 220 545 220 c 4
 617 220 657 165 657 114 c 4
 657 55 618 0 530 0 c 4
 477 0 438 20 416 55 c 5
 376 26 326 0 257 0 c 4
 145 0 49 52 49 209 c 0
 49 361 55 448 184 505 c 1
 255 535 329 566 397 599 c 1
 483 634 492 701 537 718 c 0
 543 721 552 720 559 717 c 0
 578 711 598 693 606 676 c 0
 609 669 611 662 609 656 c 1
 585 628 543 539 450 503 c 1
 261 419 l 6
 175 381 167 343 167 211 c 0
 167 133 184 83 268 83 c 4
 321 83 359 110 394 140 c 5
EndSplineSet
Fore
SplineSet
397 599 m 6
 478.931 635.157 510 720 546 720 c 4
 578 720 608 680 608 662 c 4
 608 645 547.795 546.464 450 503 c 6
 261 419 l 2
 175.082 380.814 167 343 167 211 c 0
 167 133 184 83 268 83 c 0
 321 83 359 110 394 140 c 1
 394 324 l 2
 394 416 448 465 532 465 c 0
 609 465 657 418 657 354 c 0
 657 291 608 244 542 244 c 0
 532 244 522 245 512 248 c 1
 512 216 l 1
 522 219 533 220 545 220 c 0
 617 220 657 165 657 114 c 0
 657 55 618 0 530 0 c 0
 477 0 438 20 416 55 c 1
 376 26 326 0 257 0 c 0
 145 0 49 52 49 209 c 0
 49 361 55 448 184 505 c 2
 397 599 l 6
544 79 m 0
 564 79 576 91 576 110 c 0
 576 127 562 140 543 140 c 0
 533 140 522 137 512 131 c 1
 512 122 l 2
 512 97 519 79 544 79 c 0
512 331 m 1
 524 327 535 324 545 324 c 0
 561 324 576 336 576 356 c 0
 576 375 562 388 545 388 c 0
 524 388 512 372 512 356 c 2
 512 331 l 1
EndSplineSet
EndChar

StartChar: uni0ED5
Encoding: 153 3797 58
Width: 714
GlyphClass: 2
Flags: W
HStem: 0 83<201.401 345.125 513.147 575.024> 140 80<512.469 574.13> 244 80<512.515 574.436> 388 77<515.149 573.362> 606 72<241.242 301.393>
VStem: 49 119<117.556 372.739> 159 79<547.412 604.121> 394 118<122.291 139.207 216 248 325.07 384.844> 576 81<80.8388 138.101 325.605 386.008>
DStem2: 184 502 257 423 0.928194 0.372096<-41.5275 10.3982 212.868 313.707>
LayerCount: 2
Back
SplineSet
400 589 m 6
 481.931 625.157 513 710 549 710 c 4
 581 710 611 670 611 652 c 4
 611 635 550.795 536.465 453 493 c 6
EndSplineSet
Fore
SplineSet
512 331 m 1xf980
 524 327 535 324 545 324 c 0
 561 324 576 336 576 356 c 0
 576 375 562 388 545 388 c 0
 524 388 512 372 512 356 c 2
 512 331 l 1xf980
544 79 m 0
 569 79 576 95 576 110 c 0
 576 127 562 140 543 140 c 0
 533 140 522 137 512 131 c 1
 512 122 l 2
 512 105 513 79 544 79 c 0
287 547 m 1
 296 556 302 567 302 580 c 0
 302 594 288 606 272 606 c 0
 253 606 238 594 238 578 c 0xfb80
 238 558 252 545 274 545 c 0
 278 545 282 546 287 547 c 1
381 580 m 1
 381 580 403 589 411 593 c 0
 481 631 513 710 549 710 c 0
 581 710 611 670 611 652 c 0
 611 635 551 536 453 493 c 0
 436 485 387 465 333 470 c 1
 302 442 266 427 257 423 c 0
 169 390 168 342 168 211 c 0
 168 115 205 83 268 83 c 0
 321 83 359 110 394 140 c 1
 394 324 l 2
 394 416 448 465 532 465 c 0
 609 465 657 418 657 354 c 0
 657 291 608 244 542 244 c 0
 532 244 522 245 512 248 c 1
 512 216 l 1
 522 219 533 220 545 220 c 0
 617 220 657 165 657 114 c 0
 657 55 618 0 530 0 c 0
 477 0 438 20 416 55 c 1
 376 26 326 0 257 0 c 0
 132 0 49 63 49 230 c 0xfd80
 49 367 57 451 184 502 c 1
 194 505 l 1
 173 524 159 550 159 584 c 0
 159 640 205 678 266 678 c 0
 273 678 279 678 286 677 c 1
 355 677 381 625 381 580 c 1
EndSplineSet
EndChar

StartChar: uni0ED6
Encoding: 154 3798 59
Width: 746
GlyphClass: 2
Flags: W
HStem: 0 84<185.745 275.38 429.659 517.335> 337 80<167.493 228.526> 481 77<172.618 228.297> 638 102<524.588 619.5> 711 89<349.45 446.167>
VStem: 49 118<99.9077 341 417.898 475.837> 230 83<418.796 479.394> 249 100<652.439 710.445> 292 118<102.421 253.54> 534 122<101.739 463.394> 596 101<741.51 813.093>
LayerCount: 2
Fore
SplineSet
656 382 m 2xf540
 656 234 l 2
 656 58 597 0 493 0 c 0
 420 0 377 23 354 96 c 1
 332 24 285 0 211 0 c 0
 106 0 49 59 49 227 c 2
 49 382 l 2
 49 485 89 558 188 558 c 0
 265 558 313 511 313 448 c 0
 313 384 266 337 198 337 c 0
 188 337 177 338 167 341 c 1
 167 195 l 2
 167 116 184 84 230 84 c 0xf640
 279 84 292 118 292 206 c 0
 292 254 318 260 353 260 c 0
 386 260 410 254 410 206 c 0xf480
 410 114 431 84 473 84 c 0
 512 84 534 105 534 195 c 2
 534 421 l 2
 534 483 437 508 356 544 c 1
 299 575 249 593 249 680 c 0
 249 739 278 772 311 786 c 0
 342 800 382 800 399 800 c 1xed40
 476 800 551 740 578 740 c 0
 592 740 596 744 596 763 c 2
 596 789 l 2
 596 814 622 816 647 816 c 0
 673 816 697 812 697 789 c 2
 697 763 l 2
 697 666 643 638 596 638 c 0xf520
 527 638 427 711 379 711 c 0xed20
 359 711 349 703 349 683 c 0
 349 663 366 653 391 638 c 1
 610 541 656 534 656 382 c 2xf540
167 424 m 1
 178 420 189 417 199 417 c 0
 216 417 230 429 230 448 c 0
 230 468 217 481 200 481 c 0
 179 481 167 465 167 435 c 2
 167 424 l 1
EndSplineSet
EndChar

StartChar: uni0ED7
Encoding: 155 3799 60
Width: 744
GlyphClass: 2
Flags: W
HStem: 0 77<134.638 191.6> 140 80<134.37 194.507> 337 80<135.232 194.508> 479 78<135.54 192.128 378.105 508.832>
VStem: 51 82<78.1063 138.468 418.836 477.147> 195 119<79.1692 139.018 216 340 417.879 431.049> 550 118<-58.7171 436.413>
LayerCount: 2
Fore
SplineSet
314 414 m 9
 314 151 l 2
 314 53 265 0 175 0 c 0
 98 0 51 46 51 109 c 0
 51 174 98 220 164 220 c 0
 174 220 185 219 195 216 c 1
 195 340 l 1
 185 338 175 337 164 337 c 0
 95 337 51 388 51 446 c 0
 51 507 93 557 176 557 c 0
 231 557 269 538 291 501 c 1
 333 531 386 558 456 558 c 0
 570 558 668 508 668 333 c 2
 668 98 l 2
 668 12 695 -63 695 -97 c 0
 695 -133 652 -141 615 -141 c 0
 601 -141 585 -137 579 -121 c 1
 570 -104 550 -18 550 68 c 2
 550 346 l 2
 550 422 531 474 445 474 c 0
 391 474 352 445 314 414 c 9
195 426 m 1
 195 442 l 2
 195 464 186 479 163 479 c 0
 143 479 133 465 133 447 c 0
 133 431 145 417 164 417 c 0
 174 417 184 420 195 426 c 1
195 133 m 1
 184 137 172 140 163 140 c 0
 147 140 133 128 133 109 c 0
 133 89 146 77 163 77 c 0
 184 77 195 92 195 124 c 2
 195 133 l 1
EndSplineSet
EndChar

StartChar: uni0ED8
Encoding: 156 3800 61
Width: 739
GlyphClass: 2
Flags: W
HStem: -307 89<164.463 255.199> -306 63<476.39 537.842> 0 77<169.292 228.408> 140 80<167.493 228.36> 474 84<186.665 275.298 427.071 514.979>
VStem: 49 118<81.4359 139.102 215 452.325> 74 89<-215.45 -157.586> 230 83<79.267 138.371> 292 118<322.185 458.266> 534 122<53 455.493> 540 68<-241.17 -185.466>
DStem2: 230 -45 289 -115 0.951768 0.30682<-102.345 281.291>
LayerCount: 2
Back
SplineSet
167 133 m 1x3d
 167 109 l 2
 167 92 179 77 200 77 c 0
 217 77 230 89 230 109 c 0
 230 128 216 140 199 140 c 0
 189 140 178 137 167 133 c 1x3d
656 188 m 2xbd40
 656 -5 601 -57 601 -57 c 1
 527 -137 l 1
 535 -141 549 -138 555 -144 c 1
 588 -162 608 -186 608 -221 c 0
 608 -269 560 -307 509 -307 c 0x7820
 468 -307 417 -281 402 -221 c 1
 369 -240 314 -269 302 -273 c 1
 263 -294 227 -306 189 -306 c 0
 131 -306 74 -265 74 -196 c 0
 74 -96 139 -74 230 -45 c 2xbb20
 534 53 l 9
 534 366 l 2
 534 449 512 474 472 474 c 0
 430 474 410 452 410 359 c 0
 410 325 387 316 352 316 c 0
 317 316 292 324 292 359 c 0xb8c0
 292 451 271 474 230 474 c 0
 184 474 167 436 167 365 c 2
 167 215 l 1
 177 218 188 220 198 220 c 0
 265 220 313 174 313 109 c 0
 313 45 265 0 188 0 c 0
 89 0 49 72 49 175 c 2
 49 330 l 2
 49 498 106 558 212 558 c 0
 285 558 331 534 352 462 c 1
 376 536 420 558 494 558 c 0
 598 558 656 499 656 323 c 2
 656 188 l 2xbd40
416 -127 m 1
 424 -117 433 -109 442 -101 c 2
 522 -34 l 1
 289 -115 l 1
 237 -132 163 -152 163 -187 c 0
 163 -205 174 -218 199 -218 c 0xba
 212 -218 233 -208 247 -201 c 0
 302 -172 364 -142 416 -127 c 1
515 -184 m 1
 505 -184 l 1
 497 -185 489 -187 480 -189 c 1
 476 -196 475 -208 475 -215 c 0
 475 -232 491 -243 505 -243 c 0
 520 -243 540 -229 540 -212 c 1x7820
 540 -199 528 -186 515 -184 c 1
EndSplineSet
Fore
SplineSet
515 -184 m 1x7820
 505 -184 l 1
 497 -185 489 -187 480 -189 c 1
 476 -196 475 -208 475 -215 c 0
 475 -232 490 -243 511 -243 c 0
 526 -243 540 -229 540 -212 c 0
 540 -199 528 -186 515 -184 c 1x7820
416 -127 m 1
 424 -117 433 -109 442 -101 c 2
 522 -34 l 1
 289 -115 l 1
 237 -132 163 -152 163 -187 c 0
 163 -205 174 -218 199 -218 c 0xba
 212 -218 233 -208 247 -201 c 0
 302 -172 364 -142 416 -127 c 1
608 -221 m 0xb820
 608 -269 560 -306 509 -306 c 0x7820
 468 -306 417 -281 402 -221 c 1
 369 -240 314 -269 302 -273 c 1
 263 -294 227 -307 189 -307 c 0
 131 -307 74 -265 74 -196 c 0
 74 -96 139 -74 230 -45 c 2xbb20
 534 53 l 1
 534 366 l 2
 534 449 512 474 472 474 c 0
 430 474 410 452 410 359 c 0
 410 325 387 316 352 316 c 0
 317 316 292 324 292 359 c 0xb8c0
 292 451 271 474 230 474 c 0
 184 474 167 436 167 365 c 2
 167 215 l 1
 177 218 188 220 198 220 c 0
 265 220 313 174 313 109 c 0
 313 45 265 0 188 0 c 0
 89 0 49 72 49 175 c 2
 49 330 l 2
 49 498 106 558 212 558 c 0
 285 558 331 534 352 462 c 1
 376 536 420 558 494 558 c 0
 598 558 656 499 656 323 c 2
 656 156 l 2xbd40
 656 -37 601 -57 601 -57 c 1
 527 -137 l 1
 557 -137 608 -160 608 -221 c 0xb820
167 133 m 1x3d
 167 109 l 2
 167 92 179 77 200 77 c 0
 217 77 230 89 230 109 c 0
 230 128 216 140 199 140 c 0
 189 140 178 137 167 133 c 1x3d
EndSplineSet
EndChar

StartChar: uni0ED9
Encoding: 157 3801 62
Width: 750
GlyphClass: 2
Flags: W
HStem: 0 77<170.034 228.223 488.606 563.94> 140 80<167.493 228.36> 474 84<200.735 328.075>
VStem: 49 118<82.0833 139.102 215 441.562> 230 83<79.267 138.371> 352 119<94.7966 447.469> 583 119<95.4151 553.069>
LayerCount: 2
Fore
SplineSet
272 474 m 0
 190 474 167 436 167 329 c 2
 167 215 l 1
 177 218 188 220 198 220 c 0
 265 220 313 174 313 109 c 0
 313 45 264 0 188 0 c 0
 98 0 49 53 49 169 c 2
 49 330 l 2
 49 510 142 558 271 558 c 0
 397 558 471 522 471 332 c 6
 471 179 l 6
 471 114 483 83 527 83 c 0
 581 83 583 127 583 233 c 2
 583 521 l 2
 583 557 617 558 642 558 c 0
 669 558 702 556 702 521 c 2
 702 191 l 2
 702 46 642 0 527 0 c 0
 422 0 352 34 352 180 c 2
 352 335 l 2
 352 427 343 474 272 474 c 0
167 133 m 1
 167 109 l 2
 167 92 179 77 200 77 c 0
 217 77 230 89 230 109 c 0
 230 128 216 140 199 140 c 0
 189 140 178 137 167 133 c 1
EndSplineSet
EndChar

StartChar: uni0EDC
Encoding: 158 3804 63
Width: 1248
GlyphClass: 2
Flags: W
HStem: 0 84<255.515 417.569 610.004 714.869 898.019 1051.67> 363 72<130.667 159.591 397.472 453.415> 474 83<633.623 726.064> 494 64<129.063 179.816 397.192 448.943>
VStem: 49 79<436.016 492.418> 96 122<118.816 271.34> 182 113<436.835 493.199> 313 83<435.448 493.109> 454 120<120.723 369> 745 121<119.491 457.192> 1084 116<116.797 554>
AnchorPoint: "ldia" 855 0 basechar 0
AnchorPoint: "cbelow" 885 0 basechar 0
AnchorPoint: "udia" 600 600 basechar 0
AnchorPoint: "cabove" 690 600 basechar 0
LayerCount: 2
Fore
SplineSet
866 228 m 2xe5e0
 866 126 890 83 970 83 c 0
 1053 83 1084 114 1084 212 c 2
 1084 529 l 2
 1084 557 1116 558 1141 558 c 0xd5e0
 1167 558 1200 556 1200 529 c 2
 1200 218 l 2
 1200 46 1089 0 969 0 c 0
 895 0 833 28 808 89 c 1
 779 21 719 0 632 0 c 0
 618 0 608 7 608 39 c 0
 608 73 616 84 633 84 c 0
 734 84 745 128 745 234 c 2
 745 329 l 2
 745 404 741 474 689 474 c 0
 664 474 623 446 574 418 c 1
 574 223 l 2
 574 87 502 0 351 0 c 0
 235 0 96 34 96 181 c 0xe5e0
 96 259 135 313 160 369 c 1
 155 368 151 369 146 369 c 0
 90 369 49 408 49 464 c 0
 49 527 100 558 164 558 c 0
 247 558 295 509 295 441 c 0xdbe0
 295 352 218 272 218 178 c 0
 218 104 277 84 349 84 c 0
 415 84 454 115 454 211 c 2
 454 369 l 1
 441 366 429 363 416 363 c 0
 362 363 313 399 313 460 c 0
 313 517 347 558 430 558 c 0xd5e0
 479 558 524 538 550 502 c 1
 594 530 643 557 689 557 c 0
 791 557 866 507 866 334 c 2
 866 228 l 2xe5e0
454 444 m 1
 454 473 444 494 423 494 c 0
 405 494 396 485 396 464 c 0
 396 445 403 435 421 435 c 0
 431 435 442 439 454 444 c 1
182 442 m 1xdbe0
 182 447 182 451 182 456 c 0
 182 485 171 494 155 494 c 0
 139 494 128 484 128 466 c 0
 128 446 137 435 154 435 c 0
 163 435 173 438 182 442 c 1xdbe0
EndSplineSet
EndChar

StartChar: uni0EDD
Encoding: 159 3805 64
Width: 1329
GlyphClass: 2
Flags: W
HStem: 0 84<255.515 418.497 905.036 1039.37> 0 77<694.105 751.614> 141 80<692.446 753.531> 363 72<130.667 159.591 397.472 453.391> 474 84<651.036 748.886> 494 64<129.063 179.816 397.192 449.667>
VStem: 49 79<436.016 492.418> 96 122<118.816 271.34> 182 113<436.835 493.199> 313 83<435.448 493.109> 454 120<120.723 369> 609 82<79.6455 138.54> 754 119<113.3 139.889 216 469.823> 1063 119<108.745 552.625>
AnchorPoint: "ldia" 855 0 basechar 0
AnchorPoint: "cbelow" 885 0 basechar 0
AnchorPoint: "udia" 600 600 basechar 0
AnchorPoint: "cabove" 690 600 basechar 0
LayerCount: 2
Fore
SplineSet
722 141 m 0x707c
 706 141 691 128 691 111 c 0
 691 93 702 77 723 77 c 0
 746 77 754 96 754 116 c 2
 754 131 l 1
 744 137 733 141 722 141 c 0x707c
847 46 m 1
 824 14 787 0 735 0 c 0x717c
 651 0 609 49 609 122 c 0
 609 179 671 221 722 221 c 0
 733 221 744 219 754 216 c 1
 754 417 l 2
 754 471 732 474 714 474 c 0
 684 474 633 442 574 412 c 1
 574 223 l 2
 574 87 502 0 351 0 c 0
 235 0 96 34 96 181 c 0xb97c
 96 259 135 313 160 369 c 1
 155 368 151 369 146 369 c 0
 90 369 49 408 49 464 c 0
 49 527 100 558 164 558 c 0
 247 558 295 509 295 441 c 0xb6fc
 295 352 218 272 218 178 c 0
 218 104 277 84 349 84 c 0
 415 84 454 114 454 211 c 2
 454 369 l 1
 441 367 428 363 416 363 c 0
 362 363 313 399 313 460 c 0
 313 517 347 558 430 558 c 0
 483 558 531 535 556 494 c 1xb57c
 615 526 679 558 731 558 c 0
 830 558 873 492 873 398 c 2
 873 150 l 2
 873 143 872 136 872 130 c 1
 902 105 934 84 976 84 c 0
 1055 84 1063 134 1063 188 c 2
 1063 522 l 2
 1063 557 1101 557 1123 557 c 2
 1127 557 l 2
 1151 557 1182 556 1182 522 c 2
 1182 206 l 2
 1182 74 1111 0 989 0 c 0xb97c
 925 0 881 20 847 46 c 1
454 443 m 1
 454 473 444 494 423 494 c 0x347c
 405 494 396 485 396 464 c 0
 396 445 403 435 421 435 c 0
 430 435 441 438 454 443 c 1
182 442 m 1x36fc
 182 447 182 451 182 456 c 0
 182 485 171 494 155 494 c 0
 139 494 128 484 128 466 c 0
 128 446 137 435 154 435 c 0
 163 435 173 438 182 442 c 1x36fc
EndSplineSet
EndChar

StartChar: uni0E81
Encoding: 160 3713 65
Width: 717
GlyphClass: 2
Flags: W
HStem: 0 77<132.638 191.796> 140 80<132.71 193.507> 337 80<133.427 193.508> 480 78<133.877 191.562 377.139 508.865>
VStem: 49 82<78.1063 138.265 418.945 477.545> 194 119<80.265 139.018 215 341 417.879 431.956> 550 119<4.28465 440.297>
AnchorPoint: "ldia" 490 0 basechar 0
AnchorPoint: "cbelow" 480 0 basechar 0
AnchorPoint: "udia" 341 600 basechar 0
AnchorPoint: "cabove" 390 600 basechar 0
LayerCount: 2
Fore
SplineSet
293 503 m 1
 335 533 387 558 456 558 c 0
 570 558 669 506 669 331 c 2
 669 35 l 2
 669 1 636 0 610 0 c 1
 585 -0.265029 550 0.0241059 550 35 c 1
 550 345 l 2
 550 422 531 474 445 474 c 0
 391 474 351 446 313 415 c 1
 313 174 l 2
 313 70 273 0 173 0 c 0
 96 0 49 46 49 109 c 0
 49 174 96 220 163 220 c 0
 173 220 184 218 194 215 c 1
 194 341 l 1
 184 339 173 337 162 337 c 0
 94 337 49 388 49 446 c 0
 49 507 92 558 174 558 c 0
 228 558 270 540 293 503 c 1
194 426 m 1
 194 442 l 2
 194 464 184 480 162 480 c 0
 142 480 131 465 131 447 c 0
 131 431 144 417 163 417 c 0
 173 417 183 420 194 426 c 1
194 133 m 1
 183 137 171 140 162 140 c 0
 146 140 131 128 131 109 c 0
 131 89 144 77 161 77 c 0
 182 77 194 92 194 109 c 2
 194 133 l 1
EndSplineSet
EndChar

StartChar: exclam
Encoding: 2 33 67
Width: 267
GlyphClass: 2
Flags: W
HStem: -20 155<79.7383 188.262>
VStem: 55 158<5.43567 109.414> 81 106<371.721 781.031>
LayerCount: 2
Fore
SplineSet
134 794 m 0xa0
 192 794 187 719 187 639 c 0
 187 496 175 352 162 261 c 0
 155 211 152 196 134 196 c 0
 116 196 112 211 106 262 c 1
 93 352 81 496 81 639 c 0
 81 708 74 794 134 794 c 0xa0
213 57 m 0xc0
 213 15 177 -20 134 -20 c 0
 91 -20 55 15 55 57 c 0
 55 100 91 135 134 135 c 0
 177 135 213 100 213 57 c 0xc0
EndSplineSet
EndChar

StartChar: quotedbl
Encoding: 3 34 68
Width: 433
GlyphClass: 2
Flags: W
HStem: 376 252<82 156 275.672 350>
VStem: 82 74<376 456.182> 276 74<376 456.182>
LayerCount: 2
Fore
SplineSet
178 628 m 1
 156 376 l 1
 82 376 l 1
 75 460 68 544 61 628 c 1
 178 628 l 1
372 628 m 1
 350 376 l 1
 276 376 l 1
 269 460 262 544 254 628 c 1
 372 628 l 1
EndSplineSet
EndChar

StartChar: numbersign
Encoding: 4 35 69
Width: 542
GlyphClass: 2
Flags: W
HStem: 85 92<54 122 225 295 398 488> 258 91<54 144 247 316 420 488>
VStem: 107 92<-24 68> 173 91<383 474> 280 92<-24 68> 346 91<383 474>
DStem2: 107 -24 199 -24 0.131381 0.991332<12.0871 110.026 214.761 284.417 388.16 502.354> 280 -24 372 -24 0.131381 0.991332<12.0871 110.026 214.761 284.285 388.16 502.354>
LayerCount: 2
Fore
SplineSet
316 258 m 1xc0
 235 258 l 1
 231 231 228 204 225 177 c 1
 307 177 l 1
 310 204 313 231 316 258 c 1xc0
488 85 m 1
 386 85 l 1
 381 48 377 12 372 -24 c 1
 280 -24 l 1
 295 85 l 1
 213 85 l 1
 208 48 203 12 199 -24 c 1
 107 -24 l 1xe8
 122 85 l 1
 54 85 l 1
 54 177 l 1
 134 177 l 1
 137 204 140 231 144 258 c 1
 54 258 l 1
 54 349 l 1
 155 349 l 1
 173 474 l 1
 264 474 l 1
 247 349 l 1
 328 349 l 1
 346 474 l 1
 437 474 l 1xd4
 431 432 425 391 420 349 c 1
 488 349 l 1
 488 258 l 1
 408 258 l 1
 404 231 402 204 398 177 c 1
 488 177 l 1
 488 85 l 1
EndSplineSet
EndChar

StartChar: dollar
Encoding: 5 36 70
Width: 495
GlyphClass: 2
Flags: W
HStem: -13 93<170.83 226 270 329.498> 542 91<172.444 226 270 322.02>
VStem: 26 108<114.886 192> 40 106<406.898 517.863> 226 44<-90 -11.1736 81 262 377 542 634 691> 341 108<453 521.444> 362 106<111.757 224.51>
LayerCount: 2
Fore
SplineSet
362 168 m 0xca
 362 222 329 243 270 262 c 1
 270 81 l 1
 322 87 362 112 362 168 c 0xca
226 377 m 1
 226 542 l 1
 163 533 146 501 146 457 c 0xd8
 146 413 173 396 226 377 c 1
468 178 m 0xca
 468 58 369 -2 270 -12 c 1
 270 -90 l 1
 226 -90 l 1
 226 -13 l 1
 100 -3 26 71 26 192 c 1
 134 192 l 1xea
 134 127 161 86 226 80 c 1
 226 273 l 1
 122 304 40 328 40 448 c 0
 40 555 128 633 226 633 c 1
 226 691 l 1
 270 691 l 1
 270 634 l 1
 378 634 449 558 449 453 c 1
 341 453 l 1xdc
 341 511 320 538 270 544 c 1
 270 363 l 1
 363 337 468 313 468 178 c 0xca
EndSplineSet
EndChar

StartChar: percent
Encoding: 6 37 71
Width: 726
GlyphClass: 2
Flags: W
HStem: -49 75<505.476 585.156> 137 76<505.476 586.63> 209 75<138.73 221.08> 394 76<138.986 219.206>
VStem: 51 75<295.559 380.954> 232 77<294.769 382.877> 417 76<38.1959 124.241> 599 76<38.6195 123.821>
DStem2: 153 -8 223 -67 0.576877 0.816831<0 600.637>
LayerCount: 2
Fore
SplineSet
599 82 m 0xdf
 599 110 573 137 547 137 c 0
 516 137 493 110 493 82 c 0
 493 53 516 26 547 26 c 0
 573 26 599 53 599 82 c 0xdf
232 338 m 0
 232 367 208 394 181 394 c 0
 150 394 126 367 126 338 c 0
 126 309 151 284 181 284 c 0xbf
 208 284 232 309 232 338 c 0
675 82 m 0
 675 14 615 -49 547 -49 c 0
 477 -49 417 14 417 82 c 0
 417 152 477 213 547 213 c 0xdf
 615 213 675 152 675 82 c 0
309 338 m 0
 309 271 250 209 181 209 c 0xbf
 110 209 51 271 51 338 c 0
 51 409 110 470 181 470 c 0
 250 470 309 409 309 338 c 0
574 430 m 1
 223 -67 l 1
 153 -8 l 1
 500 485 l 1
 574 430 l 1
EndSplineSet
EndChar

StartChar: ampersand
Encoding: 7 38 72
Width: 680
GlyphClass: 2
Flags: W
HStem: -12 83<212.19 385.024> 0 21G<508.4 672> 561 79<224.576 335.534>
VStem: 48 112<118.861 245.857> 105 104<444.542 543.76> 353 95<453.905 541.956> 481 110<199.939 339>
DStem2: 464 189 411 112 0.7282 -0.685365<-210.334 0 101.326 177.595>
LayerCount: 2
Fore
SplineSet
160 182 m 0xb6
 160 118 219 64 298 71 c 1
 345 72 383 85 411 112 c 1
 338 177 277 240 230 297 c 1
 187 266 160 221 160 182 c 0xb6
353 505 m 0
 353 531 319 561 285 561 c 0
 237 561 209 534 209 501 c 0x2e
 209 474 229 440 266 399 c 1
 310 425 353 466 353 505 c 0
672 0 m 1x6e
 530 0 l 1x6e
 476 50 l 1
 433 12 367 -12 283 -12 c 0
 165 -12 48 46 48 173 c 0xb6
 48 264 98 321 181 360 c 1
 132 402 105 452 105 508 c 0
 105 598 198 640 278 640 c 0
 361 640 448 602 448 519 c 0
 448 431 377 384 317 344 c 1
 356 294 405 244 464 189 c 1
 481 235 485 284 481 339 c 1
 591 339 l 1
 587 260 572 185 539 118 c 1
 564 86 619 38 672 0 c 1x6e
EndSplineSet
EndChar

StartChar: quotesingle
Encoding: 8 39 73
Width: 345
GlyphClass: 2
Flags: W
HStem: 376 252<135 210.283>
VStem: 135 75<376 456.182>
LayerCount: 2
Fore
SplineSet
231 628 m 1
 224 544 216 460 210 376 c 1
 135 376 l 1
 113 628 l 1
 231 628 l 1
EndSplineSet
EndChar

StartChar: parenleft
Encoding: 9 40 74
Width: 431
GlyphClass: 2
Flags: W
VStem: 72 91<-7.57536 438.294> 282 105<-453 -348 790 895>
LayerCount: 2
Fore
SplineSet
387 -453 m 1
 282 -453 l 1
 130 -264 72 -44 72 215 c 0
 72 477 142 694 285 895 c 1
 387 895 l 1
 237 687 163 460 163 215 c 0
 163 -29 233 -262 387 -453 c 1
EndSplineSet
EndChar

StartChar: parenright
Encoding: 10 41 75
Width: 432
GlyphClass: 2
Flags: W
VStem: 44 105<-450 -345 794 899> 269 91<-3.2613 442.072>
LayerCount: 2
Fore
SplineSet
360 219 m 0
 360 -40 301 -260 149 -450 c 1
 44 -450 l 1
 201 -259 269 -23 269 219 c 0
 269 463 195 691 44 899 c 1
 147 899 l 1
 289 698 360 481 360 219 c 0
EndSplineSet
EndChar

StartChar: asterisk
Encoding: 11 42 76
Width: 555
GlyphClass: 2
Flags: W
VStem: 233 92<220 370 531 680>
DStem2: 104 604 54 526 0.864485 -0.502658<0 146.484 308.673 457.445> 54 374 104 294 0.866366 0.499409<2.81187 153.082 313.192 460.544>
LayerCount: 2
Fore
SplineSet
500 375 m 1
 453 294 l 1
 325 370 l 1
 325 220 l 1
 233 220 l 1
 233 370 l 1
 104 294 l 1
 87 320 70 347 54 374 c 1
 187 450 l 1
 54 526 l 1
 104 604 l 1
 231 531 l 1
 231 680 l 1
 325 680 l 1
 325 531 l 1
 453 604 l 1
 500 525 l 1
 370 450 l 1
 500 375 l 1
EndSplineSet
EndChar

StartChar: plus
Encoding: 12 43 77
Width: 564
GlyphClass: 2
Flags: W
HStem: 173 92<91 237 328 474>
VStem: 237 91<27 173 265 412>
LayerCount: 2
Fore
SplineSet
474 265 m 1
 474 173 l 1
 328 173 l 1
 328 27 l 1
 237 27 l 1
 237 173 l 1
 91 173 l 1
 91 265 l 1
 237 265 l 1
 237 412 l 1
 328 412 l 1
 328 265 l 1
 474 265 l 1
EndSplineSet
EndChar

StartChar: comma
Encoding: 13 44 78
Width: 244
GlyphClass: 2
Flags: W
HStem: -5 153<67.6969 136.417>
VStem: 138 66<-35.686 83.5>
LayerCount: 2
Fore
SplineSet
204 61 m 0
 204 -29 148 -113 93 -144 c 1
 89 -139 85 -135 81 -130 c 1
 111 -106 138 -57 138 -5 c 0
 138 7 138 11 137 17 c 1
 125 9 85 -5 68 -5 c 0
 52 -5 39 25 39 61 c 0
 39 108 77 148 120 148 c 0
 170 148 204 106 204 61 c 0
EndSplineSet
EndChar

StartChar: hyphen
Encoding: 14 45 79
Width: 491
GlyphClass: 2
Flags: W
HStem: 169 92<54 436>
LayerCount: 2
Fore
SplineSet
436 261 m 1
 436 169 l 1
 54 169 l 1
 54 261 l 1
 436 261 l 1
EndSplineSet
EndChar

StartChar: period
Encoding: 15 46 80
Width: 238
GlyphClass: 2
Flags: W
HStem: -20 155<64.7852 173.103>
VStem: 39 160<5.43567 109.414>
LayerCount: 2
Fore
SplineSet
199 57 m 0
 199 15 160 -20 120 -20 c 0
 77 -20 39 15 39 57 c 0
 39 100 77 135 120 135 c 0
 160 135 199 100 199 57 c 0
EndSplineSet
EndChar

StartChar: slash
Encoding: 16 47 81
Width: 525
GlyphClass: 2
Flags: W
DStem2: 54 -178 125 -249 0.329967 0.943992<0 1001.96>
LayerCount: 2
Fore
SplineSet
470 738 m 1
 355 409 240 80 125 -249 c 1
 54 -178 l 1
 169 150 284 478 399 806 c 1
 470 738 l 1
EndSplineSet
EndChar

StartChar: zero
Encoding: 17 48 82
Width: 495
GlyphClass: 2
Flags: W
HStem: -13 82<194.217 301.067> 558 82<192.878 302.379>
VStem: 35 111<142.935 491.75> 348 112<142.935 492.1>
LayerCount: 2
Fore
SplineSet
348 318 m 0
 348 439 341 558 248 558 c 0
 153 558 146 437 146 318 c 0
 146 199 153 69 248 69 c 0
 341 69 348 199 348 318 c 0
460 318 m 0
 460 124 404 -13 248 -13 c 0
 91 -13 35 124 35 318 c 0
 35 513 91 640 248 640 c 0
 404 640 460 513 460 318 c 0
EndSplineSet
EndChar

StartChar: one
Encoding: 18 49 83
Width: 495
GlyphClass: 2
Flags: W
HStem: 0 21G<240 345> 608 20G<224 345>
VStem: 240 105<0 511>
LayerCount: 2
Fore
SplineSet
345 0 m 1
 240 0 l 1
 240 511 l 1
 196 474 148 447 94 432 c 1
 94 527 l 1
 155 550 205 585 243 628 c 1
 345 628 l 1
 345 0 l 1
EndSplineSet
EndChar

StartChar: two
Encoding: 19 50 84
Width: 495
GlyphClass: 2
Flags: W
HStem: 0 89<158 459> 552 88<202.741 318.719>
VStem: 55 113<456 514.942> 347 112<385.395 523.042>
LayerCount: 2
Fore
SplineSet
459 0 m 1
 36 0 l 1
 36 102 l 1
 312 309 347 407 347 458 c 0
 347 512 316 552 263 552 c 0
 208 552 171 515 168 456 c 1
 55 456 l 1
 57 569 147 640 261 640 c 0
 379 640 459 565 459 465 c 0
 459 374 416 275 158 89 c 1
 459 89 l 1
 459 0 l 1
EndSplineSet
EndChar

StartChar: three
Encoding: 20 51 85
Width: 495
GlyphClass: 2
Flags: W
HStem: -13 87<185.55 306.276> 284 86<196 295.666> 554 86<186.259 302.985>
VStem: 40 114<106.306 173 463 520.553> 329 111<400.389 527.323> 342 112<111.219 251.246>
LayerCount: 2
Fore
SplineSet
454 174 m 0xf4
 454 64 355 -13 247 -13 c 0
 106 -13 40 60 40 173 c 1
 154 173 l 1
 156 118 185 74 242 74 c 0
 299 74 342 114 342 178 c 0xf4
 342 269 293 284 196 284 c 1
 196 370 l 1
 281 371 329 391 329 463 c 0
 329 526 289 554 244 554 c 0
 192 554 159 521 155 463 c 1
 45 463 l 1
 49 574 126 640 246 640 c 0
 363 640 440 566 440 465 c 0xf8
 440 386 393 351 340 328 c 1
 402 307 454 270 454 174 c 0xf4
EndSplineSet
EndChar

StartChar: four
Encoding: 21 52 86
Width: 495
GlyphClass: 2
Flags: W
HStem: 0 21G<290 395> 143 90<116 290 395 473> 608 20G<249.316 395>
VStem: 290 105<0 143 233 519>
DStem2: 21 248 116 233 0.535581 0.844484<38.2129 372.926>
LayerCount: 2
Fore
SplineSet
290 233 m 1
 290 519 l 1
 116 233 l 1
 290 233 l 1
473 143 m 1
 395 143 l 1
 395 0 l 1
 290 0 l 1
 290 143 l 1
 21 143 l 1
 21 248 l 1
 262 628 l 1
 395 628 l 1
 395 233 l 1
 473 233 l 1
 473 143 l 1
EndSplineSet
EndChar

StartChar: five
Encoding: 22 53 87
Width: 495
GlyphClass: 2
Flags: W
HStem: -12 87<168.781 297.764> 331 81<189.692 313.811> 537 91<167 421>
VStem: 37 109<100.928 157> 346 111<127.053 297.614>
LayerCount: 2
Fore
SplineSet
457 216 m 0
 457 91 363 -12 241 -12 c 0
 122 -12 42 48 37 157 c 1
 146 157 l 1
 146 101 180 75 237 75 c 0
 306 75 346 135 346 210 c 0
 346 287 317 331 251 331 c 0
 198 331 171 305 146 256 c 1
 47 256 l 1
 52 380 57 504 62 628 c 1
 421 628 l 1
 421 537 l 1
 167 537 l 1
 158 362 l 1
 184 395 223 412 285 412 c 0
 392 412 457 317 457 216 c 0
EndSplineSet
EndChar

StartChar: six
Encoding: 23 54 88
Width: 495
GlyphClass: 2
Flags: W
HStem: -13 87<193.941 315.568> 316 81<197.893 316.141> 554 86<208.897 316.009>
VStem: 33 127<121.369 377.178> 33 109<320 457.143> 339 109<474 531.622> 348 114<108.751 283.405>
LayerCount: 2
Fore
SplineSet
348 195 m 0xf2
 348 275 318 316 254 316 c 0
 189 316 160 275 160 195 c 0
 160 116 189 74 254 74 c 0
 318 74 348 116 348 195 c 0xf2
462 204 m 0
 462 107 407 -13 249 -13 c 0
 72 -13 33 123 33 290 c 0xf2
 33 451 72 640 260 640 c 0
 366 640 437 577 448 474 c 1
 339 474 l 1
 337 525 306 554 262 554 c 0
 161 554 142 389 142 320 c 1xec
 173 364 207 397 287 397 c 0
 413 397 462 291 462 204 c 0
EndSplineSet
EndChar

StartChar: seven
Encoding: 24 55 89
Width: 495
GlyphClass: 2
Flags: W
HStem: 0 21G<114 250.147> 538 90<43 348>
LayerCount: 2
Fore
SplineSet
453 518 m 1
 242 0 l 1
 114 0 l 1
 348 538 l 1
 43 538 l 1
 43 628 l 1
 453 628 l 1
 453 518 l 1
EndSplineSet
EndChar

StartChar: eight
Encoding: 25 56 90
Width: 495
GlyphClass: 2
Flags: W
HStem: -12 86<182.815 311.441> 290 87<187.879 307.724> 554 86<187.023 308.783>
VStem: 33 113<112.209 252.043> 46 114<404.42 527.011> 336 114<404.615 526.844> 350 112<112.304 250.796>
LayerCount: 2
Fore
SplineSet
350 183 m 0xf2
 350 243 313 290 248 290 c 0
 183 290 146 241 146 183 c 0
 146 122 182 74 248 74 c 0
 316 74 350 124 350 183 c 0xf2
336 466 m 0xec
 336 521 301 554 248 554 c 0
 194 554 160 521 160 466 c 0
 160 410 197 377 248 377 c 0
 298 377 336 410 336 466 c 0xec
462 162 m 0xe2
 462 33 351 -12 248 -12 c 0
 139 -12 33 35 33 162 c 0xf2
 33 262 93 312 151 335 c 1
 97 356 46 398 46 481 c 0
 46 599 151 640 248 640 c 0
 345 640 450 602 450 479 c 0xec
 450 400 391 356 337 335 c 1
 395 316 462 264 462 162 c 0xe2
EndSplineSet
EndChar

StartChar: nine
Encoding: 26 57 91
Width: 495
GlyphClass: 2
Flags: W
HStem: -13 87<178.461 288.622> 231 80<178.5 296.517> 554 86<179.48 301.168>
VStem: 33 114<343.86 519.567> 46 109<97.4322 154> 335 127<250.044 505.43> 353 109<170.301 306>
LayerCount: 2
Fore
SplineSet
335 432 m 0xf4
 335 512 305 554 240 554 c 0
 176 554 147 512 147 432 c 0
 147 353 176 311 240 311 c 0
 305 311 335 353 335 432 c 0xf4
462 337 m 0
 462 177 418 -13 234 -13 c 0
 134 -13 51 54 46 154 c 1
 155 154 l 1
 157 101 189 74 233 74 c 0
 333 74 353 234 353 306 c 1xea
 324 259 273 231 208 231 c 0
 73 231 33 345 33 423 c 0
 33 524 92 640 245 640 c 0
 429 640 462 496 462 337 c 0
EndSplineSet
EndChar

StartChar: colon
Encoding: 27 58 92
Width: 238
GlyphClass: 2
Flags: W
HStem: -20 155<64.7852 173.103> 297 156<64.7852 173.103>
VStem: 39 160<5.98248 109.961 322.586 427.414>
LayerCount: 2
Fore
SplineSet
199 58 m 0
 199 16 160 -20 120 -20 c 0
 77 -20 39 16 39 58 c 0
 39 101 77 135 120 135 c 0
 160 135 199 101 199 58 c 0
199 375 m 0
 199 332 160 297 120 297 c 0
 77 297 39 332 39 375 c 0
 39 418 77 453 120 453 c 0
 160 453 199 418 199 375 c 0
EndSplineSet
EndChar

StartChar: semicolon
Encoding: 28 59 93
Width: 240
GlyphClass: 2
Flags: W
HStem: -6 143<64.5222 131.052> 297 156<64.7852 173.103>
VStem: 39 155<17.6073 110.966 322.982 427.414> 133 61<-35.9342 75>
LayerCount: 2
Fore
SplineSet
194 54 m 0xe0
 194 -25 142 -97 94 -129 c 1
 88 -124 83 -119 77 -115 c 1
 105 -94 133 -49 133 1 c 0xd0
 133 5 133 11 132 15 c 1
 112 6 77 -6 67 -6 c 0
 57 -6 39 14 39 57 c 0
 39 98 74 137 115 137 c 0
 162 137 194 96 194 54 c 0xe0
199 375 m 0
 199 333 160 297 120 297 c 0
 77 297 39 333 39 375 c 0xe0
 39 418 77 453 120 453 c 0
 160 453 199 418 199 375 c 0
EndSplineSet
EndChar

StartChar: less
Encoding: 29 60 94
Width: 870
GlyphClass: 2
Flags: W
VStem: 174 111<176.5 343.5>
DStem2: 174 288 285 261 0.934175 0.356815<94.0594 531.664> 285 261 174 232 0.934175 -0.356815<0 437.604>
LayerCount: 2
Fore
SplineSet
695 108 m 1
 695 33 l 1
 174 232 l 1
 174 288 l 1
 695 487 l 1
 695 414 l 1
 285 261 l 1
 695 108 l 1
EndSplineSet
EndChar

StartChar: equal
Encoding: 30 61 95
Width: 572
GlyphClass: 2
Flags: W
HStem: 76 91<34 538> 268 91<34 538>
LayerCount: 2
Fore
SplineSet
538 359 m 1
 538 268 l 1
 34 268 l 1
 34 359 l 1
 538 359 l 1
538 167 m 1
 538 76 l 1
 34 76 l 1
 34 167 l 1
 538 167 l 1
EndSplineSet
EndChar

StartChar: greater
Encoding: 31 62 96
Width: 870
GlyphClass: 2
Flags: W
VStem: 585 110<177 343>
DStem2: 174 487 174 414 0.934175 -0.356815<26.0475 464.586> 174 108 174 33 0.934175 0.356815<0 438.539>
LayerCount: 2
Fore
SplineSet
695 288 m 1
 695 232 l 1
 174 33 l 1
 174 108 l 1
 311 159 448 210 585 261 c 1
 174 414 l 1
 174 487 l 1
 695 288 l 1
EndSplineSet
EndChar

StartChar: question
Encoding: 32 63 97
Width: 437
GlyphClass: 2
Flags: W
HStem: -7 122<154.388 247.033> 662 93<147.361 254.957>
VStem: 19 91<542 625.237> 139 124<8.96701 99.8183> 155 91<195 392.594> 292 91<510.419 625.082>
LayerCount: 2
Fore
SplineSet
383 570 m 0xec
 383 420 246 438 246 338 c 2
 246 195 l 1
 155 195 l 1
 155 353 l 2
 155 473 292 468 292 570 c 0
 292 616 247 662 201 662 c 0
 148 662 110 611 110 564 c 2
 110 542 l 1
 19 542 l 1
 19 564 l 2
 19 640 82 755 201 755 c 0
 312 755 383 662 383 570 c 0xec
263 56 m 0xf4
 263 20 233 -7 200 -7 c 0
 165 -7 139 23 139 56 c 0
 139 89 165 115 200 115 c 0
 233 115 263 89 263 56 c 0xf4
EndSplineSet
EndChar

StartChar: at
Encoding: 33 64 98
Width: 894
GlyphClass: 2
Flags: W
HStem: -175 95<335.874 634.831> 12 81<385.918 491.555 642.534 712.55> 355 80<389.445 491.921> 542 92<345.05 577.523>
VStem: 40 108<111.167 342.6> 241 110<132.274 313.04> 531 106<139 319.706 378 425> 745 108<144.125 371.201>
LayerCount: 2
Fore
SplineSet
530 230 m 0
 530 308 502 355 441 355 c 0
 376 355 351 281 351 224 c 0
 351 164 373 93 439 93 c 0
 506 93 530 170 530 230 c 0
853 264 m 0
 853 144 790 8 670 8 c 0
 611 8 571 33 547 82 c 1
 514 36 474 12 420 12 c 0
 313 12 241 112 241 221 c 0
 241 337 306 435 414 435 c 0
 461 435 497 419 531 378 c 1
 531 425 l 1
 637 425 l 1
 637 136 l 2
 637 104 660 94 678 94 c 0
 712 94 745 147 745 241 c 0
 745 434 635 542 456 542 c 0
 285 542 148 413 148 223 c 0
 148 48 280 -80 444 -80 c 0
 532 -80 588 -74 639 -57 c 1
 639 -158 l 1
 563 -172 516 -175 473 -175 c 0
 240 -175 40 -41 40 231 c 0
 40 477 238 634 458 634 c 0
 684 634 853 490 853 264 c 0
EndSplineSet
EndChar

StartChar: A
Encoding: 34 65 99
Width: 629
GlyphClass: 2
Flags: W
HStem: 0 21G<10 132.448 495.276 619> 145 90<215 410> 608 20G<246.229 380.834>
DStem2: 10 0 125 0 0.36216 0.932116<41.6484 196.362 293.29 576.725> 373 628 313 501 0.364735 -0.931111<96.3671 96.3671 476.717 632.154>
LayerCount: 2
Fore
SplineSet
410 235 m 1
 313 501 l 1
 215 235 l 1
 410 235 l 1
619 0 m 1
 503 0 l 1
 447 145 l 1
 179 145 l 1
 125 0 l 1
 10 0 l 1
 254 628 l 1
 373 628 l 1
 619 0 l 1
EndSplineSet
EndChar

StartChar: B
Encoding: 35 66 100
Width: 586
GlyphClass: 2
Flags: W
HStem: 0 92<179 377.086> 281 89<179 361.463> 536 92<179 361.318>
VStem: 65 114<92 281 370 536> 395 114<401.679 506.732> 419 118<129.498 243.537>
LayerCount: 2
Fore
SplineSet
419 186 m 0xf4
 419 254 358 281 285 281 c 2
 179 281 l 1
 179 92 l 1
 286 92 l 2
 361 92 419 122 419 186 c 0xf4
395 453 m 0xf8
 395 506 351 536 287 536 c 2
 179 536 l 1
 179 370 l 1
 280 370 l 2
 349 370 395 402 395 453 c 0xf8
537 166 m 0xf4
 537 62 425 0 333 0 c 2
 65 0 l 1
 65 628 l 1
 320 628 l 2
 420 628 509 578 509 474 c 0xf8
 509 395 452 353 390 328 c 1
 474 304 537 259 537 166 c 0xf4
EndSplineSet
EndChar

StartChar: C
Encoding: 36 67 101
Width: 620
GlyphClass: 2
Flags: W
HStem: -13 93<242.728 399.89> 439 21G<447 564> 550 90<244.174 405.487>
VStem: 48 119<168.893 452.81> 447 124<131.804 197> 451 113<439 552>
LayerCount: 2
Fore
SplineSet
571 197 m 1xf8
 561 71 449 -13 318 -13 c 0
 123 -13 48 144 48 312 c 0
 48 488 132 640 319 640 c 0
 477 640 556 565 564 439 c 1
 451 439 l 1xf4
 443 512 404 550 319 550 c 0
 210 550 167 463 167 312 c 0
 167 180 201 108 273 87 c 0
 293 81 316 78 341 80 c 0
 408 85 439 135 447 197 c 1
 571 197 l 1xf8
EndSplineSet
EndChar

StartChar: D
Encoding: 37 68 102
Width: 631
GlyphClass: 2
Flags: W
HStem: 0 92<179 361.418> 536 92<179 364.809>
VStem: 65 114<92 536> 467 115<198.605 428.815>
LayerCount: 2
Fore
SplineSet
467 314 m 0
 467 461 393 536 257 536 c 2
 179 536 l 1
 179 92 l 1
 257 92 l 2
 393 92 467 168 467 314 c 0
582 314 m 0
 582 124 461 0 256 0 c 2
 65 0 l 1
 65 628 l 1
 256 628 l 2
 468 628 582 500 582 314 c 0
EndSplineSet
EndChar

StartChar: E
Encoding: 38 69 103
Width: 539
GlyphClass: 2
Flags: W
HStem: 0 92<176 478> 280 88<176 455> 536 92<176 470>
VStem: 65 111<92 280 368 536>
LayerCount: 2
Fore
SplineSet
478 0 m 1
 65 0 l 1
 65 628 l 1
 470 628 l 1
 470 536 l 1
 176 536 l 1
 176 368 l 1
 455 368 l 1
 455 280 l 1
 176 280 l 1
 176 92 l 1
 478 92 l 1
 478 0 l 1
EndSplineSet
EndChar

StartChar: F
Encoding: 39 70 104
Width: 504
GlyphClass: 2
Flags: W
HStem: 0 21G<65 179> 277 91<179 434> 536 92<179 452>
VStem: 65 114<0 277 368 536>
LayerCount: 2
Fore
SplineSet
434 277 m 1
 179 277 l 1
 179 0 l 1
 65 0 l 1
 65 628 l 1
 452 628 l 1
 452 536 l 1
 179 536 l 1
 179 368 l 1
 434 368 l 1
 434 277 l 1
EndSplineSet
EndChar

StartChar: G
Encoding: 40 71 105
Width: 671
GlyphClass: 2
Flags: W
HStem: -13 93<281.464 487.031> 239 95<366 489> 444 21G<495 613> 547 93<271.75 446.162>
VStem: 48 119<201.815 433.173> 489 117<91.2794 239> 496 117<444 499.691>
LayerCount: 2
Fore
SplineSet
606 28 m 1xfc
 517 2 434 -13 380 -13 c 0
 156 -13 48 131 48 318 c 0
 48 501 178 640 362 640 c 0
 524 640 613 558 613 444 c 1
 496 444 l 1xfa
 494 508 437 547 362 547 c 0
 219 547 167 433 167 315 c 0
 167 181 237 80 375 80 c 0
 403 80 444 85 489 96 c 1
 489 239 l 1
 366 239 l 1
 366 334 l 1
 606 334 l 1
 606 28 l 1xfc
EndSplineSet
EndChar

StartChar: H
Encoding: 41 72 106
Width: 620
GlyphClass: 2
Flags: W
HStem: 0 21G<65 177 442 557> 280 91<177 442> 608 20G<65 177 442 557>
VStem: 65 112<0 280 371 628> 442 115<0 280 371 628>
LayerCount: 2
Fore
SplineSet
557 0 m 1
 442 0 l 1
 442 280 l 1
 177 280 l 1
 177 0 l 1
 65 0 l 1
 65 628 l 1
 177 628 l 1
 177 371 l 1
 442 371 l 1
 442 628 l 1
 557 628 l 1
 557 0 l 1
EndSplineSet
EndChar

StartChar: I
Encoding: 42 73 107
Width: 244
GlyphClass: 2
Flags: W
HStem: 0 21G<65 179> 608 20G<65 179>
VStem: 65 114<0 628>
LayerCount: 2
Fore
SplineSet
179 0 m 1
 65 0 l 1
 65 628 l 1
 179 628 l 1
 179 0 l 1
EndSplineSet
EndChar

StartChar: J
Encoding: 43 74 108
Width: 529
GlyphClass: 2
Flags: W
HStem: -13 93<194.851 318.63> 609 20G<348 465>
VStem: 48 118<107.708 188> 348 117<112.732 629>
LayerCount: 2
Fore
SplineSet
465 186 m 2
 465 64 364 -13 252 -13 c 0
 110 -13 48 61 48 188 c 1
 166 188 l 1
 166 112 198 80 251 80 c 0
 316 80 348 114 348 191 c 2
 348 629 l 1
 465 629 l 1
 465 186 l 2
EndSplineSet
EndChar

StartChar: K
Encoding: 44 75 109
Width: 596
GlyphClass: 2
Flags: W
HStem: 0 21G<65 179 408.688 568> 608 20G<65 179 388.197 540>
VStem: 65 114<0 320 359 628> 405 135<493 628> 424 144<0 144>
DStem2: 179 359 304 350 0.647171 0.762345<74.0352 351.331> 304 350 179 320 0.602188 -0.798355<0 351.687>
LayerCount: 2
Fore
SplineSet
568 0 m 1xe8
 424 0 l 1xe8
 179 320 l 1
 179 0 l 1
 65 0 l 1
 65 628 l 1
 179 628 l 1
 179 359 l 1
 405 628 l 1
 540 628 l 1xf0
 304 350 l 1
 568 0 l 1xe8
EndSplineSet
EndChar

StartChar: L
Encoding: 45 76 110
Width: 484
GlyphClass: 2
Flags: W
HStem: 0 92<179 462> 608 20G<65 179>
VStem: 65 114<92 628>
LayerCount: 2
Fore
SplineSet
462 0 m 1
 65 0 l 1
 65 628 l 1
 179 628 l 1
 179 92 l 1
 462 92 l 1
 462 0 l 1
EndSplineSet
EndChar

StartChar: M
Encoding: 46 77 111
Width: 800
GlyphClass: 2
Flags: W
HStem: 0 21G<65 174 338.51 459.503 625 736> 608 20G<65 256.327 543.615 736>
VStem: 65 109<0 527> 625 111<0 529>
DStem2: 250 628 174 527 0.308637 -0.95118<72.6127 493.993> 399 157 453 0 0.309208 0.950994<0 423.651>
LayerCount: 2
Fore
SplineSet
736 0 m 1
 625 0 l 1
 625 529 l 1
 453 0 l 1
 345 0 l 1
 174 527 l 1
 174 0 l 1
 65 0 l 1
 65 628 l 1
 250 628 l 1
 399 157 l 1
 550 630 l 1
 736 630 l 1
 736 0 l 1
EndSplineSet
EndChar

StartChar: N
Encoding: 47 78 112
Width: 655
GlyphClass: 2
Flags: W
HStem: 0 21G<65 174 417.96 592> 608 20G<65 236.98 480 592>
VStem: 65 109<0 506> 480 112<121 628>
DStem2: 227 628 174 506 0.446508 -0.89478<85.4982 566.62>
LayerCount: 2
Fore
SplineSet
592 0 m 1
 428 0 l 1
 174 506 l 1
 174 0 l 1
 65 0 l 1
 65 628 l 1
 227 628 l 1
 480 121 l 1
 480 628 l 1
 592 628 l 1
 592 0 l 1
EndSplineSet
EndChar

StartChar: O
Encoding: 48 79 113
Width: 685
GlyphClass: 2
Flags: W
HStem: -13 93<256.389 428.281> 547 93<251.8 431.232>
VStem: 48 120<183.57 448.204> 517 119<182.066 450.106>
LayerCount: 2
Fore
SplineSet
517 318 m 0
 517 463 467 547 343 547 c 0
 219 547 168 463 168 318 c 0
 168 173 219 80 343 80 c 0
 467 80 517 173 517 318 c 0
636 318 m 0
 636 132 534 -13 343 -13 c 0
 145 -13 48 139 48 318 c 0
 48 504 152 640 343 640 c 0
 540 640 636 496 636 318 c 0
EndSplineSet
EndChar

StartChar: P
Encoding: 49 80 114
Width: 562
GlyphClass: 2
Flags: W
HStem: 0 21G<65 179> 247 93<179 359.358> 536 92<179 356.123>
VStem: 65 114<0 247 340 536> 397 114<375.524 498.495>
LayerCount: 2
Fore
SplineSet
397 437 m 0
 397 510 343 536 251 536 c 2
 179 536 l 1
 179 340 l 1
 251 340 l 2
 339 340 397 362 397 437 c 0
511 437 m 0
 511 291 391 247 272 247 c 2
 179 247 l 1
 179 0 l 1
 65 0 l 1
 65 628 l 1
 272 628 l 2
 398 628 511 578 511 437 c 0
EndSplineSet
EndChar

StartChar: Q
Encoding: 50 81 115
Width: 713
GlyphClass: 2
Flags: W
HStem: -13 93<256.389 430.92> 0 89<555 682> 547 93<251.623 431.232>
VStem: 48 120<183.57 448.204> 517 119<187.293 450.106>
LayerCount: 2
Fore
SplineSet
517 318 m 0xb8
 517 463 467 547 343 547 c 0
 219 547 168 463 168 318 c 0
 168 173 219 80 343 80 c 0
 467 80 517 173 517 318 c 0xb8
682 0 m 1x78
 454 0 l 1x78
 397 -8 362 -13 343 -13 c 0xb8
 145 -13 48 139 48 318 c 0
 48 504 151 640 343 640 c 0
 540 640 636 496 636 318 c 0
 636 225 609 145 555 89 c 1
 682 89 l 1
 682 0 l 1x78
EndSplineSet
EndChar

StartChar: R
Encoding: 51 82 116
Width: 578
GlyphClass: 2
Flags: W
HStem: 0 21G<65 179 404 545> 265 92<179 360.735> 536 92<179 373.079>
VStem: 65 114<0 265 357 536> 413 116<394.571 499.303> 426 119<0 78.9879>
LayerCount: 2
Fore
SplineSet
413 444 m 0xf8
 413 508 353 536 293 536 c 2
 179 536 l 1
 179 357 l 1
 287 357 l 2
 347 357 413 386 413 444 c 0xf8
545 0 m 1xf4
 426 0 l 1xf4
 382 154 411 261 304 264 c 0
 286 265 264 265 242 265 c 2
 179 265 l 1
 179 0 l 1
 65 0 l 1
 65 628 l 1
 293 628 l 2
 450 628 529 576 529 458 c 0xf8
 529 384 463 341 402 315 c 1
 442 305 475 291 492 252 c 1
 514 196 516 62 545 0 c 1xf4
EndSplineSet
EndChar

StartChar: S
Encoding: 52 83 117
Width: 587
GlyphClass: 2
Flags: W
HStem: -13 93<210.265 383.807> 551 89<215.559 365.501>
VStem: 48 119<125.138 194> 63 113<419.173 515.015> 401 117<458 517.543> 426 112<117.436 220.228>
LayerCount: 2
Fore
SplineSet
538 180 m 0xd4
 538 44 399 -13 286 -13 c 0
 158 -13 48 60 48 194 c 1
 167 194 l 1
 169 118 216 80 288 80 c 0
 346 80 426 100 426 170 c 0xe4
 426 323 63 221 63 453 c 0
 63 573 188 640 293 640 c 0
 412 640 518 586 518 458 c 1
 401 458 l 1xd8
 401 524 349 551 292 551 c 0
 237 551 176 523 176 462 c 0
 176 325 538 409 538 180 c 0xd4
EndSplineSet
EndChar

StartChar: T
Encoding: 53 84 118
Width: 547
GlyphClass: 2
Flags: W
HStem: 0 21G<215 331> 536 92<23 215 331 523>
VStem: 215 116<0 536>
LayerCount: 2
Fore
SplineSet
523 536 m 1
 331 536 l 1
 331 0 l 1
 215 0 l 1
 215 536 l 1
 23 536 l 1
 23 628 l 1
 523 628 l 1
 523 536 l 1
EndSplineSet
EndChar

StartChar: U
Encoding: 54 85 119
Width: 651
GlyphClass: 2
Flags: W
HStem: -13 93<240.951 407.436> 608 20G<65 179 472 589>
VStem: 65 114<149.435 628> 472 117<151.332 628>
LayerCount: 2
Fore
SplineSet
589 265 m 2
 589 83 486 -13 321 -13 c 0
 150 -13 65 91 65 265 c 2
 65 628 l 1
 179 628 l 1
 179 265 l 2
 179 127 234 80 324 80 c 0
 415 80 472 127 472 265 c 2
 472 628 l 1
 589 628 l 1
 589 265 l 2
EndSplineSet
EndChar

StartChar: V
Encoding: 55 86 120
Width: 618
GlyphClass: 2
Flags: W
HStem: 0 21G<230.739 381.452> 608 20G<10 142.004 475.915 608>
DStem2: 135 628 10 628 0.341262 -0.939968<0 523.383> 308 134 374 0 0.34916 0.937063<0 524.012>
LayerCount: 2
Fore
SplineSet
608 628 m 1
 374 0 l 1
 238 0 l 1
 10 628 l 1
 135 628 l 1
 308 134 l 1
 483 628 l 1
 608 628 l 1
EndSplineSet
EndChar

StartChar: W
Encoding: 56 87 121
Width: 862
GlyphClass: 2
Flags: W
HStem: 0 21G<170.713 306.339 554.702 690.318> 608 20G<10 137.5 361.75 500.167 723.458 852>
VStem: 10 123<505 628> 728 124<504 628>
DStem2: 241 148 301 0 0.25791 0.966169<0 376.534> 495 628 431 487 0.256056 -0.966662<119.912 495.749>
LayerCount: 2
Fore
SplineSet
852 628 m 1
 685 0 l 1
 560 0 l 1
 431 487 l 1
 301 0 l 1
 176 0 l 1
 10 628 l 1
 133 628 l 1
 241 148 l 1
 367 628 l 1
 495 628 l 1
 619 148 l 1
 728 628 l 1
 852 628 l 1
EndSplineSet
EndChar

StartChar: X
Encoding: 57 88 122
Width: 607
GlyphClass: 2
Flags: W
HStem: 0 21G<13 160.5 442.908 592> 608 20G<35 182.785 434.489 571>
VStem: 13 121<0 121> 35 135<493 628> 447 124<504 628> 456 136<0 136>
DStem2: 170 628 35 628 0.557746 -0.830011<0 259.857 383.177 680.763> 310 409 367 329 0.563594 0.826052<0 258.118>
LayerCount: 2
Fore
SplineSet
592 0 m 1xc4
 456 0 l 1
 293 249 l 1
 240 166 187 83 134 0 c 1
 13 0 l 1xe4
 235 329 l 1
 35 628 l 1
 170 628 l 1
 310 409 l 1
 447 628 l 1
 571 628 l 1xd8
 367 329 l 1
 592 0 l 1xc4
EndSplineSet
EndChar

StartChar: Y
Encoding: 58 89 123
Width: 573
GlyphClass: 2
Flags: W
HStem: 0 21G<228 344> 608 20G<10 152.507 422.42 562>
VStem: 228 116<0 241>
DStem2: 142 628 10 628 0.490796 -0.871275<0 311.637> 287 352 344 241 0.490796 0.871275<0 312.128>
LayerCount: 2
Fore
SplineSet
562 628 m 1
 344 241 l 1
 344 0 l 1
 228 0 l 1
 228 241 l 1
 10 628 l 1
 142 628 l 1
 287 352 l 1
 433 628 l 1
 562 628 l 1
EndSplineSet
EndChar

StartChar: Z
Encoding: 59 90 124
Width: 546
GlyphClass: 2
Flags: W
HStem: 0 92<171 506> 536 92<58 367>
DStem2: 39 104 171 92 0.604709 0.796446<70.2643 542.409>
LayerCount: 2
Fore
SplineSet
506 0 m 1
 39 0 l 1
 39 104 l 1
 367 536 l 1
 58 536 l 1
 58 628 l 1
 499 628 l 1
 499 523 l 1
 171 92 l 1
 506 92 l 1
 506 0 l 1
EndSplineSet
EndChar

StartChar: bracketleft
Encoding: 60 91 125
Width: 341
GlyphClass: 2
Flags: W
HStem: -173 68<174 263> 560 68<174 263>
VStem: 78 185<-173 -105 560 628> 78 96<-105 560>
LayerCount: 2
Fore
SplineSet
263 -173 m 1xe0
 78 -173 l 1
 78 628 l 1
 263 628 l 1
 263 560 l 1xe0
 174 560 l 1
 174 -105 l 1xd0
 263 -105 l 1
 263 -173 l 1xe0
EndSplineSet
EndChar

StartChar: backslash
Encoding: 61 92 126
Width: 525
GlyphClass: 2
Flags: W
DStem2: 125 806 54 738 0.330819 -0.943694<40.6831 1042.73>
LayerCount: 2
Fore
SplineSet
470 -178 m 1
 400 -249 l 1
 54 738 l 1
 125 806 l 1
 240 478 355 150 470 -178 c 1
EndSplineSet
EndChar

StartChar: bracketright
Encoding: 62 93 127
Width: 341
GlyphClass: 2
Flags: W
HStem: -173 68<78 169> 560 68<78 169>
VStem: 78 185<-173 -105 560 628> 169 94<-105 560>
LayerCount: 2
Fore
SplineSet
263 -173 m 1xe0
 78 -173 l 1
 78 -105 l 1xe0
 169 -105 l 1
 169 560 l 1xd0
 78 560 l 1
 78 628 l 1
 263 628 l 1
 263 -173 l 1xe0
EndSplineSet
EndChar

StartChar: asciicircum
Encoding: 63 94 128
Width: 524
GlyphClass: 2
Flags: W
HStem: 555 276
DStem2: 36 605 85 555 0.707107 0.707107<0 248.902> 262 831 262 731 0.707107 -0.707107<70.7107 319.612>
LayerCount: 2
Fore
SplineSet
488 605 m 1
 438 555 l 1
 262 731 l 1
 85 555 l 1
 36 605 l 1
 262 831 l 1
 488 605 l 1
EndSplineSet
EndChar

StartChar: underscore
Encoding: 64 95 129
Width: 563
GlyphClass: 2
Flags: W
HStem: -175 91<0 563>
LayerCount: 2
Fore
SplineSet
563 -175 m 1
 0 -175 l 1
 0 -84 l 1
 563 -84 l 1
 563 -175 l 1
EndSplineSet
EndChar

StartChar: grave
Encoding: 65 96 130
Width: 213
GlyphClass: 2
Flags: W
HStem: 521 155
VStem: -22 187
LayerCount: 2
Fore
SplineSet
165 521 m 1
 106 521 l 1
 -22 676 l 1
 83 676 l 1
 165 521 l 1
EndSplineSet
EndChar

StartChar: a
Encoding: 66 97 131
Width: 479
GlyphClass: 2
Flags: W
HStem: -12 71<167.835 274.185> 0 21G<336.5 436> 218 62<189.46 318.48> 381 65<181.08 302.487>
VStem: 40 107<79.0605 181.387> 60 104<315 362.298> 319 104<98.5342 217.477 280 362.994>
LayerCount: 2
Fore
SplineSet
319 216 m 1xba
 308 217 291 218 277 218 c 0
 208 218 147 191 147 127 c 0
 147 89 179 59 220 59 c 0
 306 59 319 133 319 216 c 1xba
436 0 m 1x76
 338 0 l 1x76
 335 15 329 39 327 55 c 1
 278 6 249 -12 195 -12 c 0
 114 -12 40 36 40 119 c 0xba
 40 245 156 280 256 280 c 2
 320 280 l 1
 322 341 310 381 241 381 c 0
 191 381 170 360 164 315 c 1
 60 315 l 1
 60 401 136 446 242 446 c 0
 306 446 392 430 413 363 c 1
 421 342 423 302 423 257 c 2
 423 157 l 2
 423 103 426 33 436 0 c 1x76
EndSplineSet
EndChar

StartChar: b
Encoding: 67 98 132
Width: 526
GlyphClass: 2
Flags: W
HStem: -12 71<209.921 328.374> 0 21G<58 163> 380 66<206.792 329.186> 608 20G<58 162>
VStem: 58 104<0 50 115.534 328.055 389 628> 380 107<117.913 318.054>
LayerCount: 2
Fore
SplineSet
380 216 m 0xbc
 380 287 353 380 268 380 c 0
 196 380 162 317 162 219 c 0
 162 141 191 59 269 59 c 0
 344 59 380 134 380 216 c 0xbc
487 219 m 0
 487 77 402 -12 291 -12 c 0xbc
 233 -12 187 14 163 50 c 1
 163 0 l 1
 58 0 l 1x7c
 58 628 l 1
 162 628 l 1
 162 389 l 1
 187 419 227 446 296 446 c 0
 446 446 487 312 487 219 c 0
EndSplineSet
EndChar

StartChar: c
Encoding: 68 99 133
Width: 450
GlyphClass: 2
Flags: W
HStem: -12 69<171.667 282.108> 378 68<175.651 284.03>
VStem: 41 100<90.0921 340.599> 306 105<81.6455 155 288 355.297>
LayerCount: 2
Fore
SplineSet
411 155 m 1
 411 52 357 -12 232 -12 c 0
 104 -12 41 63 41 214 c 0
 41 366 106 446 230 446 c 0
 354 446 412 389 409 288 c 1
 306 288 l 1
 307 351 273 378 232 378 c 0
 172 378 141 340 141 216 c 0
 141 99 165 57 230 57 c 0
 291 57 306 108 306 155 c 1
 411 155 l 1
EndSplineSet
EndChar

StartChar: d
Encoding: 69 100 134
Width: 527
GlyphClass: 2
Flags: W
HStem: -12 72<197.535 311.074> 0 21G<364 468> 380 66<196.559 315.359> 608 20G<364 468>
VStem: 41 104<119.98 319.41> 364 104<0 57 119.356 321.045 390 628>
LayerCount: 2
Fore
SplineSet
364 215 m 0xbc
 364 316 324 380 255 380 c 0
 171 380 145 283 145 214 c 0
 145 140 181 60 256 60 c 0
 334 60 364 151 364 215 c 0xbc
468 0 m 1x7c
 364 0 l 1x7c
 364 57 l 1
 330 15 288 -12 242 -12 c 0xbc
 119 -12 41 89 41 210 c 0
 41 344 106 446 229 446 c 0
 287 446 329 431 364 390 c 1
 364 628 l 1
 468 628 l 1
 468 0 l 1x7c
EndSplineSet
EndChar

StartChar: e
Encoding: 70 101 135
Width: 481
GlyphClass: 2
Flags: W
HStem: -12 68<182.811 300.034> 197 69<149 330> 379 67<183.368 300.53>
VStem: 41 108<101.292 197 266 330.028> 330 111<266 343.9>
LayerCount: 2
Fore
SplineSet
330 266 m 1
 333 334 307 379 241 379 c 0
 178 379 151 330 149 266 c 1
 330 266 l 1
435 136 m 1
 424 47 363 -12 240 -12 c 0
 93 -12 41 98 41 216 c 0
 41 342 103 446 247 446 c 0
 398 446 441 332 441 233 c 0
 441 221 440 209 439 197 c 1
 149 197 l 1
 149 113 168 56 243 56 c 0
 297 56 322 91 327 136 c 1
 435 136 l 1
EndSplineSet
EndChar

StartChar: f
Encoding: 71 102 136
Width: 302
GlyphClass: 2
Flags: W
HStem: 0 21G<89 195> 366 69<9 89 195 290> 566 73<204.84 300.946>
VStem: 89 106<0 366 435 556.012>
LayerCount: 2
Fore
SplineSet
302 554 m 1
 286 562 270 566 253 566 c 0
 209 566 195 546 195 498 c 2
 195 435 l 1
 290 435 l 1
 290 366 l 1
 195 366 l 1
 195 0 l 1
 89 0 l 1
 89 366 l 1
 9 366 l 1
 9 435 l 1
 89 435 l 1
 89 501 l 2
 89 605 134 639 222 639 c 0
 247 639 273 635 302 625 c 1
 302 554 l 1
EndSplineSet
EndChar

StartChar: g
Encoding: 72 103 137
Width: 526
GlyphClass: 2
Flags: W
HStem: -173 67<189.652 326.37> 5 71<192.274 310.897> 379 67<194.36 320.143> 415 20G<363 468>
VStem: 41 104<127.056 322.099> 63 106<-85.7752 -42> 363 105<-66.2656 75 127.753 332.142 393 435>
LayerCount: 2
Fore
SplineSet
364 220 m 0xea
 364 321 330 379 257 379 c 0
 170 379 145 289 145 217 c 0
 145 140 179 76 255 76 c 0
 334 76 364 152 364 220 c 0xea
468 10 m 2
 468 -103 392 -173 254 -173 c 0
 101 -173 63 -98 63 -42 c 1
 169 -42 l 1xd6
 169 -82 207 -106 260 -106 c 0
 340 -106 363 -64 363 75 c 1
 330 29 284 5 238 5 c 0
 112 5 41 87 41 217 c 0
 41 357 115 446 230 446 c 0xea
 292 446 331 429 363 393 c 1
 363 435 l 1
 468 435 l 1xda
 468 10 l 2
EndSplineSet
EndChar

StartChar: h
Encoding: 73 104 138
Width: 512
GlyphClass: 2
Flags: W
HStem: 0 21G<58 163 349 455> 381 65<208.347 319.251> 608 20G<58 163>
VStem: 58 105<0 334.546 386 628> 349 106<0 349.949>
LayerCount: 2
Fore
SplineSet
455 0 m 1
 349 0 l 1
 349 265 l 2
 349 344 317 381 267 381 c 0
 199 381 163 313 163 266 c 2
 163 0 l 1
 58 0 l 1
 58 628 l 1
 163 628 l 1
 163 386 l 1
 192 426 236 446 303 446 c 0
 408 446 455 385 455 288 c 2
 455 0 l 1
EndSplineSet
EndChar

StartChar: i
Encoding: 74 105 139
Width: 288
GlyphClass: 2
Flags: W
HStem: 0 21G<125 230> 415 20G<125 230> 525 103<118 236>
VStem: 118 118<525 628> 125 105<0 435>
LayerCount: 2
Fore
SplineSet
236 628 m 5xf0
 236 525 l 5
 118 525 l 5
 118 628 l 5
 236 628 l 5xf0
125 0 m 5xe8
 125 435 l 5
 230 435 l 5
 230 0 l 5
 125 0 l 5xe8
EndSplineSet
EndChar

StartChar: j
Encoding: 75 106 140
Width: 288
GlyphClass: 2
Flags: W
HStem: -184 90<31.6094 120.356> 415 20G<125 230> 525 103<118 236>
VStem: 118 118<525 628> 125 105<-87.8322 435>
LayerCount: 2
Fore
SplineSet
230 -70 m 6xe8
 230 -135 183 -184 102 -184 c 4
 62 -184 12 -169 -21 -140 c 5
 31 -74 l 5
 44 -86 57 -93 71 -94 c 5
 83 -96 95 -94 104 -88 c 5
 120 -83 125 -68 125 -44 c 6
 125 435 l 5
 230 435 l 5
 230 -70 l 6xe8
236 628 m 5xf0
 236 525 l 5
 118 525 l 5
 118 628 l 5
 236 628 l 5xf0
EndSplineSet
EndChar

StartChar: k
Encoding: 76 107 141
Width: 464
GlyphClass: 2
Flags: W
HStem: 0 21G<58 163 293 450> 415 20G<292.409 435> 608 20G<58 163>
VStem: 58 105<0 228 259 628> 309 126<309 435> 319 131<0 131>
DStem2: 163 259 273 247 0.65278 0.757547<62.7153 228.634> 273 247 163 228 0.582483 -0.812843<0 227.566>
LayerCount: 2
Fore
SplineSet
450 0 m 1xf4
 319 0 l 1xf4
 267 76 215 152 163 228 c 1
 163 0 l 1
 58 0 l 1
 58 628 l 1
 163 628 l 1
 163 259 l 1
 309 435 l 1
 435 435 l 1xf8
 273 247 l 1
 450 0 l 1xf4
EndSplineSet
EndChar

StartChar: l
Encoding: 77 108 142
Width: 219
GlyphClass: 2
Flags: W
HStem: 0 21G<58 163> 608 20G<58 163>
VStem: 58 105<0 628>
LayerCount: 2
Fore
SplineSet
163 0 m 1
 58 0 l 1
 58 628 l 1
 163 628 l 1
 163 0 l 1
EndSplineSet
EndChar

StartChar: m
Encoding: 78 109 143
Width: 789
GlyphClass: 2
Flags: W
HStem: 0 21G<58 163 343 447 626 730> 379 67<212.974 312.87 490.624 595.657> 415 20G<58 163>
VStem: 58 105<0 332.462 374 435> 343 104<0 333.793> 626 104<0 349.178>
LayerCount: 2
Fore
SplineSet
730 0 m 1xdc
 626 0 l 1
 626 279 l 2
 626 335 595 379 544 379 c 0
 489 379 447 319 447 265 c 2
 447 0 l 1
 343 0 l 1
 343 279 l 2
 343 332 312 379 262 379 c 0xdc
 200 379 163 312 163 261 c 2
 163 0 l 1
 58 0 l 1
 58 435 l 1
 163 435 l 1xbc
 163 374 l 1
 197 424 237 446 297 446 c 0
 368 446 404 426 434 367 c 1
 477 428 515 446 579 446 c 0
 691 446 730 370 730 284 c 2
 730 0 l 1xdc
EndSplineSet
EndChar

StartChar: n
Encoding: 79 110 144
Width: 512
GlyphClass: 2
Flags: W
HStem: 0 21G<50 155 341 446> 382 64<198.325 309.18> 415 20G<50 155>
VStem: 50 105<0 337.683 380 435> 341 105<0 348.534>
LayerCount: 2
Fore
SplineSet
446 0 m 1xd8
 341 0 l 1
 341 270 l 2
 341 341 308 382 254 382 c 0xd8
 195 382 155 331 155 252 c 2
 155 0 l 1
 50 0 l 1
 50 435 l 1
 155 435 l 1xb8
 155 380 l 1
 186 428 224 446 294 446 c 0
 397 446 446 386 446 292 c 2
 446 0 l 1xd8
EndSplineSet
EndChar

StartChar: o
Encoding: 80 111 145
Width: 523
GlyphClass: 2
Flags: W
HStem: -12 68<198.379 325.583> 378 68<198.909 326.29>
VStem: 41 105<113.012 319.296> 376 106<111.3 321.611>
LayerCount: 2
Fore
SplineSet
376 217 m 0
 376 313 339 378 262 378 c 0
 184 378 146 310 146 217 c 0
 146 124 184 56 262 56 c 0
 339 56 376 121 376 217 c 0
482 217 m 0
 482 75 388 -12 262 -12 c 0
 132 -12 41 80 41 217 c 0
 41 358 135 446 262 446 c 0
 392 446 482 354 482 217 c 0
EndSplineSet
EndChar

StartChar: p
Encoding: 81 112 146
Width: 529
GlyphClass: 2
Flags: W
HStem: -173 21G<58 163> -13 69<206.438 328.892> 376 70<216.61 331.347> 415 20G<58 163>
VStem: 58 105<-173 41 105.046 320.093 376 435> 383 106<118.92 319.2>
LayerCount: 2
Fore
SplineSet
383 222 m 0xec
 383 296 352 376 271 376 c 0
 190 376 162 287 162 219 c 0
 162 118 195 56 269 56 c 0
 354 56 383 149 383 222 c 0xec
489 222 m 0
 489 80 420 -13 293 -13 c 0
 235 -13 202 5 163 41 c 1
 163 -173 l 1
 58 -173 l 1
 58 435 l 1
 163 435 l 1xdc
 163 376 l 1
 201 421 240 446 288 446 c 0
 423 446 489 348 489 222 c 0
EndSplineSet
EndChar

StartChar: q
Encoding: 82 113 147
Width: 529
GlyphClass: 2
Flags: W
HStem: -173 21G<365 471> -13 69<200.027 321.896> 376 70<197.227 316.591> 415 20G<365 471>
VStem: 41 105<119.687 317.8> 365 106<-173 41 105.046 321.252 376 435>
LayerCount: 2
Fore
SplineSet
367 219 m 0xec
 367 290 337 376 258 376 c 0
 175 376 146 292 146 222 c 0
 146 145 176 56 261 56 c 0
 334 56 367 118 367 219 c 0xec
471 -173 m 1
 365 -173 l 1
 365 41 l 1
 324 5 294 -13 235 -13 c 0
 108 -13 41 80 41 222 c 0
 41 350 106 446 241 446 c 0
 295 446 334 421 365 376 c 1xec
 365 435 l 1
 471 435 l 1xdc
 471 -173 l 1
EndSplineSet
EndChar

StartChar: r
Encoding: 83 114 148
Width: 330
GlyphClass: 2
Flags: W
HStem: 0 21G<58 163> 353 89<216.044 315> 415 20G<58 163>
VStem: 58 105<0 303.83 370 435>
LayerCount: 2
Fore
SplineSet
315 353 m 1xd0
 212 353 163 310 163 229 c 2
 163 0 l 1
 58 0 l 1
 58 435 l 1
 163 435 l 1xb0
 163 370 l 1
 190 422 221 442 315 442 c 1
 315 353 l 1xd0
EndSplineSet
EndChar

StartChar: s
Encoding: 84 115 149
Width: 447
GlyphClass: 2
Flags: W
HStem: -12 68<162.038 284.722> 379 67<169.018 277.123>
VStem: 41 104<75.9588 132> 51 103<290.244 365.439> 291 104<311 366.006> 304 103<75.5944 156.315>
LayerCount: 2
Fore
SplineSet
407 133 m 0xd4
 407 27 309 -12 215 -12 c 0
 116 -12 41 27 41 132 c 1
 145 132 l 1
 147 75 174 56 225 56 c 0
 265 56 304 79 304 120 c 0xe4
 304 218 51 150 51 319 c 0
 51 389 112 446 224 446 c 0
 333 446 395 407 395 311 c 1
 291 311 l 1xd8
 290 352 277 379 219 379 c 0
 181 379 154 354 154 323 c 0
 154 239 407 298 407 133 c 0xd4
EndSplineSet
EndChar

StartChar: t
Encoding: 85 116 150
Width: 345
GlyphClass: 2
Flags: W
HStem: -11 74<226.055 321.038> 366 69<25 109 214 316>
VStem: 109 105<76.3652 366 435 508>
LayerCount: 2
Fore
SplineSet
322 3 m 1
 295 -7 268 -11 240 -11 c 0
 168 -11 109 27 109 108 c 2
 109 366 l 1
 25 366 l 1
 25 435 l 1
 109 435 l 1
 109 508 l 1
 214 560 l 1
 214 435 l 1
 316 435 l 1
 316 366 l 1
 214 366 l 1
 214 131 l 2
 214 82 236 63 276 63 c 0
 292 63 308 65 322 70 c 1
 322 3 l 1
EndSplineSet
EndChar

StartChar: u
Encoding: 86 117 151
Width: 512
GlyphClass: 2
Flags: W
HStem: -10 63<193.577 303.962> 0 21G<349 455> 415 20G<58 163 349 455>
VStem: 58 105<83.8076 435> 349 106<0 58 93.6978 435>
LayerCount: 2
Fore
SplineSet
455 0 m 1x78
 349 0 l 1x78
 349 58 l 1
 316 5 273 -14 190 -10 c 1
 104 -4 58 50 58 142 c 2
 58 435 l 1
 163 435 l 1
 163 165 l 2
 163 93 196 53 249 53 c 0xb8
 310 53 349 97 349 179 c 2
 349 435 l 1
 455 435 l 1
 455 0 l 1x78
EndSplineSet
EndChar

StartChar: v
Encoding: 87 118 152
Width: 471
GlyphClass: 2
Flags: W
HStem: 0 21G<170.276 299.724> 415 20G<10 132.111 329.5 460>
DStem2: 125 435 10 435 0.360272 -0.932847<0 334.197> 237 120 292 0 0.360272 0.932847<0 333.837>
LayerCount: 2
Fore
SplineSet
460 435 m 1
 292 0 l 1
 178 0 l 1
 10 435 l 1
 125 435 l 1
 237 120 l 1
 274 225 311 330 348 435 c 1
 460 435 l 1
EndSplineSet
EndChar

StartChar: w
Encoding: 88 119 153
Width: 733
GlyphClass: 2
Flags: W
HStem: 0 21G<125 273.13 459.808 592.253> 415 20G<10 124.902 297.77 434.295 608.098 722>
VStem: 10 109<326 435> 614 108<327 435>
DStem2: 119 435 10 435 0.30239 -0.953184<0 317.936> 209 130 267 0 0.293046 0.956098<0 230.535> 428 435 366 323 0.295748 -0.955266<88.6534 319.748> 524 130 586 0 0.2984 0.954441<0 317.96>
LayerCount: 2
Fore
SplineSet
722 435 m 1
 586 0 l 1
 466 0 l 1
 366 323 l 1
 267 0 l 1
 148 0 l 1
 102 145 56 290 10 435 c 1
 119 435 l 1
 209 130 l 1
 304 435 l 1
 428 435 l 1
 524 130 l 1
 614 435 l 1
 722 435 l 1
EndSplineSet
EndChar

StartChar: x
Encoding: 89 120 154
Width: 476
GlyphClass: 2
Flags: W
HStem: 0 21G<12 141.625 324.5 464> 415 20G<25 164.768 318.5 450>
VStem: 12 117<0 117> 25 126<309 435> 338 126<0 126>
DStem2: 151 435 25 435 0.584059 -0.811711<0 167.502 269.361 462.313>
LayerCount: 2
Fore
SplineSet
464 0 m 1xd8
 338 0 l 1
 230 160 l 1
 129 0 l 1
 12 0 l 1xe8
 172 230 l 1
 25 435 l 1
 151 435 l 1
 246 297 l 1
 275 343 304 389 333 435 c 1
 450 435 l 1
 305 230 l 1
 464 0 l 1xd8
EndSplineSet
EndChar

StartChar: y
Encoding: 90 121 155
Width: 470
GlyphClass: 2
Flags: W
HStem: -178 88<88.4604 161.62> 415 20G<10 137.593 339.881 460>
DStem2: 130 435 10 435 0.378716 -0.925513<0 315.443> 188 0 262 -101 0.346516 0.938044<-102.143 0 150.038 463.145>
LayerCount: 2
Fore
SplineSet
460 435 m 1
 262 -101 l 2
 246 -146 199 -178 136 -178 c 0
 82 -178 31 -149 7 -100 c 1
 30 -83 53 -66 76 -49 c 1
 88 -76 106 -90 132 -90 c 0
 161 -90 172 -47 188 0 c 1
 10 435 l 1
 130 435 l 1
 242 140 l 1
 347 435 l 1
 460 435 l 1
EndSplineSet
EndChar

StartChar: z
Encoding: 91 122 156
Width: 431
GlyphClass: 2
Flags: W
HStem: 0 69<151 389> 364 71<49 271>
DStem2: 41 85 151 69 0.636383 0.771373<57.6602 361.581>
LayerCount: 2
Fore
SplineSet
389 0 m 1
 41 0 l 1
 41 85 l 1
 271 364 l 1
 49 364 l 1
 49 435 l 1
 382 435 l 1
 382 349 l 1
 151 69 l 1
 389 69 l 1
 389 0 l 1
EndSplineSet
EndChar

StartChar: braceleft
Encoding: 92 123 157
Width: 420
GlyphClass: 2
Flags: W
HStem: -403 89<318.861 367> 754 89<318.861 367>
VStem: 167 91<-180 117.342 323.728 620.423>
LayerCount: 2
Fore
SplineSet
367 -403 m 1
 180 -403 167 -198 167 60 c 0
 167 141 68 161 68 221 c 0
 68 278 167 301 167 381 c 0
 167 638 180 843 367 843 c 1
 367 754 l 1
 273 754 258 615 258 367 c 0
 258 264 173 232 173 221 c 0
 173 209 258 179 258 73 c 0
 258 -174 273 -314 367 -314 c 1
 367 -403 l 1
EndSplineSet
EndChar

StartChar: bar
Encoding: 93 124 158
Width: 328
GlyphClass: 2
Flags: W
VStem: 121 86<-225 692>
LayerCount: 2
Fore
SplineSet
207 -225 m 1
 121 -225 l 1
 121 692 l 1
 207 692 l 1
 207 -225 l 1
EndSplineSet
EndChar

StartChar: braceright
Encoding: 94 125 159
Width: 420
GlyphClass: 2
Flags: W
HStem: -403 91<54 102.139> 755 88<54 102.139>
VStem: 162 92<-179.233 117.009 323.395 620.807>
LayerCount: 2
Fore
SplineSet
350 221 m 0
 350 162 254 140 254 60 c 0
 254 -198 241 -403 54 -403 c 1
 54 -312 l 1
 148 -312 162 -174 162 73 c 0
 162 178 247 209 247 221 c 0
 247 232 162 263 162 367 c 0
 162 615 148 755 54 755 c 1
 54 843 l 1
 241 843 254 640 254 382 c 0
 254 301 350 279 350 221 c 0
EndSplineSet
EndChar

StartChar: asciitilde
Encoding: 95 126 160
Width: 558
GlyphClass: 2
Flags: W
HStem: 164 82<299.946 422.895> 221 80<130.49 250.323>
LayerCount: 2
Fore
SplineSet
504 228 m 1x80
 458 185 406 164 361 164 c 0x80
 279 164 238 221 195 221 c 0
 168 221 135 211 82 161 c 1
 72 186 64 212 54 237 c 1
 102 286 152 301 195 301 c 0x40
 281 301 303 246 361 246 c 0
 389 246 421 262 452 290 c 1
 504 228 l 1x80
EndSplineSet
EndChar

StartChar: uni0EDE
Encoding: 161 3806 161
Width: 808
GlyphClass: 1
Flags: W
HStem: 0 71<127.084 187.006> 135 74<126.977 188.484> 207 70<509 543> 347 56<400.417 455.665> 348 73<127.204 188.507> 487 71<126.801 186.363 370.011 500.285>
VStem: 49 76<72.9702 132.963 423.374 484.94> 189 108<72.672 133.93 204 352 422.221 433.338> 341 59<291.926 345.965> 457 65<283.445 345.857> 543 107<2.86156 207 294 445.251> 687 77<307.011 401.375>
AnchorPoint: "cabove" 390 600 basechar 0
AnchorPoint: "udia" 341 600 basechar 0
AnchorPoint: "cbelow" 480 0 basechar 0
AnchorPoint: "ldia" 490 0 basechar 0
LayerCount: 2
Fore
SplineSet
189 128 m 1xc7f0
 178 132 166 135 156 135 c 0
 141 135 125 125 125 103 c 0
 125 83 139 71 156 71 c 0
 178 71 189 88 189 103 c 2
 189 128 l 1xc7f0
189 431 m 1
 189 447 l 2
 189 469 180 487 156 487 c 0
 136 487 125 471 125 453 c 0
 125 436 137 421 157 421 c 0x8ff0
 167 421 178 425 189 431 c 1
280 500 m 1
 322 530 375 558 445 558 c 0
 564 558 650 503 650 333 c 2
 650 294 l 1
 675 309 687 332 687 358 c 0
 687 393 703 404 725 404 c 0
 747 404 764 399 764 351 c 0
 764 309 731 245 650 219 c 1
 650 34 l 2
 650 1 624 0 597 0 c 0
 572 0 543 0 543 34 c 2
 543 207 l 1
 389 212 341 260 341 319 c 0
 341 375 386 403 428 403 c 0
 477 403 522 373 522 320 c 0
 522 297 510 279 509 279 c 1
 515 279 524 278 543 277 c 1xb7f0
 543 356 l 2
 543 428 524 481 437 481 c 0
 380 481 338 449 297 417 c 1
 297 175 l 2
 297 76 267 0 164 0 c 0
 95 0 49 43 49 103 c 0
 49 162 92 209 156 209 c 0xc7f0
 167 209 178 207 189 204 c 1
 189 352 l 1
 179 349 168 348 156 348 c 0
 93 348 49 395 49 453 c 0
 49 511 91 558 165 558 c 0
 217 558 258 539 280 500 c 1
444 283 m 1
 451 293 457 305 457 318 c 0
 457 338 448 347 428 347 c 0
 409 347 400 337 400 320 c 0
 400 305 414 291 444 283 c 1
EndSplineSet
EndChar

StartChar: uni0EDF
Encoding: 162 3807 162
Width: 741
GlyphClass: 1
Flags: W
HStem: 0 84<194.055 435.787> 207 70<457 484> 338 76<160.392 218.657> 347 56<348.417 403.665> 477 81<159.288 216.424>
VStem: 50 107<414.979 474.451> 55 115<108.311 175.118> 220 89<416.291 475.094> 289 59<292.124 345.965> 405 65<283.445 345.857> 484 119<129.171 207 298 553.297> 635 77<307.887 401.375>
AnchorPoint: "cabove" 340 600 basechar 0
AnchorPoint: "udia" 300 600 basechar 0
AnchorPoint: "cbelow" 440 0 basechar 0
AnchorPoint: "ldia" 440 0 basechar 0
LayerCount: 2
Back
SplineSet
157 423 m 1xed70
 167 418 178 414 188 414 c 0
 200 414 220 424 220 442 c 0
 220 465 204 477 189 477 c 0
 162 477 155 452 157 442 c 1
 157 423 l 1xed70
160 343 m 1
 179 298 286 313 286 242 c 0
 286 164 170 207 170 142 c 0
 170 108 203 84 339 84 c 0
 467 84 484 150 484 207 c 1
 336 213 289 261 289 319 c 0
 289 375 334 403 376 403 c 0
 425 403 470 373 470 320 c 0
 470 297 458 279 457 279 c 1
 462 279 470 278 484 277 c 1
 484 523 l 2
 484 555 517 558 542 558 c 0
 571 558 603 556 603 523 c 2
 603 298 l 1
 624 313 635 333 635 358 c 0
 635 393 651 404 673 404 c 0
 695 404 712 399 712 351 c 0
 712 310 680 247 603 220 c 1
 603 207 l 2
 603 88 532 0 341 0 c 0
 202 0 55 27 55 146 c 0xdaf0
 55 213 106 247 173 253 c 1
 95 277 50 320 50 400 c 2
 50 428 l 2
 50 507 105 558 191 558 c 0
 268 558 309 499 309 448 c 0
 309 384 262 338 189 338 c 0
 180 338 170 340 160 343 c 1
392 283 m 1
 399 293 405 305 405 318 c 0
 405 338 396 347 376 347 c 0
 357 347 348 337 348 320 c 0
 348 305 362 291 392 283 c 1
EndSplineSet
Fore
SplineSet
157 423 m 1xed70
 167 418 178 414 188 414 c 0
 200 414 220 424 220 442 c 0
 220 465 204 477 189 477 c 0
 162 477 155 452 157 442 c 1
 157 423 l 1xed70
50 415 m 0
 50 511 105 558 191 558 c 0
 268 558 309 499 309 448 c 0
 309 384 262 338 189 338 c 0xed70
 180 338 170 340 160 343 c 1
 179 298 286 313 286 242 c 0
 286 164 170 207 170 142 c 0
 170 108 203 84 339 84 c 0
 467 84 484 150 484 207 c 1
 336 213 289 261 289 319 c 0
 289 375 334 403 376 403 c 0
 425 403 470 373 470 320 c 0
 470 297 458 279 457 279 c 1
 462 279 470 278 484 277 c 1
 484 523 l 2
 484 555 517 558 542 558 c 0
 571 558 603 556 603 523 c 2
 603 298 l 1
 624 313 635 333 635 358 c 0
 635 393 651 404 673 404 c 0
 695 404 712 399 712 351 c 0
 712 310 680 247 603 220 c 1
 603 207 l 2
 603 88 532 0 341 0 c 0
 202 0 55 27 55 146 c 0xdaf0
 55 213 106 247 173 253 c 1
 95 277 50 316 50 415 c 0
392 283 m 1
 399 293 405 305 405 318 c 0
 405 338 396 347 376 347 c 0
 357 347 348 337 348 320 c 0xd8f0
 348 305 362 291 392 283 c 1
EndSplineSet
EndChar

